<svg xmlns="http://www.w3.org/2000/svg">
<defs>
<font horiz-adv-x="587" id="496e00df-185b-415f-a9d2-44c7feb05fd4">
<font-face font-family="" panose-1="2 11 8 4 2 2 2 9 2 4" ascent="1479" descent="-482" units-per-em="1000" alphabetic="0">
</font-face>
<missing-glyph horiz-adv-x="606" />

<glyph unicode="&#xA;" />
<glyph unicode="&#xD;" />
<glyph unicode=" " horiz-adv-x="278" />
<glyph unicode="!" horiz-adv-x="296" d="M154 214H84L108 516L150 714H301L259 520L154 214ZM154 0H-4L29 154H187L154 0Z"  />
<glyph unicode="&quot;" horiz-adv-x="481" d="M234 393H127V714H234V393ZM420 393H313V714H420V393Z"  />
<glyph unicode="#" horiz-adv-x="556" d="M372 0H275L302 198H206L178 0H81L109 198H26L36 288H121L139 412H56L66 502H151L179 700H276L248 502H345L372 700H469L442 502H526L516 412H429L412 288H496L486 198H399L372 0ZM315 288L332 412H236L218 288H315Z"  />
<glyph unicode="$" horiz-adv-x="556" d="M234 -104H186L203 -14Q5 10 5 231V240H143V234Q143 119 226 105L266 311Q171 342 138 367Q73 417 73 515Q73 615 146 672T346 731L361 810H410L393 724Q563 687 563 528Q563 513 562 506H425V517Q425 581 369 605L335 428Q432 401 474 362Q527 313 527 223Q527 115 452 50T251 -17L234 -104ZM323 614H315Q271 614 240 589T209 526Q209 469 291 444L323 614ZM273 100Q324 100 357 128T391 204Q391 265 312 296L273 100Z"  />
<glyph unicode="%" horiz-adv-x="963" d="M261 -22H175L713 722H798L261 -22ZM371 398Q314 324 220 324Q151 324 112 366T73 482Q73 583 126 648T267 714Q424 714 424 562Q424 465 371 398ZM227 399Q275 399 302 471Q322 525 322 583Q322 607 308 623T273 639Q229 639 201 585Q175 535 175 464Q175 399 227 399ZM836 56Q778 -14 689 -14Q620 -14 581 29T542 145Q542 244 595 310T735 376Q811 376 852 337T893 224Q893 123 836 56ZM696 61Q743 61 770 133Q791 189 791 245Q791 268 777 284T742 301Q698 301 671 250T644 126Q644 61 696 61Z"  />
<glyph unicode="&amp;" horiz-adv-x="685" d="M615 0H459L427 56Q345 -14 235 -14Q143 -14 81 40Q16 96 16 183Q16 330 209 410Q161 484 161 537Q161 620 215 671T358 722Q438 722 491 678T545 560Q545 452 381 366L458 242Q495 279 510 343H637Q614 221 524 140L615 0ZM288 554Q288 515 326 454Q428 501 428 560Q428 589 410 608T364 627Q332 627 310 608T288 554ZM268 314H267Q202 281 178 253T153 184Q153 151 180 127T247 103Q297 103 365 156L268 314Z"  />
<glyph unicode="&apos;" horiz-adv-x="278" d="M217 393H110V714H217V393Z"  />
<glyph unicode="(" horiz-adv-x="296" d="M88 -182Q61 -118 44 -25T26 140Q26 312 88 457Q141 580 262 731H387Q267 573 214 428Q158 274 158 83Q158 -13 196 -182H88Z"  />
<glyph unicode=")" horiz-adv-x="296" d="M-112 -182Q7 -27 61 122Q117 277 117 466Q117 564 79 731H187Q212 671 230 574T249 410Q249 238 186 93Q134 -27 13 -182H-112Z"  />
<glyph unicode="*" horiz-adv-x="407" d="M361 403L289 364L234 473L148 376L90 432L179 524L71 576L105 649L214 594L231 714L313 710L289 582L410 605L424 526L304 508L361 403Z"  />
<glyph unicode="+" horiz-adv-x="600" d="M536 199H337V0H230V199H31V306H230V505H337V306H536V199Z"  />
<glyph unicode="&#x2c;" horiz-adv-x="278" d="M156 51Q134 -58 98 -104Q50 -165 -48 -167L-33 -96Q8 -89 27 -68T56 0H-13L19 154H177L156 51Z"  />
<glyph unicode="-" horiz-adv-x="407" d="M328 212H27L54 334H354L328 212Z"  />
<glyph unicode="." horiz-adv-x="278" d="M145 0H-13L20 154H178L145 0Z"  />
<glyph unicode="/" horiz-adv-x="389" d="M112 -17H-2L277 731H391L112 -17Z"  />
<glyph unicode="0" horiz-adv-x="556" d="M516 216Q471 106 394 46T218 -14Q113 -14 55 58T-4 255Q-4 369 38 478T156 651T327 714Q439 714 500 644T561 449Q561 326 516 216ZM236 103Q345 103 395 300Q419 394 419 471Q419 597 316 597Q264 597 223 544T160 395T138 226Q138 103 236 103Z"  />
<glyph unicode="1" horiz-adv-x="556" d="M323 0H172L268 454H97L120 561Q215 565 268 597T355 700H471L323 0Z"  />
<glyph unicode="2" horiz-adv-x="556" d="M477 0H-42Q-35 97 21 165T211 303Q246 321 309 357Q416 418 416 494Q416 592 308 592Q254 592 218 552T179 448H44Q55 574 130 644T325 714Q432 714 495 657T558 503Q558 364 354 250L277 207Q198 163 160 122H505L477 0Z"  />
<glyph unicode="3" horiz-adv-x="556" d="M414 368Q512 335 512 225Q512 114 433 50T224 -14Q103 -14 39 45T-22 214L-21 240H114Q114 238 114 231Q113 224 113 219Q113 103 228 103Q289 103 326 138T363 230Q363 317 264 317H213L232 417H278Q340 417 374 441T409 510Q409 551 383 574T312 597Q204 597 179 477H44Q60 590 131 652T315 714Q420 714 483 666T546 531Q546 473 510 429T414 370V368Z"  />
<glyph unicode="4" horiz-adv-x="556" d="M389 0H254L289 162H-36L-10 291L400 700H538L449 279H542L517 162H424L389 0ZM314 279L371 547H369L106 279H314Z"  />
<glyph unicode="5" horiz-adv-x="556" d="M531 583H233L187 434L189 432Q238 476 325 476Q408 476 464 417T521 267Q521 141 439 64T229 -14Q-8 -14 -17 204H120Q120 155 152 129T239 103Q298 103 338 145T379 250Q379 369 260 369Q189 369 148 310H20L142 700H556L531 583Z"  />
<glyph unicode="6" horiz-adv-x="556" d="M440 519Q440 557 415 582T351 607Q290 607 248 561Q203 511 168 398L170 396Q222 470 324 470Q418 470 474 411T531 256Q531 141 453 64T261 -14Q141 -14 77 58T13 271Q13 463 107 588T356 714Q456 714 514 664T577 519H440ZM257 103Q316 103 352 142T389 245Q389 363 277 363Q222 363 186 322T150 221Q150 171 180 137T257 103Z"  />
<glyph unicode="7" horiz-adv-x="556" d="M68 0Q106 146 203 307T410 568H66L94 700H591L565 578Q447 478 351 314Q261 159 219 0H68Z"  />
<glyph unicode="8" horiz-adv-x="556" d="M415 368Q460 358 492 311T524 210Q524 111 438 47Q356 -14 240 -14Q128 -14 54 44T-20 192Q-20 334 155 377V379Q68 423 68 509Q68 600 142 657T332 714Q427 714 488 661T550 526Q550 474 512 429T415 370V368ZM389 445Q423 472 423 512Q423 556 393 581T311 607Q257 607 226 581T195 509Q195 468 227 443T309 418Q356 418 389 445ZM345 125Q382 158 382 211Q382 260 346 291T257 323Q196 323 159 290T122 201Q122 154 158 124T246 93Q308 93 345 125Z"  />
<glyph unicode="9" horiz-adv-x="556" d="M395 304Q344 230 241 230Q147 230 91 288T34 444Q34 558 112 636T305 714Q425 714 488 641T552 429Q552 232 455 109T209 -14Q111 -14 54 34Q-6 85 -12 181H125Q125 142 150 118T214 93Q275 93 318 141T397 302L395 304ZM287 337Q342 337 378 378T415 479Q415 529 384 563T307 597Q249 597 213 558T176 455Q176 399 205 368T287 337Z"  />
<glyph unicode=":" horiz-adv-x="278" d="M219 354H61L94 508H252L219 354ZM145 0H-13L20 154H178L145 0Z"  />
<glyph unicode=";" horiz-adv-x="278" d="M219 354H61L94 508H252L219 354ZM156 51Q130 -78 83 -120Q33 -166 -48 -167L-33 -96Q8 -89 27 -68T56 0H-13L19 154H177L156 51Z"  />
<glyph unicode="&lt;" horiz-adv-x="600" d="M534 -8L26 194V312L534 514V399L167 253L534 107V-8Z"  />
<glyph unicode="=" horiz-adv-x="600" d="M536 306H31V413H536V306ZM536 92H31V199H536V92Z"  />
<glyph unicode="&gt;" horiz-adv-x="600" d="M554 194L46 -8V107L413 253L46 399V514L554 312V194Z"  />
<glyph unicode="?" horiz-adv-x="574" d="M185 220Q196 302 230 347T340 431Q421 473 421 536Q421 571 398 592T334 614Q287 614 256 581T216 491H74Q80 603 156 667T352 731Q450 731 510 681T570 546Q570 486 537 441Q501 393 419 349Q367 321 345 293T317 220H185ZM281 0H123L156 154H314L281 0Z"  />
<glyph unicode="@" horiz-adv-x="800" d="M726 145Q674 67 594 25T421 -17Q258 -17 147 92T36 357Q36 515 151 625Q263 731 416 731Q560 731 662 644T764 426Q764 259 633 175Q573 136 529 136Q498 136 478 152T456 193H454Q418 135 346 135Q283 135 236 185T189 307Q189 405 248 480Q312 561 407 561Q492 561 524 491L540 545H622L556 273Q551 252 551 244Q551 221 568 221Q613 221 648 277T684 405Q684 516 610 583T415 651Q287 651 210 568T132 355Q132 225 214 144T427 63Q560 63 642 145H726ZM369 230Q418 230 455 278T492 381Q492 416 470 441T414 466Q364 466 326 416Q291 370 291 319Q291 280 312 255T369 230Z"  />
<glyph unicode="A" horiz-adv-x="685" d="M625 0H469L446 159H179L89 0H-77L345 714H506L625 0ZM432 276L397 560H395L241 276H432Z"  />
<glyph unicode="B" horiz-adv-x="722" d="M544 379Q594 365 622 326T650 233Q650 124 568 59Q493 0 381 0H-4L146 714H453Q575 714 626 675T678 547Q678 484 641 437T544 381V379ZM418 425Q462 425 491 450T521 519Q521 592 441 592H272L237 425H418ZM373 122Q426 122 459 152T493 237Q493 318 376 318H215L173 122H373Z"  />
<glyph unicode="C" horiz-adv-x="741" d="M681 257Q636 117 557 50T354 -17Q204 -17 121 66T37 299Q37 421 88 521T228 676T427 731Q556 731 634 662T713 476V466H556Q555 531 521 565T428 599Q317 599 251 501Q194 416 194 299Q194 215 236 165T356 115Q417 115 464 155T524 257H681Z"  />
<glyph unicode="D" horiz-adv-x="741" d="M-4 0L147 714H410Q550 714 629 642T708 436Q708 229 591 112Q480 0 300 0H-4ZM306 132Q412 132 481 209T551 409Q551 582 399 582H277L181 132H306Z"  />
<glyph unicode="E" horiz-adv-x="667" d="M547 0H-4L146 714H691L664 582H276L244 429H603L577 307H218L181 132H575L547 0Z"  />
<glyph unicode="F" horiz-adv-x="593" d="M521 295H216L153 0H-4L147 714H655L626 582H276L241 417H547L521 295Z"  />
<glyph unicode="G" horiz-adv-x="759" d="M635 0H536V73H534Q467 -17 353 -17Q205 -17 121 66T37 299Q37 489 151 611Q262 731 427 731Q565 731 647 665T730 478H573Q566 599 428 599Q324 599 258 509Q194 423 194 299Q194 215 236 165T356 115Q509 115 554 269H389L414 386H717L635 0Z"  />
<glyph unicode="H" horiz-adv-x="741" d="M601 0H443L508 308H219L154 0H-4L147 714H305L247 440H536L594 714H752L601 0Z"  />
<glyph unicode="I" horiz-adv-x="296" d="M154 0H-4L147 714H305L154 0Z"  />
<glyph unicode="J" horiz-adv-x="556" d="M458 200Q413 -17 199 -17Q99 -17 40 28T-19 156Q-19 189 -6 266H137Q123 212 123 182Q123 152 144 134T201 115Q247 115 270 140T308 237L407 714H565L458 200Z"  />
<glyph unicode="K" horiz-adv-x="722" d="M650 0H473L310 321L201 226L154 0H-4L145 714H302L240 415H242L566 714H774L431 420L650 0Z"  />
<glyph unicode="L" horiz-adv-x="574" d="M499 0H-4L146 714H304L182 132H527L499 0Z"  />
<glyph unicode="M" horiz-adv-x="907" d="M764 0H617L747 568H745L442 0H323L254 568H252L145 0H-4L147 714H364L419 197H421L696 714H915L764 0Z"  />
<glyph unicode="N" horiz-adv-x="741" d="M600 0H443L247 501H245L143 0H-4L147 714H309L503 206H505L607 714H751L600 0Z"  />
<glyph unicode="O" horiz-adv-x="778" d="M694 198Q645 95 557 39T354 -17Q204 -17 121 66T37 299Q37 491 147 611T427 731Q576 731 660 651T744 424Q744 301 694 198ZM356 115Q463 115 529 214Q587 301 587 414Q587 500 546 549T427 599Q321 599 256 509Q194 424 194 299Q194 215 236 165T356 115Z"  />
<glyph unicode="P" horiz-adv-x="667" d="M153 0H-4L145 714H437Q679 714 679 506Q679 391 593 321Q515 256 405 256H207L153 0ZM396 378Q455 378 488 410T522 502Q522 592 415 592H277L233 378H396Z"  />
<glyph unicode="Q" horiz-adv-x="778" d="M682 -9L598 -79L515 17H514Q440 -17 354 -17Q204 -17 121 66T37 299Q37 490 150 612Q260 731 427 731Q575 731 659 651T744 425Q744 324 709 233Q673 139 606 77L682 -9ZM509 187Q587 279 587 414Q587 500 546 549T427 599Q323 599 257 509Q194 423 194 299Q194 215 236 165T356 115Q388 115 418 126L362 188H361L446 258L509 187Z"  />
<glyph unicode="R" horiz-adv-x="722" d="M462 0Q455 35 455 49Q455 64 459 120T463 192Q463 279 364 279H212L153 0H-4L146 714H502Q700 714 700 527Q700 456 654 401T536 335V333Q610 311 610 207Q610 198 608 149T605 83Q605 22 615 0H462ZM385 391Q452 391 497 421T543 504Q543 592 432 592H278L236 391H385Z"  />
<glyph unicode="S" horiz-adv-x="648" d="M485 501V508Q485 609 357 609Q300 609 266 586T232 521Q232 455 374 425Q494 400 543 354T593 219Q593 104 502 39Q421 -17 301 -17Q5 -17 5 237H154V229Q154 105 308 105Q366 105 405 133T444 206Q444 240 416 261Q385 284 303 306Q171 341 127 388T83 509Q83 613 163 672T366 731Q493 731 563 671T634 501H485Z"  />
<glyph unicode="T" horiz-adv-x="611" d="M314 0H156L278 582H54L82 714H678L650 582H436L314 0Z"  />
<glyph unicode="U" horiz-adv-x="741" d="M667 316Q637 173 593 107Q510 -17 319 -17Q190 -17 114 39T38 195Q38 230 53 301L140 714H297L216 328Q195 228 195 211Q195 171 227 145Q263 115 329 115Q407 115 446 150Q481 183 498 263L593 714H750L667 316Z"  />
<glyph unicode="V" horiz-adv-x="630" d="M331 0H154L72 714H229L276 178H278L549 714H712L331 0Z"  />
<glyph unicode="W" horiz-adv-x="944" d="M678 0H522L504 510H502L280 0H122L73 714H230L240 191H242L468 714H618L636 193H638L856 714H1013L678 0Z"  />
<glyph unicode="X" horiz-adv-x="667" d="M609 0H436L324 255L120 0H-70L255 376L88 714H259L360 478L543 714H729L432 369L609 0Z"  />
<glyph unicode="Y" horiz-adv-x="648" d="M333 0H175L232 277L61 714H222L329 410L551 714H736L388 270L333 0Z"  />
<glyph unicode="Z" horiz-adv-x="648" d="M558 0H-43L-16 130L461 582H95L124 714H688L662 588L181 132H584L558 0Z"  />
<glyph unicode="[" horiz-adv-x="333" d="M221 -182H-37L155 731H413L389 619H264L119 -70H245L221 -182Z"  />
<glyph unicode="\" horiz-adv-x="389" d="M391 -17H277L-2 731H112L391 -17Z"  />
<glyph unicode="]" horiz-adv-x="333" d="M146 -182H-112L-88 -70H37L182 619H56L80 731H338L146 -182Z"  />
<glyph unicode="^" horiz-adv-x="600" d="M549 315H432L310 590L188 315H71L243 700H377L549 315Z"  />
<glyph unicode="_" horiz-adv-x="500" d="M500 -125H0V-75H500V-125Z"  />
<glyph unicode="`" horiz-adv-x="259" d="M264 589H164L34 731H186L264 589Z"  />
<glyph unicode="a" horiz-adv-x="574" d="M463 104Q456 73 456 31Q456 18 461 0H319V51Q260 -14 161 -14Q84 -14 39 23T-7 122Q-7 196 47 242T200 299Q236 301 272 304Q323 309 351 322Q388 339 388 373Q388 403 363 419T298 436Q207 436 193 360H60Q84 531 306 531Q520 531 520 395Q520 357 509 308L463 104ZM328 149Q342 176 360 248Q333 231 241 223Q135 214 135 140Q135 81 213 81Q257 81 285 100T328 149Z"  />
<glyph unicode="b" horiz-adv-x="616" d="M119 0H-12L138 714H280L227 462H229Q292 531 382 531Q470 531 519 473T568 311Q568 181 500 89Q425 -14 300 -14Q171 -14 138 81H136L119 0ZM274 93Q347 93 390 168Q426 231 426 309Q426 424 325 424Q250 424 207 348Q171 285 171 203Q171 153 200 123T274 93Z"  />
<glyph unicode="c" horiz-adv-x="559" d="M510 189Q441 -14 243 -14Q13 -14 13 208Q13 345 89 435Q170 531 305 531Q412 531 474 481T537 339V338H395Q395 424 300 424Q227 424 187 348Q155 287 155 206Q155 93 253 93Q336 93 368 189H510Z"  />
<glyph unicode="d" horiz-adv-x="621" d="M489 0H352L366 64L364 65Q318 -14 208 -14Q118 -14 65 40T12 190Q12 343 91 437T293 531Q344 531 383 509T439 448H441L498 714H640L489 0ZM255 93Q328 93 373 169Q411 234 411 312Q411 364 385 394T309 424Q235 424 191 350Q154 287 154 208Q154 157 182 125T255 93Z"  />
<glyph unicode="e" horiz-adv-x="580" d="M511 164Q476 71 412 29T244 -14Q136 -14 75 46T13 212Q13 342 89 434Q171 531 298 531Q412 531 475 471T539 305Q539 266 531 224H150L149 197Q147 147 178 120T263 93Q326 93 369 164H511ZM402 314V318Q402 424 305 424Q205 424 165 314H402Z"  />
<glyph unicode="f" horiz-adv-x="352" d="M159 0H17L106 422H22L42 517H127L135 553Q158 655 200 686Q246 720 328 720Q368 720 421 712L399 610L368 612Q363 613 353 613Q312 613 296 595Q284 582 274 538L269 517H370L350 422H248L159 0Z"  />
<glyph unicode="g" horiz-adv-x="613" d="M486 22Q462 -93 391 -146Q324 -196 203 -196Q103 -196 42 -151T-19 -27H123Q123 -63 150 -82T216 -101Q270 -101 302 -62T360 79L358 81Q303 8 216 8Q126 8 72 65T17 219Q17 341 85 432Q160 531 278 531Q397 531 436 438H438L454 517H590L486 22ZM255 115Q326 115 369 180Q406 237 406 312Q406 365 380 394T304 424Q238 424 196 357Q159 299 159 229Q159 177 184 146T255 115Z"  />
<glyph unicode="h" horiz-adv-x="601" d="M471 0H329L392 302Q401 345 401 361Q401 386 381 402T333 419Q218 419 187 272L130 0H-12L138 714H279L226 457H228Q283 531 399 531Q550 531 550 393Q550 374 543 341L471 0Z"  />
<glyph unicode="i" horiz-adv-x="262" d="M256 597H113L139 714H282L256 597ZM130 0H-13L97 517H240L130 0Z"  />
<glyph unicode="j" horiz-adv-x="266" d="M257 597H115L141 714H284L257 597ZM130 -17Q111 -109 71 -144Q29 -182 -62 -182Q-91 -182 -131 -177L-107 -63L-67 -65Q-37 -66 -26 -50T-2 28L101 517H243L130 -17Z"  />
<glyph unicode="k" horiz-adv-x="556" d="M480 0H324L239 231L165 168L130 0H-12L138 714H280L198 326L200 324L404 517H579L347 321L480 0Z"  />
<glyph unicode="l" horiz-adv-x="261" d="M129 0H-13L139 714H281L129 0Z"  />
<glyph unicode="m" horiz-adv-x="907" d="M777 0H635L703 326Q707 345 707 363Q707 387 690 403T645 419Q598 419 561 379T512 278L454 0H311L378 325Q380 341 383 363Q383 388 366 403T321 419Q274 419 238 378T188 277L130 0H-12L96 517H232L216 444H218Q282 531 399 531Q507 531 524 441Q552 482 601 506T700 531Q768 531 812 495T856 400Q856 373 849 340L777 0Z"  />
<glyph unicode="n" horiz-adv-x="601" d="M471 0H329L392 302Q401 345 401 361Q401 386 381 402T333 419Q218 419 187 272L130 0H-12L96 517H232L216 445H218Q287 531 399 531Q550 531 550 393Q550 374 543 341L471 0Z"  />
<glyph unicode="o" horiz-adv-x="599" d="M471 81Q388 -14 250 -14Q137 -14 75 44T13 209Q13 344 93 435Q177 531 310 531Q424 531 487 474T551 312Q551 172 471 81ZM257 93Q329 93 373 169Q409 232 409 310Q409 424 305 424Q234 424 191 349Q155 285 155 209Q155 160 183 127T257 93Z"  />
<glyph unicode="p" horiz-adv-x="621" d="M90 -182H-52L97 517H234L220 454L222 451Q267 531 377 531Q469 531 521 475T573 327Q573 233 539 154T441 30T292 -14Q242 -14 202 8T147 69H144L90 -182ZM276 93Q347 93 392 166Q431 230 431 309Q431 358 404 391T329 424Q257 424 212 348Q174 283 174 205Q174 152 200 123T276 93Z"  />
<glyph unicode="q" horiz-adv-x="615" d="M445 -182H303L350 41H348Q296 -14 202 -14Q113 -14 63 44T12 206Q12 343 86 437T280 531Q408 531 442 436H444L461 517H592L445 -182ZM259 93Q325 93 371 165Q413 232 413 314Q413 363 385 393T309 424Q238 424 194 354Q154 291 154 208Q154 93 259 93Z"  />
<glyph unicode="r" horiz-adv-x="389" d="M130 0H-12L96 517H231L209 424L212 422Q263 531 391 531Q410 531 434 528L405 390Q365 399 345 399Q214 399 178 228L130 0Z"  />
<glyph unicode="s" horiz-adv-x="519" d="M484 366H352Q349 436 271 436Q185 436 185 385Q185 355 229 340L335 305Q457 265 457 162Q457 79 386 31Q319 -14 211 -14Q120 -14 62 21Q-9 64 -9 149V168H123V158Q123 130 136 115Q165 81 225 81Q315 81 315 143Q315 181 261 203Q215 217 170 230Q95 253 69 282T43 367Q43 443 110 488Q173 531 272 531Q484 531 484 371V366Z"  />
<glyph unicode="t" horiz-adv-x="370" d="M275 -4Q210 -9 187 -9Q51 -9 51 92Q51 108 58 142L116 422H23L45 517H136L168 674H310L278 517H380L358 422H257L205 170Q200 146 200 137Q200 103 245 103Q266 103 299 106L275 -4Z"  />
<glyph unicode="u" horiz-adv-x="601" d="M470 0H334L350 72H348Q279 -14 167 -14Q17 -14 17 122Q17 147 32 218L95 517H237L177 231Q165 174 165 152Q165 128 184 113T233 98Q348 98 378 242L436 517H578L470 0Z"  />
<glyph unicode="v" horiz-adv-x="519" d="M260 0H98L30 517H176L208 149H210L393 517H543L260 0Z"  />
<glyph unicode="w" horiz-adv-x="815" d="M564 0H416L398 363H396L236 0H87L30 517H175L195 153H197L356 517H500L516 156H518L684 517H834L564 0Z"  />
<glyph unicode="x" horiz-adv-x="519" d="M447 0H297L222 170L84 0H-77L163 277L46 517H198L255 368L372 517H531L316 269L447 0Z"  />
<glyph unicode="y" horiz-adv-x="519" d="M216 -69Q177 -139 137 -160T13 -182Q-26 -182 -63 -176L-39 -59Q2 -65 19 -65Q57 -65 77 -48Q91 -35 113 5L21 517H167L212 147H214L393 517H543L216 -69Z"  />
<glyph unicode="z" horiz-adv-x="500" d="M418 0H-51L-28 105L295 410H46L69 517H503L481 412L156 107H441L418 0Z"  />
<glyph unicode="{" horiz-adv-x="333" d="M221 -182H92Q52 -182 24 -149T-4 -75Q-4 -61 -1 -47L40 147Q42 156 42 165Q42 194 20 212T-35 231L-17 318Q25 321 55 346T94 408L133 597Q145 653 193 692T282 731H411L388 619H336Q281 619 268 560L231 387Q211 293 109 276V273Q188 261 188 194Q188 174 184 155L153 7Q148 -19 148 -35Q149 -70 191 -70H244L221 -182Z"  />
<glyph unicode="|" horiz-adv-x="222" d="M165 -214H58V786H165V-214Z"  />
<glyph unicode="}" horiz-adv-x="333" d="M168 -47Q157 -99 114 -139Q69 -182 17 -182H-110L-87 -70H-56Q-19 -70 -10 -67Q25 -56 36 0L66 148Q89 261 191 273V276Q113 291 113 355Q113 371 120 405L151 557Q153 567 153 583Q153 619 107 619H57L80 731H209Q245 731 275 700T305 624Q305 610 304 605L260 394Q259 391 259 384Q259 357 280 338T336 318L318 231Q281 230 248 205T207 141L168 -47Z"  />
<glyph unicode="~" horiz-adv-x="600" d="M516 251Q480 201 454 183T391 165Q351 165 282 199T174 233Q124 233 90 161L50 254Q97 340 175 340Q220 340 316 294Q362 272 388 272Q428 272 476 344L516 251Z"  />
<glyph unicode="&#xA0;" horiz-adv-x="278" />
<glyph unicode="&#xA1;" horiz-adv-x="296" d="M236 377H78L111 531H269L236 377ZM114 -183H-37L4 9L110 317H180L155 11L114 -183Z"  />
<glyph unicode="&#xA2;" horiz-adv-x="556" d="M220 -117H171L193 -10Q11 13 11 208Q11 346 88 436Q169 531 305 531H307L325 617H374L355 527Q529 505 535 338H393Q393 408 333 420L265 93Q337 104 366 189H508Q478 85 415 36T244 -14H242L220 -117ZM284 424Q223 418 188 354T153 205Q153 114 216 99L284 424Z"  />
<glyph unicode="&#xA3;" horiz-adv-x="556" d="M519 34Q439 -17 354 -17Q319 -17 252 2T149 21Q93 21 31 -17L-11 80L-10 81Q59 129 87 168T116 253Q116 289 111 311H15L33 396H97Q90 412 83 448T75 507Q75 611 155 674Q229 731 336 731Q449 731 509 670T569 497V476H432V485Q432 614 336 614Q283 614 254 582T224 497Q224 436 242 396H382L366 311H251Q252 308 252 304Q252 249 245 225Q227 165 158 114L160 112Q196 128 242 128Q259 128 311 117T381 105Q430 105 478 141L519 34Z"  />
<glyph unicode="&#xA4;" horiz-adv-x="556" d="M534 149L479 94L422 152Q369 102 279 102Q188 102 132 151L76 93L20 149L77 207Q29 264 29 349Q29 444 77 493L20 551L77 608L134 552Q188 598 280 598Q362 598 417 553L475 610L536 549L480 494Q525 443 525 351Q525 258 479 205L534 149ZM279 209Q332 209 365 250T398 351Q398 410 365 450T279 491Q226 491 191 451T156 349Q156 289 190 249T279 209Z"  />
<glyph unicode="&#xA5;" horiz-adv-x="556" d="M466 138H311L282 0H130L159 138H4L24 233H179L188 278L180 308H39L60 403H153L65 714H230L289 403H291L480 714H645L428 403H521L501 308H362L341 278L329 233H486L466 138Z"  />
<glyph unicode="&#xA6;" horiz-adv-x="222" d="M165 411H58V661H165V411ZM165 -89H58V161H165V-89Z"  />
<glyph unicode="&#xA7;" horiz-adv-x="593" d="M134 9Q134 -29 157 -52T217 -75Q306 -75 306 -5Q306 38 239 85Q118 170 104 182Q28 249 28 320Q28 380 66 423T170 477Q139 519 139 561Q139 640 213 688Q277 731 360 731Q444 731 499 692Q562 648 562 568Q562 559 560 541H433V546Q433 624 358 624Q324 624 303 606T281 557Q285 518 342 475Q408 427 475 378Q549 313 549 241Q549 184 513 142T418 84Q448 49 448 -3Q448 -89 375 -139Q311 -182 221 -182Q124 -182 67 -133Q7 -81 7 9V17H134V9ZM308 176Q334 154 353 154Q381 154 401 172T422 218Q422 258 385 289L260 393Q247 404 219 404Q194 404 175 385T155 340Q155 313 168 296Q176 286 212 256L308 176Z"  />
<glyph unicode="&#xA8;" horiz-adv-x="259" d="M148 598H17L41 715H172L148 598ZM344 598H213L237 715H368L344 598Z"  />
<glyph unicode="&#xA9;" horiz-adv-x="800" d="M784 357Q784 196 672 90T400 -17Q238 -17 127 89T16 357Q16 519 130 627Q240 731 400 731Q566 731 675 622T784 357ZM400 63Q522 63 602 148T682 357Q682 479 601 565T399 651Q278 651 198 565T118 357Q118 234 198 149T400 63ZM596 295Q583 221 533 179T414 137Q320 137 260 200T199 359Q199 460 258 521T412 583Q485 583 534 541T593 428H515Q497 503 412 503Q358 503 327 465T295 361Q295 300 328 259T414 217Q503 217 515 295H596Z"  />
<glyph unicode="&#xAA;" horiz-adv-x="344" d="M244 384V415Q207 375 145 375Q91 375 60 398T29 458Q29 569 185 579Q243 583 264 590T286 614Q286 649 233 649Q178 649 168 609H73Q88 714 239 714Q388 714 388 627Q388 590 367 518T346 409Q346 400 350 384H244ZM238 460Q259 481 273 536Q255 525 193 521T131 474Q131 440 179 440Q217 440 238 460Z"  />
<glyph unicode="&#xAB;" horiz-adv-x="463" d="M148 81L21 218L49 348L230 463L204 340L94 272L171 187L148 81ZM345 81L217 218L245 348L426 463L400 340L290 272L367 187L345 81Z"  />
<glyph unicode="&#xAC;" horiz-adv-x="600" d="M542 99H435V299H38V406H542V99Z"  />
<glyph unicode="&#xAD;" horiz-adv-x="407" d="M328 212H27L54 334H354L328 212Z"  />
<glyph unicode="&#xAE;" horiz-adv-x="800" d="M784 358Q784 198 673 91T400 -17Q273 -17 173 52Q98 103 57 183T16 358Q16 520 130 627Q240 731 400 731Q566 731 675 622T784 358ZM400 63Q522 63 602 149T682 358Q682 484 598 569Q516 651 399 651Q278 651 198 566T118 358Q118 233 197 148T400 63ZM575 149H488L386 328H336V149H251V568H414Q573 568 573 444Q573 342 463 332L575 149ZM412 393Q488 393 488 451Q488 503 407 503H336V393H412Z"  />
<glyph unicode="&#xAF;" horiz-adv-x="259" d="M340 619H35L49 694H354L340 619Z"  />
<glyph unicode="&#xB0;" horiz-adv-x="400" d="M345 461Q302 418 240 418Q178 418 135 461T92 566Q92 627 135 670T240 714Q302 714 345 671T388 566Q388 505 345 461ZM240 478Q273 478 298 505T323 566Q323 601 298 627T240 654Q207 654 182 628T157 566Q157 532 182 505T240 478Z"  />
<glyph unicode="&#xB1;" horiz-adv-x="600" d="M536 268H337V137H230V268H31V375H230V506H337V375H536V268ZM536 0H31V107H536V0Z"  />
<glyph unicode="&#xB2;" horiz-adv-x="390" d="M359 397H46Q53 467 82 511T173 586L263 631Q323 661 323 705Q323 752 272 752Q211 752 201 676H101Q109 747 156 788T278 829Q345 829 385 796T425 710Q425 622 314 569L231 529Q179 504 171 477H376L359 397Z"  />
<glyph unicode="&#xB3;" horiz-adv-x="390" d="M154 527Q154 467 219 467Q255 467 277 487T299 539Q299 586 240 586H204L218 655H255Q281 655 299 669T318 705Q318 753 263 753Q203 753 193 687H98Q108 754 154 791T273 829Q333 829 371 798T410 720Q410 649 330 624Q393 605 393 542Q393 474 344 431T213 388Q58 388 58 527H154Z"  />
<glyph unicode="&#xB4;" horiz-adv-x="259" d="M234 589H134L222 731H374L234 589Z"  />
<glyph unicode="&#xB5;" horiz-adv-x="603" d="M472 0H336L352 72H350Q271 -14 194 -14Q153 -14 128 6L89 -182H-53L97 517H239L179 231Q167 174 167 150Q167 127 186 113T232 98Q287 98 326 135T377 230L438 517H580L472 0Z"  />
<glyph unicode="&#xB6;" horiz-adv-x="600" d="M448 -166H352L521 633H410L241 -166H145L254 353Q166 353 119 390T71 491Q71 543 98 597Q157 714 345 714H632L448 -166Z"  />
<glyph unicode="&#xB7;" horiz-adv-x="278" d="M212 287Q212 253 187 228T129 203Q94 203 69 228T43 287Q43 322 68 347T128 372Q162 372 187 347T212 287Z"  />
<glyph unicode="&#xB8;" horiz-adv-x="259" d="M133 -54Q151 -47 171 -47Q208 -47 230 -66T252 -120Q252 -165 216 -191T117 -217Q64 -217 7 -195L31 -147Q78 -165 108 -165Q157 -165 157 -131Q157 -98 117 -98Q98 -98 76 -106L57 -82L123 0H177L131 -52L133 -54Z"  />
<glyph unicode="&#xB9;" horiz-adv-x="390" d="M275 397H173L235 665H122L137 737H148Q207 737 237 756T285 820H369L275 397Z"  />
<glyph unicode="&#xBA;" horiz-adv-x="356" d="M400 576Q400 485 345 430T198 375Q37 375 37 514Q37 603 91 658T237 714Q400 714 400 576ZM202 450Q244 450 272 491Q298 529 298 575Q298 639 232 639Q193 639 166 601T139 515Q139 487 156 469T202 450Z"  />
<glyph unicode="&#xBB;" horiz-adv-x="463" d="M187 195L6 80L32 203L142 271L65 356L87 463L215 325L187 195ZM383 195L202 80L228 203L338 271L261 356L283 463L411 325L383 195Z"  />
<glyph unicode="&#xBC;" horiz-adv-x="834" d="M234 -22H147L561 722H646L234 -22ZM232 281H130L192 549H79L94 621H109Q213 621 242 704H326L232 281ZM659 0H563L580 83H395L412 167L652 423H748L692 160H753L737 83H676L659 0ZM596 159L628 310L488 159H596Z"  />
<glyph unicode="&#xBD;" horiz-adv-x="834" d="M207 -22H120L534 722H619L207 -22ZM232 281H130L192 549H79L94 621H109Q213 621 242 704H326L232 281ZM721 0H408Q415 72 445 115T536 190L629 237Q685 265 685 308Q685 355 634 355Q574 355 563 279H463Q473 351 519 391T640 432Q708 432 747 399T787 313Q787 227 673 171L588 129Q539 105 533 80H738L721 0Z"  />
<glyph unicode="&#xBE;" horiz-adv-x="834" d="M289 -22H202L616 722H701L289 -22ZM138 411Q138 351 203 351Q239 351 261 371T283 423Q283 470 224 470H188L202 539H242Q264 539 283 553T302 589Q302 637 247 637Q188 637 177 571H82Q93 639 138 676T257 713Q318 713 356 682T394 604Q394 534 313 508Q377 489 377 426Q377 357 326 315T197 272Q42 272 42 411H138ZM687 0H591L608 83H423L440 167L680 423H776L720 159H781L765 83H704L687 0ZM624 159L656 310L516 159H624Z"  />
<glyph unicode="&#xBF;" horiz-adv-x="574" d="M383 377H225L258 531H416L383 377ZM465 44Q458 -70 383 -133T187 -196Q88 -196 29 -147T-31 -11Q-31 49 3 95T118 185Q212 236 222 315H354Q343 233 310 189T201 105Q118 62 118 -1Q118 -37 142 -58T205 -79Q252 -79 283 -47T323 44H465Z"  />
<glyph unicode="&#xC0;" horiz-adv-x="685" d="M625 0H469L446 159H179L89 0H-77L345 714H506L625 0ZM432 276L397 560H395L241 276H432ZM501 779H401L271 921H423L501 779Z"  />
<glyph unicode="&#xC1;" horiz-adv-x="685" d="M625 0H469L446 159H179L89 0H-77L345 714H506L625 0ZM432 276L397 560H395L241 276H432ZM460 779H360L448 921H600L460 779Z"  />
<glyph unicode="&#xC2;" horiz-adv-x="685" d="M625 0H469L446 159H179L89 0H-77L345 714H506L625 0ZM432 276L397 560H395L241 276H432ZM604 779H504L453 860L367 779H258L395 921H521L604 779Z"  />
<glyph unicode="&#xC3;" horiz-adv-x="685" d="M625 0H469L446 159H179L89 0H-77L345 714H506L625 0ZM432 276L397 560H395L241 276H432ZM626 911Q614 852 587 825T514 797Q480 797 435 814Q389 831 368 831Q332 831 322 789H259Q262 814 271 836T296 875T332 901T376 911Q406 911 452 894Q497 876 519 876Q554 876 562 911H626Z"  />
<glyph unicode="&#xC4;" horiz-adv-x="685" d="M625 0H469L446 159H179L89 0H-77L345 714H506L625 0ZM432 276L397 560H395L241 276H432ZM399 788H268L292 905H423L399 788ZM595 788H464L488 905H619L595 788Z"  />
<glyph unicode="&#xC5;" horiz-adv-x="685" d="M625 0H469L446 159H179L89 0H-77L345 714H506L625 0ZM432 276L397 560H395L241 276H432ZM561 859Q561 835 552 814T527 778T490 754T444 745Q420 745 399 753T361 777T336 813T327 859Q327 883 336 904T362 940T399 964T444 973Q494 973 527 942T561 859ZM444 796Q471 796 488 813T505 859Q505 887 488 904T443 922Q417 922 400 905T383 859Q383 831 400 814T444 796Z"  />
<glyph unicode="&#xC6;" horiz-adv-x="981" d="M878 0H381L414 154H194L85 0H-91L410 714H1021L993 582H664L631 429H939L913 307H605L567 132H906L878 0ZM439 271L506 582H486L267 271H439Z"  />
<glyph unicode="&#xC7;" horiz-adv-x="741" d="M681 257Q635 116 557 50T355 -17Q334 -17 324 -16L292 -52L294 -54Q309 -47 333 -47Q369 -47 391 -67T413 -120Q413 -165 377 -191T277 -217Q225 -217 168 -195L192 -147Q232 -165 269 -165Q318 -165 318 -131Q318 -98 278 -98Q258 -98 237 -106L218 -82L274 -10Q159 11 98 90T37 299Q37 421 88 521T228 676T427 731Q556 731 634 662T713 476V466H556Q555 531 521 565T428 599Q317 599 251 501Q194 416 194 299Q194 215 236 165T356 115Q417 115 464 155T524 257H681Z"  />
<glyph unicode="&#xC8;" horiz-adv-x="667" d="M547 0H-4L146 714H691L664 582H276L244 429H603L577 307H218L181 132H575L547 0ZM477 779H377L247 921H399L477 779Z"  />
<glyph unicode="&#xC9;" horiz-adv-x="667" d="M547 0H-4L146 714H691L664 582H276L244 429H603L577 307H218L181 132H575L547 0ZM456 779H356L444 921H596L456 779Z"  />
<glyph unicode="&#xCA;" horiz-adv-x="667" d="M547 0H-4L146 714H691L664 582H276L244 429H603L577 307H218L181 132H575L547 0ZM590 779H490L439 860L353 779H244L381 921H507L590 779Z"  />
<glyph unicode="&#xCB;" horiz-adv-x="667" d="M547 0H-4L146 714H691L664 582H276L244 429H603L577 307H218L181 132H575L547 0ZM385 788H254L278 905H409L385 788ZM581 788H450L474 905H605L581 788Z"  />
<glyph unicode="&#xCC;" horiz-adv-x="296" d="M154 0H-4L147 714H305L154 0ZM314 779H214L84 921H236L314 779Z"  />
<glyph unicode="&#xCD;" horiz-adv-x="296" d="M154 0H-4L147 714H305L154 0ZM257 779H157L245 921H397L257 779Z"  />
<glyph unicode="&#xCE;" horiz-adv-x="296" d="M154 0H-4L147 714H305L154 0ZM409 779H309L258 860L172 779H63L200 921H326L409 779Z"  />
<glyph unicode="&#xCF;" horiz-adv-x="296" d="M154 0H-4L147 714H305L154 0ZM204 788H73L97 905H228L204 788ZM400 788H269L293 905H424L400 788Z"  />
<glyph unicode="&#xD0;" horiz-adv-x="741" d="M-4 0L63 319H-17L4 418H85L147 714H410Q550 714 629 642T708 436Q708 229 591 112Q480 0 300 0H-4ZM306 132Q412 132 481 209T551 409Q551 582 399 582H277L242 418H406L385 319H220L181 132H306Z"  />
<glyph unicode="&#xD1;" horiz-adv-x="741" d="M600 0H443L247 501H245L143 0H-4L147 714H309L503 206H505L607 714H751L600 0ZM636 911Q624 852 597 825T524 797Q490 797 445 814Q399 831 378 831Q342 831 332 789H269Q272 814 281 836T306 875T342 901T386 911Q416 911 462 894Q507 876 529 876Q564 876 572 911H636Z"  />
<glyph unicode="&#xD2;" horiz-adv-x="778" d="M695 199Q645 95 557 39T354 -17Q204 -17 121 65T37 299Q37 396 66 475T148 612T272 700T427 731Q501 731 560 711T660 651T722 554T744 424Q744 301 695 199ZM523 206Q587 297 587 414Q587 499 547 549T427 599Q372 599 329 575T256 509T210 413T194 299Q194 217 235 166T356 115Q458 115 523 206ZM519 779H419L289 921H441L519 779Z"  />
<glyph unicode="&#xD3;" horiz-adv-x="778" d="M695 199Q645 95 557 39T354 -17Q204 -17 121 65T37 299Q37 396 66 475T148 612T272 700T427 731Q501 731 560 711T660 651T722 554T744 424Q744 301 695 199ZM523 206Q587 297 587 414Q587 499 547 549T427 599Q372 599 329 575T256 509T210 413T194 299Q194 217 235 166T356 115Q458 115 523 206ZM498 779H398L486 921H638L498 779Z"  />
<glyph unicode="&#xD4;" horiz-adv-x="778" d="M695 199Q645 95 557 39T354 -17Q204 -17 121 65T37 299Q37 396 66 475T148 612T272 700T427 731Q501 731 560 711T660 651T722 554T744 424Q744 301 695 199ZM523 206Q587 297 587 414Q587 499 547 549T427 599Q372 599 329 575T256 509T210 413T194 299Q194 217 235 166T356 115Q458 115 523 206ZM632 779H532L481 860L395 779H286L423 921H549L632 779Z"  />
<glyph unicode="&#xD5;" horiz-adv-x="778" d="M695 199Q645 95 557 39T354 -17Q204 -17 121 65T37 299Q37 396 66 475T148 612T272 700T427 731Q501 731 560 711T660 651T722 554T744 424Q744 301 695 199ZM523 206Q587 297 587 414Q587 499 547 549T427 599Q372 599 329 575T256 509T210 413T194 299Q194 217 235 166T356 115Q458 115 523 206ZM654 911Q642 852 615 825T542 797Q508 797 463 814Q417 831 396 831Q360 831 350 789H287Q290 814 299 836T324 875T360 901T404 911Q434 911 480 894Q525 876 547 876Q582 876 590 911H654Z"  />
<glyph unicode="&#xD6;" horiz-adv-x="778" d="M695 199Q645 95 557 39T354 -17Q204 -17 121 65T37 299Q37 396 66 475T148 612T272 700T427 731Q501 731 560 711T660 651T722 554T744 424Q744 301 695 199ZM523 206Q587 297 587 414Q587 499 547 549T427 599Q372 599 329 575T256 509T210 413T194 299Q194 217 235 166T356 115Q458 115 523 206ZM427 788H296L320 905H451L427 788ZM623 788H492L516 905H647L623 788Z"  />
<glyph unicode="&#xD7;" horiz-adv-x="600" d="M520 93L443 17L284 178L123 17L46 93L208 253L48 413L125 489L284 329L443 489L520 413L358 253L520 93Z"  />
<glyph unicode="&#xD8;" horiz-adv-x="778" d="M801 696L699 603Q744 530 744 424Q744 301 695 198T557 39T354 -17Q205 -17 122 66L21 -28L-19 16L84 112Q37 185 37 299Q37 489 151 611Q262 731 427 731Q576 731 661 649L760 741L801 696ZM550 545Q508 599 427 599Q324 599 259 511T194 299Q194 259 205 224L550 545ZM232 171Q276 115 356 115Q463 115 529 214Q587 301 587 414Q587 456 577 489L232 171Z"  />
<glyph unicode="&#xD9;" horiz-adv-x="741" d="M667 316Q651 244 633 192T593 107Q550 42 485 13T319 -17Q256 -17 204 -3T115 38T58 104T38 195Q38 207 39 218T41 241T46 267T53 301L140 714H297L216 328Q214 320 211 304T204 270T198 236T195 211Q195 193 203 176T227 145T269 123T329 115Q369 115 397 123T445 150T477 196T498 263L592 711L593 714H750L667 316ZM510 779H410L280 921H432L510 779Z"  />
<glyph unicode="&#xDA;" horiz-adv-x="741" d="M667 316Q651 244 633 192T593 107Q550 42 485 13T319 -17Q256 -17 204 -3T115 38T58 104T38 195Q38 207 39 218T41 241T46 267T53 301L140 714H297L216 328Q214 320 211 304T204 270T198 236T195 211Q195 193 203 176T227 145T269 123T329 115Q369 115 397 123T445 150T477 196T498 263L592 711L593 714H750L667 316ZM489 779H389L477 921H629L489 779Z"  />
<glyph unicode="&#xDB;" horiz-adv-x="741" d="M667 316Q651 244 633 192T593 107Q550 42 485 13T319 -17Q256 -17 204 -3T115 38T58 104T38 195Q38 207 39 218T41 241T46 267T53 301L140 714H297L216 328Q214 320 211 304T204 270T198 236T195 211Q195 193 203 176T227 145T269 123T329 115Q369 115 397 123T445 150T477 196T498 263L592 711L593 714H750L667 316ZM623 779H523L472 860L386 779H277L414 921H540L623 779Z"  />
<glyph unicode="&#xDC;" horiz-adv-x="741" d="M667 316Q651 244 633 192T593 107Q550 42 485 13T319 -17Q256 -17 204 -3T115 38T58 104T38 195Q38 207 39 218T41 241T46 267T53 301L140 714H297L216 328Q214 320 211 304T204 270T198 236T195 211Q195 193 203 176T227 145T269 123T329 115Q369 115 397 123T445 150T477 196T498 263L592 711L593 714H750L667 316ZM418 788H287L311 905H442L418 788ZM614 788H483L507 905H638L614 788Z"  />
<glyph unicode="&#xDD;" horiz-adv-x="648" d="M333 0H175L232 277L61 714H222L329 410L551 714H736L388 270L333 0ZM438 779H338L426 921H578L438 779Z"  />
<glyph unicode="&#xDE;" horiz-adv-x="667" d="M153 0H-4L145 714H302L282 617H413Q660 617 660 409Q660 295 574 224Q495 160 386 160H187L153 0ZM377 282Q437 282 470 314T503 406Q503 495 391 495H257L213 282H377Z"  />
<glyph unicode="&#xDF;" horiz-adv-x="593" d="M130 0H-12L95 507Q114 599 145 640Q213 731 349 731Q443 731 503 685T564 560Q564 499 527 455T425 395V393Q535 367 535 247Q535 132 455 59T258 -14Q224 -14 186 -6L209 105Q241 103 252 103Q313 103 353 144T393 245Q393 346 275 346H262L281 436H295Q422 436 422 544Q422 574 400 594T347 614Q287 614 260 568Q244 542 227 459L130 0Z"  />
<glyph unicode="&#xE0;" horiz-adv-x="574" d="M463 104Q456 73 456 31Q456 18 461 0H319V51Q260 -14 161 -14Q84 -14 39 23T-7 122Q-7 196 47 242T200 299Q236 301 272 304Q323 309 351 322Q388 339 388 373Q388 403 363 419T298 436Q207 436 193 360H60Q84 531 306 531Q520 531 520 395Q520 357 509 308L463 104ZM328 149Q342 176 360 248Q333 231 241 223Q135 214 135 140Q135 81 213 81Q257 81 285 100T328 149ZM391 589H291L161 731H313L391 589Z"  />
<glyph unicode="&#xE1;" horiz-adv-x="574" d="M463 104Q456 73 456 31Q456 18 461 0H319V51Q260 -14 161 -14Q84 -14 39 23T-7 122Q-7 196 47 242T200 299Q236 301 272 304Q323 309 351 322Q388 339 388 373Q388 403 363 419T298 436Q207 436 193 360H60Q84 531 306 531Q520 531 520 395Q520 357 509 308L463 104ZM328 149Q342 176 360 248Q333 231 241 223Q135 214 135 140Q135 81 213 81Q257 81 285 100T328 149ZM362 589H262L350 731H502L362 589Z"  />
<glyph unicode="&#xE2;" horiz-adv-x="574" d="M463 104Q456 73 456 31Q456 18 461 0H319V51Q260 -14 161 -14Q84 -14 39 23T-7 122Q-7 196 47 242T200 299Q236 301 272 304Q323 309 351 322Q388 339 388 373Q388 403 363 419T298 436Q207 436 193 360H60Q84 531 306 531Q520 531 520 395Q520 357 509 308L463 104ZM328 149Q342 176 360 248Q333 231 241 223Q135 214 135 140Q135 81 213 81Q257 81 285 100T328 149ZM500 589H400L349 670L263 589H154L291 731H417L500 589Z"  />
<glyph unicode="&#xE3;" horiz-adv-x="574" d="M463 104Q456 73 456 31Q456 18 461 0H319V51Q260 -14 161 -14Q84 -14 39 23T-7 122Q-7 196 47 242T200 299Q236 301 272 304Q323 309 351 322Q388 339 388 373Q388 403 363 419T298 436Q207 436 193 360H60Q84 531 306 531Q520 531 520 395Q520 357 509 308L463 104ZM328 149Q342 176 360 248Q333 231 241 223Q135 214 135 140Q135 81 213 81Q257 81 285 100T328 149ZM522 721Q500 607 410 607Q381 607 333 624T264 641Q229 641 218 599H155Q162 652 194 686T272 721Q300 721 347 704T415 686Q449 686 458 721H522Z"  />
<glyph unicode="&#xE4;" horiz-adv-x="574" d="M463 104Q456 73 456 31Q456 18 461 0H319V51Q260 -14 161 -14Q84 -14 39 23T-7 122Q-7 196 47 242T200 299Q236 301 272 304Q323 309 351 322Q388 339 388 373Q388 403 363 419T298 436Q207 436 193 360H60Q84 531 306 531Q520 531 520 395Q520 357 509 308L463 104ZM328 149Q342 176 360 248Q333 231 241 223Q135 214 135 140Q135 81 213 81Q257 81 285 100T328 149ZM295 598H164L188 715H319L295 598ZM491 598H360L384 715H515L491 598Z"  />
<glyph unicode="&#xE5;" horiz-adv-x="574" d="M463 104Q456 73 456 31Q456 18 461 0H319V51Q260 -14 161 -14Q84 -14 39 23T-7 122Q-7 196 47 242T200 299Q236 301 272 304Q323 309 351 322Q388 339 388 373Q388 403 363 419T298 436Q207 436 193 360H60Q84 531 306 531Q520 531 520 395Q520 357 509 308L463 104ZM328 149Q342 176 360 248Q333 231 241 223Q135 214 135 140Q135 81 213 81Q257 81 285 100T328 149ZM466 684Q466 633 431 599T343 564Q291 564 256 598T221 684Q221 735 257 769T344 804Q397 804 431 770T466 684ZM343 617Q372 617 389 635T407 684Q407 751 343 751Q315 751 298 733T280 684Q280 654 297 636T343 617Z"  />
<glyph unicode="&#xE6;" horiz-adv-x="914" d="M852 160Q784 -14 591 -14Q456 -14 403 82Q338 -14 191 -14Q4 -14 4 125Q4 209 62 252T250 301Q320 304 344 310Q402 325 402 370Q402 436 321 436Q219 436 209 360H72Q107 531 325 531Q383 531 429 513T493 463Q550 531 664 531Q873 531 873 297Q873 274 868 224H496L492 201Q491 195 491 184Q491 136 524 107Q554 81 601 81Q684 81 710 160H852ZM746 314V316Q746 436 646 436Q596 436 558 403T510 314H746ZM349 144Q367 177 378 249Q341 228 246 220Q146 212 146 143Q146 81 229 81Q273 81 303 99T349 144Z"  />
<glyph unicode="&#xE7;" horiz-adv-x="559" d="M510 189Q441 -15 240 -15H231L198 -52L200 -54Q216 -47 238 -47Q275 -47 297 -66T319 -120Q319 -165 283 -191T184 -217Q125 -217 74 -195L98 -147Q141 -165 175 -165Q224 -165 224 -131Q224 -98 184 -98Q165 -98 143 -106L124 -82L182 -9Q13 18 13 208Q13 344 90 435Q171 531 305 531Q412 531 474 481T537 339V338H395Q395 424 300 424Q227 424 187 348Q155 287 155 206Q155 93 253 93Q336 93 368 189H510Z"  />
<glyph unicode="&#xE8;" horiz-adv-x="580" d="M511 164Q476 71 412 29T244 -14Q136 -14 75 46T13 212Q13 342 89 434Q171 531 298 531Q412 531 475 471T539 305Q539 266 531 224H150L149 197Q147 147 178 120T263 93Q326 93 369 164H511ZM402 314V318Q402 424 305 424Q205 424 165 314H402ZM391 589H291L161 731H313L391 589Z"  />
<glyph unicode="&#xE9;" horiz-adv-x="580" d="M511 164Q476 71 412 29T244 -14Q136 -14 75 46T13 212Q13 342 89 434Q171 531 298 531Q412 531 475 471T539 305Q539 266 531 224H150L149 197Q147 147 178 120T263 93Q326 93 369 164H511ZM402 314V318Q402 424 305 424Q205 424 165 314H402ZM362 589H262L350 731H502L362 589Z"  />
<glyph unicode="&#xEA;" horiz-adv-x="580" d="M511 164Q476 71 412 29T244 -14Q136 -14 75 46T13 212Q13 342 89 434Q171 531 298 531Q412 531 475 471T539 305Q539 266 531 224H150L149 197Q147 147 178 120T263 93Q326 93 369 164H511ZM402 314V318Q402 424 305 424Q205 424 165 314H402ZM500 589H400L349 670L263 589H154L291 731H417L500 589Z"  />
<glyph unicode="&#xEB;" horiz-adv-x="580" d="M511 164Q476 71 412 29T244 -14Q136 -14 75 46T13 212Q13 342 89 434Q171 531 298 531Q412 531 475 471T539 305Q539 266 531 224H150L149 197Q147 147 178 120T263 93Q326 93 369 164H511ZM402 314V318Q402 424 305 424Q205 424 165 314H402ZM295 598H164L188 715H319L295 598ZM491 598H360L384 715H515L491 598Z"  />
<glyph unicode="&#xEC;" horiz-adv-x="262" d="M130 0H-13L97 517H240L130 0ZM250 589H150L20 731H172L250 589Z"  />
<glyph unicode="&#xED;" horiz-adv-x="262" d="M130 0H-13L97 517H240L130 0ZM212 589H112L200 731H352L212 589Z"  />
<glyph unicode="&#xEE;" horiz-adv-x="262" d="M130 0H-13L97 517H240L130 0ZM355 589H255L204 670L118 589H9L146 731H272L355 589Z"  />
<glyph unicode="&#xEF;" horiz-adv-x="262" d="M130 0H-13L97 517H240L130 0ZM148 598H17L41 715H172L148 598ZM344 598H213L237 715H368L344 598Z"  />
<glyph unicode="&#xF0;" horiz-adv-x="600" d="M430 442Q418 530 348 595L235 542L198 599L284 639Q239 666 217 673L301 743Q359 720 394 695L494 743L532 686L451 647Q552 546 552 369Q552 263 515 171Q440 -14 249 -14Q136 -14 74 44T12 209Q12 329 93 417T293 506Q387 506 427 441L430 442ZM256 93Q325 93 370 166Q408 229 408 305Q408 411 303 411Q236 411 192 341Q154 280 154 209Q154 155 181 124T256 93Z"  />
<glyph unicode="&#xF1;" horiz-adv-x="601" d="M471 0H329L392 302Q401 345 401 361Q401 386 381 402T333 419Q218 419 187 272L130 0H-12L96 517H232L216 445H218Q287 531 399 531Q550 531 550 393Q550 374 543 341L471 0ZM525 721Q503 607 413 607Q384 607 336 624T267 641Q232 641 221 599H158Q165 652 197 686T275 721Q303 721 350 704T418 686Q452 686 461 721H525Z"  />
<glyph unicode="&#xF2;" horiz-adv-x="599" d="M471 81Q388 -14 250 -14Q137 -14 75 44T13 209Q13 344 93 435Q177 531 310 531Q424 531 487 474T551 312Q551 172 471 81ZM257 93Q329 93 373 169Q409 232 409 310Q409 424 305 424Q234 424 191 349Q155 285 155 209Q155 160 183 127T257 93ZM397 589H297L167 731H319L397 589Z"  />
<glyph unicode="&#xF3;" horiz-adv-x="599" d="M471 81Q388 -14 250 -14Q137 -14 75 44T13 209Q13 344 93 435Q177 531 310 531Q424 531 487 474T551 312Q551 172 471 81ZM257 93Q329 93 373 169Q409 232 409 310Q409 424 305 424Q234 424 191 349Q155 285 155 209Q155 160 183 127T257 93ZM368 589H268L356 731H508L368 589Z"  />
<glyph unicode="&#xF4;" horiz-adv-x="599" d="M471 81Q388 -14 250 -14Q137 -14 75 44T13 209Q13 344 93 435Q177 531 310 531Q424 531 487 474T551 312Q551 172 471 81ZM257 93Q329 93 373 169Q409 232 409 310Q409 424 305 424Q234 424 191 349Q155 285 155 209Q155 160 183 127T257 93ZM506 589H406L355 670L269 589H160L297 731H423L506 589Z"  />
<glyph unicode="&#xF5;" horiz-adv-x="599" d="M471 81Q388 -14 250 -14Q137 -14 75 44T13 209Q13 344 93 435Q177 531 310 531Q424 531 487 474T551 312Q551 172 471 81ZM257 93Q329 93 373 169Q409 232 409 310Q409 424 305 424Q234 424 191 349Q155 285 155 209Q155 160 183 127T257 93ZM528 721Q506 607 416 607Q387 607 339 624T270 641Q235 641 224 599H161Q168 652 200 686T278 721Q306 721 353 704T421 686Q455 686 464 721H528Z"  />
<glyph unicode="&#xF6;" horiz-adv-x="599" d="M471 81Q388 -14 250 -14Q137 -14 75 44T13 209Q13 344 93 435Q177 531 310 531Q424 531 487 474T551 312Q551 172 471 81ZM257 93Q329 93 373 169Q409 232 409 310Q409 424 305 424Q234 424 191 349Q155 285 155 209Q155 160 183 127T257 93ZM301 598H170L194 715H325L301 598ZM497 598H366L390 715H521L497 598Z"  />
<glyph unicode="&#xF7;" horiz-adv-x="600" d="M343 402Q318 376 285 376Q250 376 225 400T199 460Q199 495 224 520T284 545Q318 545 343 520T368 460Q368 428 343 402ZM536 199H31V306H536V199ZM342 -13Q317 -40 285 -40Q251 -40 225 -15T199 45Q199 79 224 104T284 129Q318 129 343 104T368 45Q368 13 342 -13Z"  />
<glyph unicode="&#xF8;" horiz-adv-x="599" d="M582 506L515 444Q551 387 551 312Q551 172 471 81Q388 -14 250 -14Q138 -14 78 43L5 -24L-24 9L49 75Q13 131 13 209Q13 345 93 436Q176 531 311 531Q419 531 484 477L552 539L582 506ZM388 388Q363 424 305 424Q234 424 191 349Q155 285 155 209Q155 190 159 177L388 388ZM177 134Q206 93 257 93Q329 93 373 169Q409 232 409 310Q409 331 406 344L177 134Z"  />
<glyph unicode="&#xF9;" horiz-adv-x="601" d="M470 0H334L350 72H348Q279 -14 167 -14Q17 -14 17 122Q17 147 32 218L95 517H237L177 231Q165 174 165 152Q165 128 184 113T233 98Q348 98 378 242L436 517H578L470 0ZM408 589H308L178 731H330L408 589Z"  />
<glyph unicode="&#xFA;" horiz-adv-x="601" d="M470 0H334L350 72H348Q279 -14 167 -14Q17 -14 17 122Q17 147 32 218L95 517H237L177 231Q165 174 165 152Q165 128 184 113T233 98Q348 98 378 242L436 517H578L470 0ZM379 589H279L367 731H519L379 589Z"  />
<glyph unicode="&#xFB;" horiz-adv-x="601" d="M470 0H334L350 72H348Q279 -14 167 -14Q17 -14 17 122Q17 147 32 218L95 517H237L177 231Q165 174 165 152Q165 128 184 113T233 98Q348 98 378 242L436 517H578L470 0ZM517 589H417L366 670L280 589H171L308 731H434L517 589Z"  />
<glyph unicode="&#xFC;" horiz-adv-x="601" d="M470 0H334L350 72H348Q279 -14 167 -14Q17 -14 17 122Q17 147 32 218L95 517H237L177 231Q165 174 165 152Q165 128 184 113T233 98Q348 98 378 242L436 517H578L470 0ZM312 598H181L205 715H336L312 598ZM508 598H377L401 715H532L508 598Z"  />
<glyph unicode="&#xFD;" horiz-adv-x="519" d="M216 -69Q177 -139 137 -160T13 -182Q-26 -182 -63 -176L-39 -59Q2 -65 19 -65Q57 -65 77 -48Q91 -35 113 5L21 517H167L212 147H214L393 517H543L216 -69ZM322 589H222L310 731H462L322 589Z"  />
<glyph unicode="&#xFE;" horiz-adv-x="611" d="M83 -182H-59L130 714H272L215 452H217Q260 531 370 531Q461 531 513 476T566 327Q566 231 530 150Q457 -14 286 -14Q236 -14 195 8T139 69H137L83 -182ZM269 93Q343 93 387 167Q424 230 424 309Q424 361 397 392T322 424Q250 424 205 348Q167 283 167 205Q167 152 194 123T269 93Z"  />
<glyph unicode="&#xFF;" horiz-adv-x="519" d="M216 -69Q177 -139 137 -160T13 -182Q-26 -182 -63 -176L-39 -59Q2 -65 19 -65Q57 -65 77 -48Q91 -35 113 5L21 517H167L212 147H214L393 517H543L216 -69ZM255 598H124L148 715H279L255 598ZM451 598H320L344 715H475L451 598Z"  />
<glyph unicode="&#x131;" horiz-adv-x="262" d="M130 0H-13L97 517H240L130 0Z"  />
<glyph unicode="&#x141;" horiz-adv-x="574" d="M499 0H-4L38 200L-44 144L-23 255L62 313L146 714H304L246 440L450 580L424 465L222 326L181 132H527L499 0Z"  />
<glyph unicode="&#x142;" horiz-adv-x="261" d="M129 0H-13L46 278L-25 224L1 346L72 400L139 714H281L242 528L325 591L299 470L216 407L129 0Z"  />
<glyph unicode="&#x152;" horiz-adv-x="1111" d="M984 0H482L494 56L492 58Q426 -17 310 -17Q185 -17 111 67T37 289Q37 483 150 608Q260 731 426 731Q550 731 608 649L622 714H1129L1101 582H740L707 429H1037L1011 307H682L644 132H1012L984 0ZM443 144Q485 169 506 210Q524 244 537 301Q566 427 566 482Q566 536 528 567T424 599Q320 599 255 502Q194 413 194 289Q194 206 232 161T340 115Q397 115 443 144Z"  />
<glyph unicode="&#x153;" horiz-adv-x="936" d="M863 161Q837 79 767 33T604 -14Q474 -14 420 72Q360 -14 233 -14Q128 -14 71 48T13 220Q13 347 101 439T314 531Q439 531 488 447Q512 482 564 506T666 531Q773 531 834 471T895 305Q895 272 885 224H508Q505 200 505 192Q505 147 533 120T607 93Q696 93 721 161H863ZM252 93Q326 93 366 180Q398 248 398 331Q398 374 374 399T308 424Q262 424 229 392T175 305T155 201Q155 152 181 123T252 93ZM756 314Q758 328 758 336Q758 372 732 398T663 424Q563 424 522 314H756Z"  />
<glyph unicode="&#x160;" horiz-adv-x="648" d="M485 501V508Q485 559 452 584T357 609Q301 609 267 586T232 521Q232 486 267 463T374 425Q434 412 475 395T543 354T581 296T593 219Q593 109 510 46Q427 -17 301 -17Q5 -17 5 237H154V229Q154 105 308 105Q336 105 361 112T404 132T433 164T444 206Q444 222 438 235T416 261T373 284T303 306Q171 341 128 387Q83 435 83 509Q83 613 163 672Q243 731 366 731Q493 731 563 672T634 501H485ZM451 779H325L242 921H342L393 839L479 921H588L451 779Z"  />
<glyph unicode="&#x161;" horiz-adv-x="519" d="M484 366H352Q349 436 271 436Q185 436 185 385Q185 355 229 340L335 305Q457 265 457 162Q457 79 386 31Q319 -14 211 -14Q120 -14 62 21Q-9 64 -9 149V168H123V158Q123 130 136 115Q165 81 225 81Q315 81 315 143Q315 181 261 203Q215 217 170 230Q95 253 69 282T43 367Q43 443 110 488Q173 531 272 531Q484 531 484 371V366ZM354 589H228L145 731H245L296 649L382 731H491L354 589Z"  />
<glyph unicode="&#x178;" horiz-adv-x="648" d="M333 0H175L232 277L61 714H222L329 410L551 714H736L388 270L333 0ZM367 788H236L260 905H391L367 788ZM563 788H432L456 905H587L563 788Z"  />
<glyph unicode="&#x17D;" horiz-adv-x="648" d="M558 0H-43L-16 130L461 582H95L124 714H688L662 588L181 132H584L558 0ZM470 779H344L261 921H361L412 839L498 921H607L470 779Z"  />
<glyph unicode="&#x17E;" horiz-adv-x="500" d="M418 0H-51L-28 105L295 410H46L69 517H503L481 412L156 107H441L418 0ZM356 589H230L147 731H247L298 649L384 731H493L356 589Z"  />
<glyph unicode="&#x192;" horiz-adv-x="556" d="M253 23Q226 -75 184 -119Q133 -170 39 -170Q43 -170 -31 -166L-3 -62Q9 -63 32 -63Q85 -63 105 9L196 337H100L128 432H223L268 601Q285 666 343 700Q395 731 466 731Q496 731 516 728L550 723L522 620Q498 624 480 624Q441 624 421 598Q404 577 390 523L366 432H470L444 337H338L253 23Z"  />
<glyph unicode="&#x2C6;" horiz-adv-x="259" d="M355 589H255L204 670L118 589H9L146 731H272L355 589Z"  />
<glyph unicode="&#x2C7;" horiz-adv-x="259" d="M240 589H114L31 731H131L182 649L268 731H377L240 589Z"  />
<glyph unicode="&#x2C9;" horiz-adv-x="259" d="M340 619H35L49 694H354L340 619Z"  />
<glyph unicode="&#x2D8;" horiz-adv-x="259" d="M377 731Q333 589 188 589Q121 589 80 627T38 731H103Q111 664 197 664Q273 664 311 731H377Z"  />
<glyph unicode="&#x2D9;" horiz-adv-x="259" d="M246 598H115L139 715H270L246 598Z"  />
<glyph unicode="&#x2DA;" horiz-adv-x="259" d="M318 684Q318 633 283 599T195 564Q143 564 108 598T73 684Q73 735 109 769T196 804Q249 804 283 770T318 684ZM195 617Q224 617 241 635T259 684Q259 751 195 751Q167 751 150 733T132 684Q132 654 149 636T195 617Z"  />
<glyph unicode="&#x2DB;" horiz-adv-x="259" d="M245 -151Q199 -217 120 -217Q73 -217 45 -196T16 -139Q16 -64 143 0H217Q109 -70 109 -123Q109 -157 144 -157Q174 -157 201 -127L245 -151Z"  />
<glyph unicode="&#x2DC;" horiz-adv-x="259" d="M380 721Q358 607 268 607Q239 607 191 624T122 641Q87 641 76 599H13Q20 652 52 686T130 721Q158 721 205 704T273 686Q307 686 316 721H380Z"  />
<glyph unicode="&#x2DD;" horiz-adv-x="259" d="M94 589H-6L82 731H234L94 589ZM294 589H194L282 731H434L294 589Z"  />
<glyph unicode="&#x3C0;" horiz-adv-x="694" d="M562 6Q521 -14 465 -14Q364 -14 364 72Q364 82 374 130L432 410H273L186 0H44L131 410H27L50 517H707L684 410H574L516 139Q514 130 514 121Q514 94 546 94Q560 94 582 98L562 6Z"  />
<glyph unicode="&#x66D;" horiz-adv-x="786" d="M319 359L393 589L468 359H710L515 212L591 -16L393 123L195 -16L272 212L77 359H319Z"  />
<glyph unicode="&#xE01;" horiz-adv-x="640" d="M528 0H385L461 357Q464 371 464 381Q464 463 355 463Q250 463 211 397L210 391H301L287 325Q214 309 199 237L149 0H6L51 213Q69 299 142 319L143 324H59L73 390Q149 577 379 577Q473 577 539 532Q610 483 610 404Q610 385 606 366L528 0Z"  />
<glyph unicode="&#xE02;" horiz-adv-x="572" d="M497 175Q458 -10 234 -10Q147 -10 90 29Q29 71 29 142Q29 161 33 181L46 239Q56 285 95 328Q127 360 159 392T192 449Q192 463 173 463H94L116 569H228Q337 569 337 483Q337 436 303 392Q270 357 237 322Q198 280 190 243L178 185Q176 175 176 166Q176 104 247 104Q339 104 356 185L438 569H581L497 175Z"  />
<glyph unicode="&#xE03;" horiz-adv-x="569" d="M494 175Q455 -10 231 -10Q144 -10 87 29Q25 71 25 142Q25 161 30 181L42 233Q54 285 96 331Q103 339 168 397Q203 429 203 450Q203 463 190 463Q169 463 161 437H86L115 571H156Q180 571 194 558T208 523H212L236 571H264Q341 571 341 493Q341 442 305 396Q271 360 236 324Q195 281 187 243L175 185Q173 175 173 166Q173 104 244 104Q336 104 353 185L435 569H578L494 175Z"  />
<glyph unicode="&#xE04;" horiz-adv-x="656" d="M544 0H401L476 353Q479 367 479 379Q479 463 374 463Q315 463 269 427Q227 395 218 353L196 249H199Q237 309 315 309H383L357 188H286Q183 188 161 84L143 0H0L76 359Q97 456 175 515Q257 577 383 577Q489 577 556 527T624 397Q624 378 620 359L544 0Z"  />
<glyph unicode="&#xE05;" horiz-adv-x="677" d="M559 0H416L501 398Q504 412 504 420Q504 455 470 455Q427 455 409 391H316Q318 407 318 413Q318 455 283 455Q239 455 227 398L195 249H198Q236 309 314 309H382L356 188H285Q239 188 205 159T160 84L142 0H-1L84 398Q103 485 152 531T270 577Q363 577 381 505H384Q429 577 519 577Q581 577 615 544T650 451Q650 426 644 398L559 0Z"  />
<glyph unicode="&#xE06;" horiz-adv-x="650" d="M578 190Q556 85 483 33Q421 -10 333 -10Q224 -10 162 74L158 72L143 0H0L53 251Q63 299 98 340Q112 357 158 398Q190 427 194 444Q198 463 181 463Q161 463 153 437H78L106 571H147Q171 571 186 557T200 523H204L227 571H255Q334 571 334 498Q334 448 303 406Q297 398 242 341Q207 305 201 274L196 247Q192 225 192 213Q192 164 222 134T302 104Q417 104 441 216L516 569H659L578 190Z"  />
<glyph unicode="&#xE07;" horiz-adv-x="623" d="M296 119Q352 150 401 209Q468 289 468 371Q468 457 396 457Q356 457 331 451L355 562Q394 572 435 572Q517 572 566 520T615 391Q615 257 508 138Q421 41 317 0H168L67 569H210L283 119H296Z"  />
<glyph unicode="&#xE08;" horiz-adv-x="590" d="M169 0L109 178Q103 197 80 197H35L58 305H138Q209 305 226 244L261 119H271Q329 144 375 199Q432 269 432 351Q432 407 402 437T325 467Q223 467 186 375H43Q72 471 150 524T338 577Q450 577 514 516T578 356Q578 229 479 127Q396 42 276 0H169Z"  />
<glyph unicode="&#xE09;" horiz-adv-x="665" d="M560 0H416L433 78L431 81Q358 -10 230 -10Q163 -10 122 22Q77 58 77 123Q77 140 82 167L85 183Q88 197 74 197H50L73 305H168Q240 305 240 247Q240 237 236 219L229 188Q226 175 226 163Q226 104 295 104Q360 104 407 145T471 258L490 345Q494 363 494 376Q494 463 377 463Q269 463 229 375H85Q157 577 394 577Q506 577 571 526T637 388Q637 364 631 336L560 0Z"  />
<glyph unicode="&#xE0A;" horiz-adv-x="610" d="M611 502Q602 458 566 426T487 388L486 384Q565 355 565 261Q565 131 482 61T254 -10Q158 -10 96 33Q31 79 31 154Q31 174 36 196L46 239Q57 287 99 330Q134 362 169 393T205 447Q205 463 187 463H94L117 569H242Q343 569 343 479Q343 430 308 389Q273 356 239 323Q198 283 190 245L180 198Q178 187 178 176Q178 142 202 123T267 104Q420 104 420 269Q420 336 365 336H344L365 436H394Q453 436 465 493L481 569H625L611 502Z"  />
<glyph unicode="&#xE0B;" horiz-adv-x="607" d="M608 502Q599 458 563 426T484 388L483 384Q562 355 562 261Q562 131 479 61T251 -10Q155 -10 92 34T29 156Q29 175 33 196L41 233Q51 281 94 327Q96 330 166 395Q203 428 203 450Q203 463 189 463Q169 463 161 437H86L114 571H155Q179 571 194 557T208 523H212L235 571H263Q343 571 343 493Q343 442 307 397Q272 361 236 325Q195 283 187 245L177 198Q175 187 175 176Q175 142 199 123T264 104Q417 104 417 269Q417 336 362 336H341L362 436H391Q450 436 462 493L478 569H622L608 502Z"  />
<glyph unicode="&#xE0C;" horiz-adv-x="993" d="M920 186Q900 90 834 35Q778 -10 717 -10Q638 -10 594 12Q559 31 534 73L531 72L516 0H372L448 357Q451 371 451 381Q451 463 348 463Q250 463 211 397L210 391H301L287 325Q214 309 199 237L179 144Q178 139 178 134Q178 112 205 112H260L237 0H129Q82 0 55 25T28 93Q28 105 32 124L51 213Q69 299 142 319L143 324H59L73 390Q149 577 372 577Q463 577 528 532Q597 483 597 404Q597 385 593 366L567 241Q563 222 563 204Q563 160 588 132T662 104Q759 104 780 201L858 569H1001L920 186Z"  />
<glyph unicode="&#xE0D;" horiz-adv-x="993" d="M905 113Q881 -3 800 -67T597 -132Q498 -132 441 -92Q378 -47 375 41H513Q513 11 540 -6Q564 -21 600 -21Q732 -21 757 96L768 147Q700 58 583 58Q512 58 470 94Q423 134 423 208Q423 235 429 264L448 357Q451 372 451 381Q451 463 348 463Q250 463 211 397L210 391H301L287 325Q214 309 199 237L179 144Q178 139 178 134Q178 112 205 112H260L237 0H129Q82 0 55 25T28 93Q28 105 32 124L51 213Q69 299 142 319L143 324H59L73 390Q149 577 372 577Q463 577 528 532Q597 483 597 404Q597 385 593 366L575 279Q570 255 570 237Q570 178 644 178Q705 178 749 221T809 337L858 569H1001L905 113Z"  />
<glyph unicode="&#xE0E;" horiz-adv-x="650" d="M529 -43Q513 -119 457 -162T327 -206Q250 -206 208 -146Q182 -165 130 -199H-1L22 -91H110L252 1L285 -56Q303 -87 331 -87Q377 -87 388 -34L471 357Q474 371 474 381Q474 463 365 463Q260 463 221 397L220 391H321L307 325Q233 308 218 237L193 116Q169 0 53 0H-28L-4 111H31Q49 111 53 131L70 213Q88 299 162 319L163 324H69L83 390Q159 577 389 577Q483 577 549 532Q620 483 620 404Q620 385 616 366L529 -43Z"  />
<glyph unicode="&#xE0F;" horiz-adv-x="650" d="M528 -48Q512 -124 457 -167T328 -211Q262 -211 223 -159L156 -206L135 -166L78 -205H-18L5 -98H56L171 -25L197 -75L273 -25L296 -71Q306 -92 329 -92Q376 -92 387 -39L471 357Q474 371 474 381Q474 463 365 463Q260 463 221 397L220 391H321L307 325Q233 308 218 237L193 116Q169 0 53 0H-28L-4 111H31Q49 111 53 131L70 213Q88 299 162 319L163 324H69L83 390Q159 577 389 577Q483 577 549 532Q620 483 620 404Q620 385 616 366L528 -48Z"  />
<glyph unicode="&#xE10;" horiz-adv-x="606" d="M179 0L119 178Q113 197 90 197H45L68 305H148Q219 305 236 244L271 119H281Q339 144 385 199Q442 269 442 351Q442 407 412 437T335 467Q233 467 196 375H53Q82 471 160 524T348 577Q429 577 471 550L524 600H671L547 486Q588 442 588 356Q588 229 489 127Q406 42 286 0H179ZM457 -75Q445 -134 393 -172T270 -211Q190 -211 157 -154L79 -205H-40L-17 -97H92L209 -25L237 -80Q249 -103 277 -103Q318 -103 325 -69L332 -36H465L457 -75Z"  />
<glyph unicode="&#xE11;" horiz-adv-x="666" d="M554 0H411L486 352Q491 375 491 393Q491 459 421 459Q355 459 290 397Q222 334 205 251L152 0H9L60 241Q72 299 109 341Q112 345 169 398Q199 425 199 451Q199 462 187 462Q171 462 163 437H78L106 571H153Q203 571 203 524H208L228 571H251Q313 571 313 507Q313 499 312 494H317Q347 533 397 555Q444 577 493 577Q557 577 599 537T641 429Q641 408 636 385L554 0Z"  />
<glyph unicode="&#xE12;" horiz-adv-x="1055" d="M983 186Q962 85 893 34Q835 -10 757 -10Q691 -10 653 12Q623 30 597 73L593 72L578 0H435L520 400Q522 409 522 418Q522 455 486 455Q439 455 423 389H330Q331 396 331 409Q331 456 290 456Q242 456 205 393T168 240Q168 106 264 106Q311 106 364 120L340 9Q292 -10 227 -10Q139 -10 81 52Q20 116 20 221Q20 370 98 473T289 577Q381 577 399 511H403Q448 577 533 577Q592 577 629 540T667 441Q667 421 662 397L629 241Q625 222 625 205Q625 160 651 132T724 104Q822 104 843 201L921 569H1064L983 186Z"  />
<glyph unicode="&#xE13;" horiz-adv-x="993" d="M881 0H738L752 70L750 72Q679 -10 566 -10Q497 -10 453 25Q406 64 406 135Q406 157 412 186L448 357Q451 371 451 381Q451 463 348 463Q250 463 211 397L210 391H301L287 325Q214 309 199 237L179 144Q178 139 178 134Q178 112 205 112H260L237 0H129Q82 0 55 25T28 93Q28 105 32 124L51 213Q69 299 142 319L143 324H59L73 390Q149 577 372 577Q463 577 528 532Q597 483 597 404Q597 385 593 366L558 200Q554 181 554 167Q554 104 629 104Q685 104 729 142Q777 184 793 260L858 569H1001L881 0Z"  />
<glyph unicode="&#xE14;" horiz-adv-x="671" d="M558 0H414L488 346Q491 360 491 376Q491 463 381 463Q285 463 225 391Q167 323 167 223Q167 168 194 136T262 104Q319 104 358 118L335 9Q291 -10 226 -10Q135 -10 79 47Q19 108 19 215Q19 370 116 471Q218 577 389 577Q496 577 566 525T637 391Q637 370 633 351L558 0Z"  />
<glyph unicode="&#xE15;" horiz-adv-x="690" d="M578 0H435L520 400Q522 409 522 418Q522 455 486 455Q439 455 423 389H330Q331 396 331 409Q331 456 290 456Q242 456 205 393T168 240Q168 106 264 106Q311 106 364 120L340 9Q292 -10 227 -10Q139 -10 81 52Q20 116 20 221Q20 370 98 473T289 577Q381 577 399 511H403Q448 577 533 577Q592 577 629 540T667 441Q667 421 662 397L578 0Z"  />
<glyph unicode="&#xE16;" horiz-adv-x="640" d="M528 0H385L461 357Q464 371 464 381Q464 463 355 463Q250 463 211 397L210 391H301L287 325Q214 309 199 237L179 144Q178 139 178 134Q178 112 205 112H260L237 0H129Q82 0 55 25T28 93Q28 105 32 124L51 213Q69 299 142 319L143 324H59L73 390Q149 577 379 577Q473 577 539 532Q610 483 610 404Q610 385 606 366L528 0Z"  />
<glyph unicode="&#xE17;" horiz-adv-x="656" d="M544 0H401L476 352Q480 370 480 384Q481 463 390 463Q328 463 279 421Q225 377 209 302L145 0H2L123 569H266L247 479H251Q341 577 466 577Q531 577 578 541Q631 500 631 429Q631 408 626 385L544 0Z"  />
<glyph unicode="&#xE18;" horiz-adv-x="628" d="M556 171Q519 -10 278 -10Q171 -10 104 28Q34 69 34 140Q34 155 38 173L53 242H196L181 171Q180 166 180 158Q180 104 282 104Q398 104 411 163L415 181Q417 190 417 195Q417 232 368 243L180 285Q81 307 81 399Q81 470 132 517Q189 569 290 569H621L595 446H262Q229 446 229 421Q229 402 259 395L469 347Q566 325 566 234Q566 220 563 205L556 171Z"  />
<glyph unicode="&#xE19;" horiz-adv-x="652" d="M538 0H395L412 76L409 78Q338 -10 205 -10Q130 -10 83 31T36 145Q36 167 42 195L121 569H264L188 211Q184 192 184 177Q184 104 270 104Q334 104 385 148T450 257L516 569H659L538 0Z"  />
<glyph unicode="&#xE1A;" horiz-adv-x="655" d="M589 215Q541 -10 280 -10Q179 -10 115 32Q41 79 41 167Q41 191 46 215L121 569H265L188 209Q185 195 185 187Q185 149 214 127T294 104Q423 104 445 209L522 569H664L589 215Z"  />
<glyph unicode="&#xE1B;" horiz-adv-x="655" d="M589 215Q541 -10 280 -10Q179 -10 115 32Q41 79 41 167Q41 191 46 215L121 569H265L188 209Q185 195 185 187Q185 149 214 127T294 104Q423 104 445 209L563 763H705L589 215Z"  />
<glyph unicode="&#xE1C;" horiz-adv-x="803" d="M728 174Q709 86 653 38T510 -10Q394 -10 368 75H365Q304 -10 194 -10Q120 -10 77 30T33 135Q33 155 37 174L120 569H329L307 463H241L178 167Q176 158 176 152Q176 104 228 104Q296 104 310 170L394 569H537L453 170Q451 161 451 153Q451 104 509 104Q534 104 555 122T583 167L668 569H811L728 174Z"  />
<glyph unicode="&#xE1D;" horiz-adv-x="794" d="M728 174Q709 86 653 38T510 -10Q394 -10 368 75H365Q304 -10 194 -10Q120 -10 77 30T33 135Q33 155 37 174L120 569H329L307 463H241L178 167Q176 158 176 152Q176 104 228 104Q296 104 310 170L394 569H537L453 170Q451 161 451 153Q451 104 509 104Q534 104 555 122T583 167L710 763H853L728 174Z"  />
<glyph unicode="&#xE1E;" horiz-adv-x="780" d="M573 0H425L415 386L413 384L239 0H91L76 569H215L204 181L379 569H515L523 181L679 569H829L573 0Z"  />
<glyph unicode="&#xE1F;" horiz-adv-x="768" d="M573 0H425L415 386L413 384L239 0H91L76 569H215L204 181L379 569H515L523 181L731 763H871L573 0Z"  />
<glyph unicode="&#xE20;" horiz-adv-x="650" d="M538 0H395L471 357Q474 371 474 381Q474 463 365 463Q260 463 221 397L220 391H321L307 325Q233 308 218 237L193 116Q169 0 53 0H-28L-4 111H31Q49 111 53 131L70 213Q88 299 162 319L163 324H69L83 390Q159 577 389 577Q483 577 549 532Q620 483 620 404Q620 385 616 366L538 0Z"  />
<glyph unicode="&#xE21;" horiz-adv-x="652" d="M580 190Q558 85 485 33Q423 -10 335 -10Q226 -10 164 74L160 72L145 0H2L123 569H266L198 247Q194 228 194 213Q194 164 224 134T304 104Q419 104 443 216L518 569H661L580 190Z"  />
<glyph unicode="&#xE22;" horiz-adv-x="629" d="M517 0H171Q103 0 57 38T10 133Q10 200 56 246Q97 288 159 300L160 308Q79 339 79 410Q79 479 134 524T282 569H386L363 463H285Q254 463 234 445T214 400Q214 356 258 356H361L337 244H250Q210 244 185 223T159 167Q159 143 177 128T221 113H398L495 569H638L517 0Z"  />
<glyph unicode="&#xE23;" horiz-adv-x="563" d="M392 318Q511 279 511 180Q511 81 431 32Q361 -11 244 -11Q129 -11 66 43Q12 89 12 160Q12 174 13 181H149Q149 179 149 176Q148 172 148 170Q148 98 250 98Q302 98 334 115T366 159Q366 190 306 209L183 247Q71 282 71 381Q71 476 152 530Q223 577 324 577Q445 577 503 519Q548 475 548 409Q548 396 547 390H412V396Q412 463 318 463Q212 463 212 405Q212 377 272 357L392 318Z"  />
<glyph unicode="&#xE24;" horiz-adv-x="640" d="M485 -200H342L461 357Q464 371 464 381Q464 463 355 463Q250 463 211 397L210 391H301L287 325Q214 309 199 237L179 144Q178 139 178 134Q178 112 205 112H260L237 0H129Q82 0 55 25T28 93Q28 105 32 124L51 213Q69 299 142 319L143 324H59L73 390Q149 577 379 577Q473 577 539 532Q610 483 610 404Q610 385 606 366L485 -200Z"  />
<glyph unicode="&#xE25;" horiz-adv-x="622" d="M509 0H367L419 247Q378 232 286 221Q206 212 175 193Q148 176 148 147Q148 104 222 104Q251 104 315 121L292 9Q238 -10 173 -10Q95 -10 51 26Q3 64 3 140Q3 202 46 249Q106 313 236 330L401 351Q426 354 440 370T455 406Q455 463 370 463Q254 463 224 371H81Q102 466 185 522Q265 577 377 577Q476 577 539 535Q599 494 599 432Q599 421 596 407L509 0Z"  />
<glyph unicode="&#xE26;" horiz-adv-x="650" d="M496 -200H353L471 357Q474 371 474 381Q474 463 365 463Q260 463 221 397L220 391H321L307 325Q233 308 218 237L193 116Q169 0 53 0H-28L-4 111H31Q49 111 53 131L70 213Q88 299 162 319L163 324H69L83 390Q159 577 389 577Q483 577 549 532Q620 483 620 404Q620 385 616 366L496 -200Z"  />
<glyph unicode="&#xE27;" horiz-adv-x="601" d="M156 175Q157 142 183 122T252 102Q336 102 387 166T438 339Q438 398 406 432Q376 463 330 463Q227 463 191 372H48Q81 466 160 521T349 577Q455 577 518 515T582 354Q582 195 498 95Q407 -12 246 -12Q135 -12 71 36T6 175H156Z"  />
<glyph unicode="&#xE28;" horiz-adv-x="655" d="M544 0H401L476 353Q479 367 479 379Q479 463 374 463Q315 463 269 427Q227 395 218 353L196 249H199Q237 309 315 309H383L357 188H286Q183 188 161 84L143 0H0L76 359Q97 456 175 515Q257 577 383 577Q470 577 525 541L585 600H725L596 475Q624 446 624 397Q624 378 620 359L544 0Z"  />
<glyph unicode="&#xE29;" horiz-adv-x="664" d="M659 262H605L595 215Q547 -10 283 -10Q182 -10 116 32Q41 79 41 167Q41 191 46 215L121 569H265L188 209Q185 195 185 187Q185 149 216 127T297 104Q429 104 451 209L462 262H316L340 376H487L528 569H670L629 376H683L659 262Z"  />
<glyph unicode="&#xE2A;" horiz-adv-x="622" d="M509 0H367L419 247Q378 232 286 221Q206 212 175 193Q148 176 148 147Q148 104 222 104Q251 104 315 121L292 9Q238 -10 173 -10Q95 -10 51 26Q3 64 3 140Q3 202 46 249Q106 313 236 330L401 351Q426 354 440 370T455 406Q455 463 370 463Q254 463 224 371H81Q102 466 185 522Q265 577 377 577Q455 577 499 552L548 600H688L578 492Q599 467 599 432Q599 421 596 407L509 0Z"  />
<glyph unicode="&#xE2B;" horiz-adv-x="641" d="M529 0H386L428 199Q431 213 431 227Q431 287 353 287H206L145 0H2L123 569H266L230 402H361Q421 402 451 427T494 508L507 569H650L637 509Q624 447 588 406Q549 361 492 352L491 350Q575 331 575 238Q575 221 571 202L529 0Z"  />
<glyph unicode="&#xE2C;" horiz-adv-x="809" d="M728 174Q709 86 653 38T510 -10Q394 -10 368 75H365Q304 -10 194 -10Q120 -10 77 30T33 135Q33 155 37 174L120 569H263L178 167Q176 158 176 152Q176 104 228 104Q296 104 310 170L394 569H537L453 170Q451 161 451 153Q451 104 509 104Q534 104 555 122T583 167L629 382Q631 391 631 396Q631 425 593 425H569L590 524H614Q659 524 670 576L688 661H831L817 593Q798 501 713 482Q771 465 771 393Q771 376 768 362L728 174Z"  />
<glyph unicode="&#xE2D;" horiz-adv-x="643" d="M278 209H162Q160 195 160 190Q160 150 193 128T280 105Q359 105 416 163Q477 227 477 330Q477 391 441 424T351 457Q232 457 198 372H55Q85 464 171 520T378 577Q483 577 553 514T624 349Q624 188 527 89T266 -10Q159 -10 89 46T19 194Q19 266 51 316H301L278 209Z"  />
<glyph unicode="&#xE2E;" horiz-adv-x="643" d="M703 600L579 479Q624 423 624 349Q624 188 527 89T266 -10Q159 -10 89 46T19 194Q19 266 51 316H301L278 209H162Q160 195 160 190Q160 150 193 128T280 105Q359 105 416 163Q477 227 477 330Q477 391 441 424T351 457Q232 457 198 372H55Q85 464 171 520T378 577Q460 577 506 544L563 600H703Z"  />
<glyph unicode="&#xE2F;" horiz-adv-x="675" d="M509 0H365L436 348Q369 253 248 253Q184 253 141 291Q90 335 90 416Q90 447 97 480L116 569H260L244 496Q238 469 238 449Q238 375 312 375Q445 375 474 516L485 569H630L509 0Z"  />
<glyph unicode="&#xE30;" horiz-adv-x="363" d="M334 371H53L84 519H213L204 477H378L377 470L334 371ZM272 81H-9L22 229H151L143 187H317L315 180L272 81Z"  />
<glyph unicode="&#xE31;" horiz-adv-x="0" d="M171 641H-135Q-242 641 -242 720Q-242 735 -239 749L-229 795H-102L-108 769Q-109 765 -109 759Q-109 743 -88 743H230L229 736L171 641Z"  />
<glyph unicode="&#xE32;" horiz-adv-x="553" d="M440 0H298L378 377Q380 386 380 394Q380 427 354 445T287 463Q189 463 167 392H32Q54 473 118 521Q192 577 310 577Q400 577 462 531T525 416Q525 400 522 386L440 0Z"  />
<glyph unicode="&#xE33;" horiz-adv-x="553" d="M-44 691Q-29 705 -29 723Q-29 754 -63 754Q-84 754 -97 740T-111 709Q-111 677 -80 677Q-59 677 -44 691ZM59 734Q59 677 16 642T-93 607Q-141 607 -169 631T-198 696Q-198 751 -155 787T-48 823Q1 823 30 799T59 734ZM440 0H298L378 377Q380 386 380 394Q380 427 354 445T287 463Q189 463 167 392H32Q54 473 118 521Q192 577 310 577Q400 577 462 531T525 416Q525 400 522 386L440 0Z"  />
<glyph unicode="&#xE34;" horiz-adv-x="0" d="M24 641H-484L-482 651L-414 745H46L24 641Z"  />
<glyph unicode="&#xE35;" horiz-adv-x="0" d="M24 641H-484L-482 651L-414 745H-72L-59 805H59L24 641Z"  />
<glyph unicode="&#xE36;" horiz-adv-x="0" d="M-143 745Q-130 775 -100 795T-29 816Q8 816 31 795T54 743Q54 698 22 670T-65 641H-484L-482 651L-414 745H-143ZM-56 703Q-25 703 -25 731Q-25 748 -46 748Q-76 748 -76 722Q-76 703 -56 703Z"  />
<glyph unicode="&#xE37;" horiz-adv-x="0" d="M24 641H-484L-482 651L-414 745H-191L-178 805H-80L-95 737H-54L-39 805H59L24 641Z"  />
<glyph unicode="&#xE38;" horiz-adv-x="0" d="M-162 -235L-276 -271H-287L-263 -156H-310L-291 -65H-126L-162 -235Z"  />
<glyph unicode="&#xE39;" horiz-adv-x="0" d="M-145 -157Q-171 -277 -329 -277Q-389 -277 -423 -254T-457 -191Q-457 -181 -454 -168L-451 -155H-499L-480 -65H-313L-333 -158Q-334 -161 -334 -167Q-334 -189 -309 -189Q-281 -189 -274 -158L-254 -65H-125L-145 -157Z"  />
<glyph unicode="&#xE3A;" horiz-adv-x="0" d="M-133 -127Q-133 -162 -161 -189T-225 -216Q-254 -216 -271 -198T-289 -154Q-289 -118 -263 -92T-197 -65Q-169 -65 -151 -83T-133 -127Z"  />
<glyph unicode="&#xE3F;" horiz-adv-x="590" d="M220 125L259 310H185L146 125H220ZM299 125Q433 125 433 239Q433 310 347 310H318L279 125H299ZM284 429L317 583H243L210 429H284ZM360 430Q402 430 432 456T463 530Q463 583 393 583H376L343 430H360ZM230 -102H171L193 0H-19L131 708H343L365 808H424L402 708H429Q516 708 565 664Q610 622 610 554Q610 507 584 462Q554 410 500 384Q536 368 556 331T576 249Q576 140 500 70T293 0H252L230 -102Z"  />
<glyph unicode="&#xE40;" horiz-adv-x="296" d="M200 0H114Q70 0 46 23T21 88Q21 101 25 120L120 569H264L172 136Q171 133 171 128Q171 112 188 112H224L200 0Z"  />
<glyph unicode="&#xE41;" horiz-adv-x="562" d="M200 0H114Q70 0 46 23T21 88Q21 101 25 120L120 569H264L172 136Q171 133 171 128Q171 112 188 112H224L200 0ZM466 0H380Q336 0 312 23T287 88Q287 101 291 120L386 569H530L438 136Q437 133 437 128Q437 112 454 112H490L466 0Z"  />
<glyph unicode="&#xE42;" horiz-adv-x="319" d="M220 0H134Q90 0 66 23T41 88Q41 101 45 120L155 638Q159 657 159 677Q159 728 131 766T49 818L54 841Q62 880 97 905T186 931H541L519 827H212L211 824Q251 802 275 760T300 666Q300 645 295 621L192 136Q191 133 191 128Q191 112 208 112H244L220 0Z"  />
<glyph unicode="&#xE43;" horiz-adv-x="331" d="M233 0H147Q103 0 79 23T54 88Q54 101 58 120L153 566Q166 627 211 672Q219 681 286 734Q323 763 323 789Q323 833 256 833Q177 833 149 755H14Q33 838 105 888T274 938Q358 938 410 902Q466 863 466 795Q466 750 426 709Q387 676 349 644Q304 605 296 568L205 136Q204 133 204 128Q204 112 221 112H257L233 0Z"  />
<glyph unicode="&#xE44;" horiz-adv-x="338" d="M240 0H154Q110 0 86 23T61 88Q61 101 65 120L168 604Q204 771 348 822L349 827H40L42 837L105 931H525L501 818Q429 801 381 751T316 628L211 136Q210 133 210 128Q210 112 228 112H264L240 0Z"  />
<glyph unicode="&#xE45;" horiz-adv-x="553" d="M398 -200H256L378 377Q380 386 380 394Q380 427 354 445T287 463Q189 463 167 392H32Q54 473 118 521Q192 577 310 577Q400 577 462 531T525 416Q525 400 522 386L398 -200Z"  />
<glyph unicode="&#xE46;" horiz-adv-x="673" d="M476 -205H332L460 396Q463 410 463 419Q463 457 435 457Q390 457 379 399H288Q290 407 290 420Q290 457 258 457Q239 457 221 438Q200 415 200 382Q200 331 241 331Q267 331 300 339L278 234Q243 220 203 220Q131 220 94 263Q62 299 62 355Q62 446 118 511T254 577Q338 577 353 508H358Q412 577 489 577Q549 577 579 541T609 445Q609 417 604 394L476 -205Z"  />
<glyph unicode="&#xE47;" horiz-adv-x="0" d="M25 641H-66Q-124 641 -130 689H-135Q-166 638 -235 638Q-280 638 -308 664T-336 728Q-336 792 -295 832Q-250 876 -169 876H75L57 794H-174Q-196 794 -210 783T-224 756Q-224 727 -194 727Q-158 727 -152 755H-89Q-90 753 -90 748Q-90 729 -69 729H-50L-45 755H49L25 641Z"  />
<glyph unicode="&#xE48;" horiz-adv-x="0" d="M24 641H-102L-68 802H58L24 641Z"  />
<glyph unicode="&#xE49;" horiz-adv-x="0" d="M85 641H-214L-204 691Q-203 695 -203 700Q-203 710 -216 710H-267L-246 808H-140Q-90 808 -90 770Q-90 765 -92 755L-94 745H153L150 729L85 641Z"  />
<glyph unicode="&#xE4A;" horiz-adv-x="0" d="M140 641H-69L-62 675Q-61 677 -61 681Q-61 695 -78 695Q-101 695 -110 656H-179Q-177 661 -177 665T-177 674Q-177 694 -192 694Q-211 694 -216 673L-223 641H-352L-343 683Q-332 734 -298 762T-215 790Q-180 790 -161 775T-132 737H-129Q-111 763 -86 776T-31 790Q6 790 28 776T54 732H177L175 720L140 641Z"  />
<glyph unicode="&#xE4B;" horiz-adv-x="0" d="M113 692H30L19 641H-113L-102 692H-185L-165 786H-82L-71 838H61L50 786H133L113 692Z"  />
<glyph unicode="&#xE4C;" horiz-adv-x="0" d="M99 695H-19Q-36 695 -44 688T-55 668L-61 641H-196L-190 675Q-186 700 -174 722T-142 760T-92 786T-22 796H86L102 706L99 695Z"  />
<glyph unicode="&#xE4D;" horiz-adv-x="0" d="M-5 691Q10 705 10 723Q10 754 -24 754Q-45 754 -58 740T-72 709Q-72 677 -41 677Q-20 677 -5 691ZM98 734Q98 677 55 642T-54 607Q-102 607 -130 631T-159 696Q-159 751 -116 787T-9 823Q40 823 69 799T98 734Z"  />
<glyph unicode="&#xE4E;" horiz-adv-x="0" d="M-61 641Q-99 632 -131 632Q-241 632 -241 713Q-241 758 -209 786T-127 814H-108Q-119 827 -119 846Q-119 871 -98 888T-40 905H80L98 849L96 842H-2Q-25 842 -25 818Q-25 798 -2 794L-10 754H-97Q-138 754 -138 720Q-138 690 -95 690Q-76 690 -49 698L-61 641Z"  />
<glyph unicode="&#xE4F;" horiz-adv-x="633" d="M439 265Q439 205 394 164T288 123Q244 123 217 152T190 223Q190 282 234 323T341 365Q385 365 412 338T439 265ZM371 186Q403 214 403 258Q403 291 384 310T333 330Q290 330 258 301T226 231Q226 201 245 180T296 158Q339 158 371 186ZM435 123Q502 183 502 274Q502 339 465 380Q425 424 355 424Q263 424 197 361T130 212Q130 149 172 106T281 63Q368 63 435 123ZM551 282Q551 164 474 90T279 15Q189 15 134 70Q81 122 81 204Q81 310 164 390T357 471Q449 471 502 416Q551 364 551 282Z"  />
<glyph unicode="&#xE50;" horiz-adv-x="652" d="M291 101Q378 101 427 159Q470 209 470 282Q470 332 443 362Q413 396 354 396Q268 396 218 339Q174 288 174 215Q174 165 201 135Q232 101 291 101ZM615 295Q615 169 525 81Q429 -13 277 -13Q162 -13 94 49Q30 108 30 199Q30 325 119 414Q215 510 368 510Q482 510 551 446Q615 387 615 295Z"  />
<glyph unicode="&#xE51;" horiz-adv-x="660" d="M246 17Q357 26 419 104Q475 174 475 273Q475 334 442 366T355 398Q287 398 236 356Q176 306 176 220Q176 147 216 147Q271 147 271 219Q271 249 260 270H381Q391 249 391 214Q391 138 341 89T208 39Q131 39 82 85T33 212Q33 341 129 425T368 510Q477 510 546 452Q619 391 619 288Q619 135 511 30Q402 -78 223 -91L246 17Z"  />
<glyph unicode="&#xE52;" horiz-adv-x="768" d="M685 167Q666 77 611 37Q561 0 470 0H196Q135 0 98 32T61 119Q61 136 65 155L142 514Q143 517 143 521Q143 536 127 536H110L132 641H193Q289 641 289 559Q289 544 286 530L208 165Q206 156 206 146Q206 111 247 111H481Q531 111 542 165L585 367Q586 372 586 377Q586 393 568 393Q538 393 525 345H463Q464 350 464 360Q464 393 442 393Q417 393 412 368L405 332Q403 322 403 318Q403 291 439 291H459L439 197H391Q332 197 301 224T269 297Q269 312 272 327L287 400Q297 448 335 478T422 509Q456 509 479 492T508 446H512Q529 473 561 491T628 509Q675 509 705 481T735 412Q735 401 732 387L685 167Z"  />
<glyph unicode="&#xE53;" horiz-adv-x="723" d="M604 0H463L537 346Q538 351 538 358Q538 392 501 392Q453 392 442 340L402 152H273L313 340Q315 349 315 355Q315 392 277 392Q232 392 222 346L183 164Q181 155 181 143Q181 100 225 100H266L244 0H176Q117 0 78 35T38 128Q38 148 42 167L83 361Q97 426 147 468T269 510Q367 510 395 435H399Q424 469 465 489T546 510Q606 510 645 476T684 390Q684 375 681 361L604 0Z"  />
<glyph unicode="&#xE54;" horiz-adv-x="642" d="M526 0H210Q132 0 86 38T40 143Q40 161 45 185L75 327Q92 408 158 456T313 505H442Q494 505 502 544L523 644H663L643 550Q610 394 447 394H310Q233 394 215 313L188 190Q185 176 185 164Q185 111 245 111H354Q317 140 317 185Q317 246 355 284T460 322H546L524 221H495Q466 221 461 194L456 169Q454 159 454 152Q454 111 511 111H550L526 0Z"  />
<glyph unicode="&#xE55;" horiz-adv-x="652" d="M536 0H210Q132 0 86 38T40 143Q40 161 45 185L75 327Q107 477 275 502Q283 540 316 568T393 596Q431 596 452 574Q470 555 470 526Q470 516 468 507Q504 507 512 544L533 644H673L653 550Q638 480 587 437T457 394H310Q233 394 215 313L188 190Q185 177 185 168Q184 111 245 111H363Q327 139 327 191Q327 248 365 285T470 322H556L534 221H505Q476 221 471 194L466 169Q464 159 464 152Q464 111 521 111H560L536 0ZM364 466Q384 466 397 479T411 509Q411 539 380 539Q359 539 347 526T334 495Q334 466 364 466Z"  />
<glyph unicode="&#xE56;" horiz-adv-x="671" d="M596 205Q573 97 502 43Q438 -5 344 -5H260Q178 -5 124 33Q66 75 66 146Q66 168 70 187L80 235H221L213 196Q210 181 210 171Q210 138 230 120T282 101H338Q433 101 455 207L473 293Q475 303 475 314Q475 352 446 374T364 397Q260 397 216 302H94L140 518Q141 521 141 525Q141 540 125 540H109L131 645H186Q283 645 283 564Q283 546 279 528L262 450Q328 511 430 511Q516 511 568 465T621 344Q621 321 616 298L596 205Z"  />
<glyph unicode="&#xE57;" horiz-adv-x="933" d="M826 148Q811 78 752 39T614 0H402L425 106Q470 106 481 158L522 350Q523 355 523 361Q523 395 489 395Q447 395 436 344L394 147H265L307 344Q309 353 309 358Q309 395 274 395Q233 395 223 350L183 164Q181 155 181 144Q181 100 226 100H266L244 0H185Q120 0 79 36T38 131Q38 148 42 167L85 369Q98 432 148 471T269 510Q368 510 387 435H391Q440 510 542 510Q599 510 635 479T671 398Q671 383 668 369L631 195Q617 130 567 104H612Q674 104 690 177L765 529Q776 581 813 612Q854 645 915 645H971L948 540H928Q909 540 904 518L826 148Z"  />
<glyph unicode="&#xE58;" horiz-adv-x="670" d="M299 70Q248 -3 165 -3Q106 -3 69 31T32 115Q32 126 35 140L72 311Q92 402 163 455Q230 505 320 505H458Q515 505 526 559L544 645H687L668 554Q653 481 599 438T468 395H325Q283 395 252 370T212 301L182 159Q181 152 181 146Q181 118 208 118Q253 118 269 191H360Q357 178 357 167Q357 118 403 118Q432 118 453 139T475 198Q475 240 439 240H390L410 331H472Q532 331 568 297T605 205Q605 117 549 57T409 -3Q370 -3 340 17T303 70H299Z"  />
<glyph unicode="&#xE59;" horiz-adv-x="683" d="M497 1H358L335 332Q330 406 283 406Q233 406 220 345L182 170Q179 156 179 146Q179 104 222 104H269L247 0H165Q111 0 75 32Q35 67 35 123Q35 140 39 159L77 340Q94 423 150 468T294 513Q381 513 408 452Q429 488 467 488Q507 488 510 457Q530 459 535 481L571 648H713L672 456Q662 409 623 377T534 344H514Q515 350 515 355Q515 378 495 378Q474 378 468 363L497 1Z"  />
<glyph unicode="&#xE5A;" horiz-adv-x="873" d="M707 0H564L684 567H827L707 0ZM509 0H365L436 348Q369 253 248 253Q184 253 141 291Q90 335 90 416Q90 447 97 480L116 569H260L244 496Q238 469 238 449Q238 375 312 375Q445 375 474 516L485 569H630L509 0Z"  />
<glyph unicode="&#xE5B;" horiz-adv-x="1316" d="M1232 149Q1175 133 1119 133Q1025 133 1002 224L934 76H867L852 263L756 59H682L671 233Q614 123 517 60T315 -4Q197 -4 130 58T63 223Q63 348 140 429Q223 517 366 517Q456 517 509 469T562 341Q562 318 558 298H431Q434 313 434 327Q434 366 410 390T342 415Q280 415 239 365T198 230Q198 165 233 128T333 91Q436 91 522 174Q619 266 662 435H738L757 225L842 410H915L929 234L1001 386H1070Q1067 358 1067 334Q1067 206 1143 206Q1164 206 1222 217L1232 149Z"  />
<glyph unicode="&#x2002;" horiz-adv-x="500" />
<glyph unicode="&#x2003;" horiz-adv-x="1000" />
<glyph unicode="&#x2009;" horiz-adv-x="100" />
<glyph unicode="&#x200A;" horiz-adv-x="20" />
<glyph unicode="&#x200B;" horiz-adv-x="0" />
<glyph unicode="&#x200C;" horiz-adv-x="0" d="M-90 1479L0 1389L88 1477L115 1450L27 1362L115 1274L88 1247L0 1333L-90 1246L-117 1274L-29 1362L-117 1450L-90 1479Z"  />
<glyph unicode="&#x200D;" horiz-adv-x="0" d="M77 749V795H-76V749H-99V818H100V749H77Z"  />
<glyph unicode="&#x200E;" horiz-adv-x="0" d="M10 858L26 875L95 806L26 737L10 754L51 795H-75V818H51L10 858Z"  />
<glyph unicode="&#x200F;" horiz-adv-x="0" d="M-10 754L-26 738L-95 806L-26 875L-10 859L-51 818H76V795H-50L-10 754Z"  />
<glyph unicode="&#x2010;" horiz-adv-x="407" d="M328 212H27L54 334H354L328 212Z"  />
<glyph unicode="&#x2013;" horiz-adv-x="500" d="M471 212H-29L-3 334H497L471 212Z"  />
<glyph unicode="&#x2014;" horiz-adv-x="1000" d="M840 212H101L127 334H867L840 212Z"  />
<glyph unicode="&#x2018;" horiz-adv-x="278" d="M236 393H78L112 556Q144 707 303 714L288 644Q247 635 227 614T199 547H268L236 393Z"  />
<glyph unicode="&#x2019;" horiz-adv-x="278" d="M269 562Q235 397 75 393L90 463Q132 471 151 492T179 560H110L142 714H300L269 562Z"  />
<glyph unicode="&#x201A;" horiz-adv-x="278" d="M145 0Q111 -163 -48 -167L-33 -97Q6 -90 26 -69T56 0H-13L19 154H177L145 0Z"  />
<glyph unicode="&#x201C;" horiz-adv-x="481" d="M224 393H66L101 557Q132 705 291 714L276 644Q234 636 215 615T187 547H256L224 393ZM435 393H277L311 554Q343 706 502 714L487 644Q445 636 426 615T398 547H467L435 393Z"  />
<glyph unicode="&#x201D;" horiz-adv-x="481" d="M256 561Q222 397 63 393L78 463Q120 471 139 492T167 560H98L130 714H288L256 561ZM467 561Q433 397 274 393L289 463Q329 470 348 491T378 560H309L341 714H499L467 561Z"  />
<glyph unicode="&#x201E;" horiz-adv-x="481" d="M147 0Q113 -163 -46 -167L-31 -97Q8 -90 28 -69T58 0H-11L21 154H179L147 0ZM358 1Q340 -85 294 -125T165 -167L180 -97Q220 -90 240 -69T269 0H200L232 154H390L358 1Z"  />
<glyph unicode="&#x2020;" horiz-adv-x="593" d="M255 -166H124L242 400H54L79 517H267L308 714H440L399 517H587L562 400H374L255 -166Z"  />
<glyph unicode="&#x2021;" horiz-adv-x="593" d="M485 27H297L256 -166H124L165 26H-23L1 144H189L243 400H57L81 517H268L309 714H441L400 517H588L563 400H375L321 144H509L485 27Z"  />
<glyph unicode="&#x2022;" horiz-adv-x="500" d="M376 231Q324 178 250 178Q175 178 124 230T72 357Q72 431 124 483T250 535Q323 535 376 483T429 357Q429 285 376 231Z"  />
<glyph unicode="&#x2026;" horiz-adv-x="1000" d="M174 0H16L49 154H207L174 0ZM507 0H349L382 154H540L507 0ZM840 0H682L715 154H873L840 0Z"  />
<glyph unicode="&#x202A;" horiz-adv-x="0" d="M-28 795H-85V818H-28V795ZM1 818H51L10 858L26 875L95 806L26 737L10 754L51 795H1V818Z"  />
<glyph unicode="&#x202B;" horiz-adv-x="0" d="M28 818H85V795H28V818ZM-1 795H-50L-10 754L-26 738L-95 806L-26 875L-10 859L-51 818H-1V795Z"  />
<glyph unicode="&#x202C;" horiz-adv-x="0" d="M-52 797L-69 813L0 882L69 813L52 797L11 838V736H-12V837L-52 797Z"  />
<glyph unicode="&#x202D;" horiz-adv-x="0" d="M-37 858L-21 875L48 806L-21 737L-37 754L4 795H-103V818H3L-37 858ZM28 858L44 875L113 806L44 737L28 754L81 806L28 858Z"  />
<glyph unicode="&#x202E;" horiz-adv-x="0" d="M38 754L21 737L-47 806L21 875L38 858L-3 817H104V794H-3L38 754ZM-28 754L-44 737L-113 806L-44 875L-28 858L-80 806L-28 754Z"  />
<glyph unicode="&#x2030;" horiz-adv-x="1130" d="M162 -22H76L614 722H699L162 -22ZM326 434Q276 370 195 370Q135 370 103 405T70 504Q70 587 114 647Q162 714 242 714Q305 714 338 681T372 588Q372 495 326 434ZM202 435Q242 435 265 498Q282 546 282 595Q282 649 240 649Q202 649 178 590Q160 544 160 498Q160 435 202 435ZM658 48Q610 -14 529 -14Q469 -14 437 21T404 120Q404 204 447 263Q495 330 576 330Q638 330 672 297T706 205Q706 110 658 48ZM1009 48Q961 -14 880 -14Q820 -14 788 21T755 120Q755 208 803 269T927 330Q989 330 1023 298T1057 205Q1057 110 1009 48ZM536 51Q573 51 594 105T616 210Q616 265 574 265Q535 265 512 206Q494 160 494 113Q494 51 536 51ZM887 51Q927 51 950 114Q967 161 967 210Q967 265 924 265Q890 265 868 215T845 113Q845 51 887 51Z"  />
<glyph unicode="&#x2039;" horiz-adv-x="259" d="M146 83L144 81L17 218L45 348L226 463L200 340L90 272L167 187L146 83Z"  />
<glyph unicode="&#x203A;" horiz-adv-x="259" d="M176 195L-5 80L21 203L131 271L54 356L76 463L204 325L176 195Z"  />
<glyph unicode="&#x2044;" horiz-adv-x="167" d="M-79 -22H-166L248 722H333L-79 -22Z"  />
<glyph unicode="&#x20AC;" horiz-adv-x="556" d="M499 22Q415 -16 340 -16Q104 -16 84 268H9L44 339H85L91 384H34L69 455H106Q141 580 221 651T405 722Q503 722 584 659L524 545Q468 602 407 602Q301 602 247 455H491L456 384H229L224 339H437L402 268H224Q236 103 360 103Q429 103 525 170L499 22Z"  />
<glyph unicode="&#x2113;" horiz-adv-x="500" d="M500 595Q500 510 435 432T241 266Q231 225 226 201T217 162T214 140T213 129Q213 105 226 95T257 84Q277 84 299 92T355 123H357L390 46Q345 14 304 0T217 -14Q151 -14 115 19T79 105Q79 109 79 114T81 127T85 147T91 178L30 134H28L-7 209L115 292L165 529Q184 620 239 670T371 721Q399 721 423 711T464 684T490 644T500 595ZM388 589Q388 607 380 620T357 633Q340 633 327 617T305 562L266 383Q290 403 312 428T351 480T378 534T388 589Z"  />
<glyph unicode="&#x2122;" horiz-adv-x="990" d="M281 302H179V634H62V714H398V634H281V302ZM928 302H832V594H830L724 302H655L549 594H547V302H451V714H587L690 443L793 714H928V302Z"  />
<glyph unicode="&#x2126;" horiz-adv-x="774" d="M672 0H358L383 118Q482 172 535 254T588 437Q588 509 543 554T425 599Q319 599 255 523Q194 451 194 344Q194 213 297 119L273 0H-24L3 128H142L141 133Q41 218 39 351Q37 506 153 619T433 731Q567 730 658 650T748 452Q746 238 555 133L556 128H699L672 0Z"  />
<glyph unicode="&#x212E;" horiz-adv-x="600" d="M157 259V78Q216 19 302 19Q365 19 411 47T495 139L530 118Q507 82 484 57T433 15T373 -9T302 -17Q243 -17 196 4T114 63T62 151T44 259Q44 317 62 367T114 455T195 513T302 535Q360 535 407 515T489 458T542 371T561 259H157ZM448 295V440Q385 500 301 500Q217 500 157 440V295H448Z"  />
<glyph unicode="&#x2202;" horiz-adv-x="572" d="M376 412Q376 510 339 564T239 619Q178 619 118 566L48 646Q136 720 233 720Q363 720 436 623T509 356Q509 175 443 80T251 -15Q150 -15 86 50T22 217Q22 315 85 378T242 441Q314 441 376 394V412ZM375 290Q327 344 262 344Q213 344 181 307T149 211Q149 155 177 119T253 83Q306 83 340 131T375 253V290Z"  />
<glyph unicode="&#x2206;" horiz-adv-x="685" d="M625 0H-77L345 714H506L625 0ZM452 132L397 560H395L161 132H452Z"  />
<glyph unicode="&#x220F;" horiz-adv-x="749" d="M693 -214H561V660H188V-214H55V786H693V-214Z"  />
<glyph unicode="&#x2211;" horiz-adv-x="673" d="M646 -214H27V-104L322 292L39 676V786H634V660H216L479 293L199 -88H646V-214Z"  />
<glyph unicode="&#x2212;" horiz-adv-x="600" d="M536 199H31V306H536V199Z"  />
<glyph unicode="&#x2215;" horiz-adv-x="167" d="M-79 -22H-166L248 722H333L-79 -22Z"  />
<glyph unicode="&#x2219;" horiz-adv-x="278" d="M212 287Q212 253 187 228T129 203Q94 203 69 228T43 287Q43 322 68 347T128 372Q162 372 187 347T212 287Z"  />
<glyph unicode="&#x221A;" horiz-adv-x="570" d="M338 -214H217L70 89L16 63L-33 168L138 246L256 -8L417 786H556L338 -214Z"  />
<glyph unicode="&#x221E;" horiz-adv-x="848" d="M505 94Q459 120 405 185Q351 121 309 96T213 71Q130 71 78 126T26 268Q26 354 76 408T209 463Q265 463 309 436T405 341Q456 408 500 435T600 463Q681 463 732 409T783 269Q783 181 732 125T599 69Q548 69 505 94ZM597 349Q544 349 472 264Q540 184 600 184Q634 184 654 207T675 266Q675 303 654 326T597 349ZM212 185Q275 185 337 264Q265 348 209 348Q178 348 157 325T135 266Q135 230 156 208T212 185Z"  />
<glyph unicode="&#x222B;" horiz-adv-x="628" d="M366 39Q366 -92 326 -152T200 -213Q152 -213 115 -188T77 -124Q77 -98 96 -83T140 -67Q183 -67 195 -124Q202 -154 215 -154Q236 -154 234 -116L228 19V502Q228 634 252 692Q289 784 400 784Q445 784 482 761T519 702Q519 674 502 656T458 638Q415 638 401 695Q393 725 379 725Q360 725 360 686Q360 670 363 608T366 534V39Z"  />
<glyph unicode="&#x2248;" horiz-adv-x="600" d="M540 434Q525 270 388 270Q348 270 279 301T171 333Q121 333 110 273H26Q41 435 179 435Q217 435 287 405Q364 372 395 372Q446 372 456 434H540ZM540 220Q526 56 388 56Q352 56 307 74Q268 91 230 107Q198 119 171 119Q119 119 110 59H26Q41 221 179 221Q217 221 290 190T395 158Q446 158 456 220H540Z"  />
<glyph unicode="&#x2260;" horiz-adv-x="600" d="M536 93H251L180 -41L93 2L142 93H31V197H204L258 308H31V412H316L388 547L475 504L425 412H536V308H364L309 197H536V93Z"  />
<glyph unicode="&#x2264;" horiz-adv-x="600" d="M533 122L28 264V372L533 514V401L177 318L533 235V122ZM533 0H28V107H533V0Z"  />
<glyph unicode="&#x2265;" horiz-adv-x="600" d="M553 264L48 122V234L404 317L48 400V514L553 372V264ZM553 0H48V107H553V0Z"  />
<glyph unicode="&#x25A0;" horiz-adv-x="875" d="M153 0V569H722V0H153Z"  />
<glyph unicode="&#x25CA;" horiz-adv-x="593" d="M355 -35H236L52 356L237 747H355L541 356L355 -35ZM296 94L408 356L296 617L184 356L296 94Z"  />
<glyph unicode="&#x25CC;" horiz-adv-x="706" d="M56 291Q56 309 63 318T91 327Q129 327 129 291Q129 254 91 254Q71 254 64 262T56 291ZM577 291Q577 327 614 327Q649 327 649 291Q649 254 614 254Q577 254 577 291ZM316 551Q316 588 352 588Q390 588 390 551Q390 514 352 514Q316 514 316 551ZM316 29Q316 67 352 67Q390 67 390 29Q390 -7 352 -7Q316 -7 316 29ZM543 421Q543 458 581 458Q618 458 618 421Q618 403 609 393T581 383Q561 383 552 393T543 421ZM543 160Q543 179 552 188T581 198Q600 198 609 189T618 160Q618 124 581 124Q543 124 543 160ZM88 421Q88 458 124 458Q163 458 163 421Q163 403 153 393T124 383Q105 383 97 393T88 421ZM88 160Q88 179 96 188T124 198Q143 198 153 189T163 160Q163 124 124 124Q88 124 88 160ZM187 519Q187 537 194 546T222 556Q261 556 261 519Q261 482 222 482Q202 482 195 491T187 519ZM446 519Q446 556 484 556Q521 556 521 519Q521 482 484 482Q446 482 446 519ZM187 61Q187 80 194 90T222 100Q261 100 261 61Q261 25 222 25Q202 25 195 34T187 61ZM446 61Q446 100 484 100Q521 100 521 61Q521 25 484 25Q446 25 446 61Z"  />
<glyph unicode="&#xFB01;" horiz-adv-x="615" d="M159 0H17L106 422H22L42 517H127L135 553Q158 655 200 686Q246 720 328 720Q368 720 421 712L399 610L368 612Q363 613 353 613Q312 613 296 595Q284 582 274 538L269 517H370L350 422H248L159 0ZM610 597H467L493 714H636L610 597ZM484 0H341L451 517H594L484 0Z"  />
<glyph unicode="&#xFB02;" horiz-adv-x="614" d="M159 0H17L106 422H22L42 517H127L135 553Q158 655 200 686Q246 720 328 720Q368 720 421 712L399 610L368 612Q363 613 353 613Q312 613 296 595Q284 582 274 538L269 517H370L350 422H248L159 0ZM482 0H340L492 714H634L482 0Z"  />

</font>
</defs>
</svg>
