<svg xmlns="http://www.w3.org/2000/svg">
<defs>
<font horiz-adv-x="553" id="92f987e2-04de-429f-8f7b-443a118189bf">
<font-face font-family="" panose-1="2 11 6 4 2 2 2 9 2 4" ascent="1479" descent="-482" units-per-em="1000" alphabetic="0">
</font-face>
<missing-glyph horiz-adv-x="606" />

<glyph unicode="&#xA;" />
<glyph unicode="&#xD;" />
<glyph unicode=" " horiz-adv-x="278" />
<glyph unicode="!" horiz-adv-x="259" d="M115 183H69L111 489L159 714H252L205 491L115 183ZM111 0H0L24 111H135L111 0Z"  />
<glyph unicode="&quot;" horiz-adv-x="426" d="M214 456H146V714H214V456ZM354 456H286V714H354V456Z"  />
<glyph unicode="#" horiz-adv-x="556" d="M363 0H294L323 206H200L171 0H102L131 206H34L43 274H140L161 424H60L69 492H171L200 697H269L240 492H362L391 697H460L431 492H522L513 424H422L401 274H494L485 206H392L363 0ZM332 274L353 424H231L210 274H332Z"  />
<glyph unicode="$" horiz-adv-x="556" d="M205 -97H151L169 -13Q-13 20 -13 211Q-13 214 -13 222Q-12 229 -12 234H78V216Q78 88 186 65L240 334Q144 362 103 404T62 519Q62 612 132 674Q199 732 294 732H319L333 794H386L372 725Q534 678 534 520V503H443V516Q443 623 356 651L308 405L379 380Q514 332 514 206Q514 106 435 41Q361 -20 259 -20Q242 -20 222 -17L205 -97ZM256 418L305 656H302Q239 656 197 624Q152 589 152 529Q152 461 232 428L256 418ZM236 58Q242 56 258 56Q322 56 372 94T423 197Q423 277 358 299L291 321L236 58Z"  />
<glyph unicode="%" horiz-adv-x="926" d="M273 -28H209L644 725H708L273 -28ZM367 394Q316 309 223 309Q156 309 118 347T79 454Q79 548 124 622Q176 709 265 709Q410 709 410 564Q410 465 367 394ZM226 364Q278 364 311 425Q342 483 342 568Q342 654 269 654Q211 654 176 582Q147 523 147 458Q147 364 226 364ZM513 133Q513 228 557 302Q610 388 699 388Q844 388 844 243Q844 145 801 73Q749 -12 657 -12Q590 -12 552 26T513 133ZM660 43Q713 43 746 105Q776 162 776 248Q776 333 703 333Q644 333 609 261Q581 203 581 137Q581 43 660 43Z"  />
<glyph unicode="&amp;" horiz-adv-x="630" d="M565 0H468L424 74Q334 -12 220 -12Q133 -12 77 39T21 173Q21 242 66 293T220 398Q161 485 161 556Q161 626 211 670T339 714Q409 714 455 676T502 578Q502 468 326 376L438 192Q491 265 501 337H583Q557 219 480 130L565 0ZM246 551Q246 502 291 434Q417 502 417 565Q417 598 395 618T337 639Q298 639 272 615T246 551ZM257 338Q176 298 141 259T106 169Q106 124 142 94T229 63Q272 63 305 77T384 130L257 338Z"  />
<glyph unicode="&apos;" horiz-adv-x="278" d="M210 456H142V714H210V456Z"  />
<glyph unicode="(" horiz-adv-x="259" d="M116 -198Q82 -126 59 -20T35 170Q35 316 96 447T293 731H363Q120 439 120 133Q120 -42 172 -198H116Z"  />
<glyph unicode=")" horiz-adv-x="259" d="M-117 -198Q126 86 126 398Q126 575 74 731H130Q165 651 188 549Q211 444 211 362Q211 205 137 58Q77 -59 -47 -198H-117Z"  />
<glyph unicode="*" horiz-adv-x="352" d="M304 450L255 427L208 530L130 443L93 480L170 564L75 612L100 658L196 609L218 714H272L247 601L357 612L362 564L255 550L304 450Z"  />
<glyph unicode="+" horiz-adv-x="600" d="M316 0H248V219H30V287H248V506H316V287H534V219H316V0Z"  />
<glyph unicode="&#x2c;" horiz-adv-x="278" d="M134 30Q114 -71 78 -106Q39 -144 -16 -147L-6 -99Q24 -94 41 -74T71 0H15L39 111H150L134 30Z"  />
<glyph unicode="-" horiz-adv-x="389" d="M316 238H26L42 318H332L316 238Z"  />
<glyph unicode="." horiz-adv-x="278" d="M126 0H15L39 111H150L126 0Z"  />
<glyph unicode="/" horiz-adv-x="333" d="M55 -17H-18L278 731H351L55 -17Z"  />
<glyph unicode="0" horiz-adv-x="556" d="M487 229Q448 114 379 51T221 -12Q25 -12 25 263Q25 366 65 476T175 647T335 709Q526 709 526 442Q526 344 487 229ZM230 63Q322 63 379 188T437 468Q437 559 409 599Q383 634 328 634Q205 634 144 422Q115 322 115 248Q115 63 230 63Z"  />
<glyph unicode="1" horiz-adv-x="556" d="M282 0H192L307 539Q221 519 124 519L138 587Q212 588 274 621T367 708H433L282 0Z"  />
<glyph unicode="2" horiz-adv-x="556" d="M446 0H-6Q2 90 47 152T217 287Q320 347 356 377Q432 442 432 515Q432 568 401 601T313 634Q247 634 205 588T158 468H68Q81 585 147 647T323 709Q412 709 467 657T522 520Q522 444 471 380T276 237Q120 151 93 75H462L446 0Z"  />
<glyph unicode="3" horiz-adv-x="556" d="M90 210Q90 63 225 63Q298 63 343 106T389 219Q389 280 350 308T220 336H213L228 404Q238 403 256 403Q424 404 424 536Q424 634 305 634Q177 634 160 490H70Q87 595 149 652T309 709Q408 709 461 663T514 533Q514 477 479 433T387 370Q479 329 479 224Q479 164 443 105Q371 -12 223 -12Q114 -12 57 45T0 209V219H90V210Z"  />
<glyph unicode="4" horiz-adv-x="556" d="M356 0H271L307 166H-4L13 250L433 709H505L407 241H501L486 166H392L356 0ZM322 241L389 562H387L94 241H322Z"  />
<glyph unicode="5" horiz-adv-x="556" d="M97 190Q97 63 225 63Q304 63 352 117Q397 169 397 249Q397 392 256 392Q171 392 130 323H54L165 697H523L508 622H217L161 430L163 428Q214 467 288 467Q379 467 433 408T487 253Q487 135 413 62T220 -12Q123 -12 66 40T7 190H97Z"  />
<glyph unicode="6" horiz-adv-x="556" d="M455 525Q454 634 345 634Q271 634 222 576T138 385H140Q187 456 295 456Q380 456 437 396T495 248Q495 135 425 62T242 -12Q141 -12 85 51T29 228Q29 398 105 553T359 709Q445 709 494 661T545 525H455ZM250 63Q320 63 362 114T405 244Q405 307 371 344T274 381Q205 381 162 332T119 206Q119 138 153 101T250 63Z"  />
<glyph unicode="7" horiz-adv-x="556" d="M97 0Q205 344 471 622H102L120 697H576L563 625Q447 517 343 334Q248 169 194 0H97Z"  />
<glyph unicode="8" horiz-adv-x="556" d="M392 372Q492 330 492 205Q492 109 422 49T255 -12Q152 -12 87 42T22 189Q22 267 66 319T192 386V388Q154 405 129 442T104 520Q104 604 165 656T320 709Q405 709 462 659T519 533Q519 476 484 432T392 374V372ZM313 411Q365 411 397 443T429 526Q429 634 315 634Q262 634 228 601T194 516Q194 411 313 411ZM360 102Q402 142 402 208Q402 267 367 301T270 336Q198 336 155 297T112 190Q112 130 148 97T249 63Q318 63 360 102Z"  />
<glyph unicode="9" horiz-adv-x="556" d="M409 309Q359 239 252 239Q168 239 111 298T54 447Q54 559 122 634T301 709Q405 709 462 647T519 471Q519 362 483 248Q443 121 377 55T198 -12Q105 -12 54 33T3 164V169H94Q94 63 196 63Q271 63 321 118T411 307L409 309ZM273 314Q343 314 386 364T429 489Q429 558 393 596T291 634Q223 634 181 575Q144 522 144 451Q144 386 178 350T273 314Z"  />
<glyph unicode=":" horiz-adv-x="278" d="M211 406H99L122 517H234L211 406ZM127 0H15L37 111H150L127 0Z"  />
<glyph unicode=";" horiz-adv-x="278" d="M210 406H99L123 517H234L210 406ZM134 30Q115 -68 77 -106T-16 -147L-6 -99Q29 -94 48 -64Q60 -44 71 0H15L39 111H150L134 30Z"  />
<glyph unicode="&lt;" horiz-adv-x="600" d="M534 -8L26 222V284L534 514V446L109 253L534 60V-8Z"  />
<glyph unicode="=" horiz-adv-x="600" d="M535 320H31V388H535V320ZM535 118H31V186H535V118Z"  />
<glyph unicode="&gt;" horiz-adv-x="600" d="M544 222L36 -8V60L461 253L36 446V514L544 284V222Z"  />
<glyph unicode="?" horiz-adv-x="556" d="M196 183Q210 262 238 303T350 401Q445 465 445 542Q445 647 330 647Q264 647 222 604T171 488H86Q93 590 161 656T328 722Q411 722 469 682Q535 636 535 557Q535 486 497 432Q467 391 398 343Q334 298 311 268T279 183H196ZM256 0H145L169 111H280L256 0Z"  />
<glyph unicode="@" horiz-adv-x="800" d="M730 159Q683 79 598 31T417 -17Q258 -17 150 92T42 360Q42 514 151 622T413 731Q556 731 654 643T753 423Q753 306 672 216Q598 133 519 133Q460 133 455 198H452Q393 131 328 131Q267 131 226 176T185 290Q185 397 248 481Q316 573 420 573Q500 573 532 491L555 554H618L535 272Q523 231 523 219Q523 188 547 188Q603 188 647 278Q685 355 685 418Q685 530 606 603T414 676Q286 676 198 581T110 355Q110 226 200 132T419 38Q488 38 556 71T667 159H730ZM346 199Q409 199 458 276Q501 345 501 412Q501 447 476 476T419 505Q352 505 304 432Q260 366 260 296Q260 255 283 227T346 199Z"  />
<glyph unicode="A" horiz-adv-x="667" d="M608 0H510L477 215H176L51 0H-55L375 714H479L608 0ZM465 295L412 630H410L219 295H465Z"  />
<glyph unicode="B" horiz-adv-x="685" d="M506 369Q613 336 613 221Q613 119 535 57Q464 0 364 0H7L156 714H448Q642 714 642 543Q642 481 605 433Q566 382 506 371V369ZM399 407Q547 407 547 542Q547 634 414 634H231L183 407H399ZM348 80Q427 80 472 116T518 221Q518 327 375 327H167L115 80H348Z"  />
<glyph unicode="C" horiz-adv-x="722" d="M660 241Q601 -17 344 -17Q199 -17 119 65T38 296Q38 476 143 600Q253 731 430 731Q553 731 627 666T702 484H607Q607 564 560 607T430 651Q292 651 208 540Q133 439 133 296Q133 186 187 126Q242 63 344 63Q514 63 565 241H660Z"  />
<glyph unicode="D" horiz-adv-x="704" d="M7 0L158 714H413Q537 714 607 642T678 440Q678 253 577 131Q469 0 286 0H7ZM287 80Q424 80 507 190Q583 289 583 431Q583 634 391 634H234L117 80H287Z"  />
<glyph unicode="E" horiz-adv-x="611" d="M504 0H7L158 714H650L634 634H237L189 407H559L543 327H172L120 80H522L504 0Z"  />
<glyph unicode="F" horiz-adv-x="574" d="M500 327H170L102 0H7L156 714H626L609 634H234L187 407H517L500 327Z"  />
<glyph unicode="G" horiz-adv-x="759" d="M623 0H563L557 71Q474 -17 344 -17Q200 -17 119 65T38 296Q38 477 142 600Q252 731 430 731Q561 731 638 669T717 492H622Q622 565 570 608T430 651Q292 651 208 540Q133 439 133 296Q133 186 187 126Q242 63 344 63Q544 63 602 296H374L390 376H701L623 0Z"  />
<glyph unicode="H" horiz-adv-x="722" d="M571 0H476L545 327H171L102 0H7L157 714H253L188 407H562L626 714H721L571 0Z"  />
<glyph unicode="I" horiz-adv-x="259" d="M102 0H7L157 714H252L102 0Z"  />
<glyph unicode="J" horiz-adv-x="519" d="M417 195Q394 85 348 37Q295 -17 189 -17Q98 -17 45 23T-9 136Q-9 175 0 234H96Q86 188 86 159Q86 63 191 63Q254 63 288 114Q311 149 327 223L431 714H525L417 195Z"  />
<glyph unicode="K" horiz-adv-x="667" d="M596 0H491L295 362L153 241L102 0H7L158 714H253L178 362L180 360L584 714H711L367 420L596 0Z"  />
<glyph unicode="L" horiz-adv-x="556" d="M480 0H7L157 714H252L120 80H497L480 0Z"  />
<glyph unicode="M" horiz-adv-x="870" d="M720 0H629L775 625H773L410 0H318L225 625H223L98 0H7L157 714H289L384 100H386L739 714H871L720 0Z"  />
<glyph unicode="N" horiz-adv-x="722" d="M577 0H475L222 587H220L99 0H7L158 714H260L515 123H517L636 714H728L577 0Z"  />
<glyph unicode="O" horiz-adv-x="759" d="M678 196Q628 95 540 39T344 -17Q199 -17 119 65T38 296Q38 484 148 607T430 731Q565 731 648 640Q728 551 728 415Q728 297 678 196ZM344 63Q476 63 558 173Q633 274 633 415Q633 520 578 585T429 651Q295 651 211 543Q133 441 133 296Q133 186 187 126Q242 63 344 63Z"  />
<glyph unicode="P" horiz-adv-x="648" d="M102 0H7L156 714H442Q542 714 595 664T649 518Q649 455 614 400Q546 292 381 292H164L102 0ZM400 372Q469 372 511 411T554 517Q554 634 440 634H236L181 372H400Z"  />
<glyph unicode="Q" horiz-adv-x="759" d="M609 -74L510 22Q434 -17 344 -17Q200 -17 119 65T38 296Q38 476 143 600Q253 731 430 731Q566 731 647 642T728 415Q728 314 690 224Q650 130 576 66L663 -18L609 -74ZM514 126Q570 173 602 253Q633 330 633 415Q633 520 578 585T429 651Q291 651 208 539Q133 438 133 296Q133 186 187 126Q242 63 344 63Q400 63 446 84L381 146L435 203L514 126Z"  />
<glyph unicode="R" horiz-adv-x="685" d="M482 0Q474 30 474 63Q474 87 482 140T490 209Q490 305 415 305H166L102 0H7L158 714H438Q547 714 607 667T668 532Q668 461 624 406T507 340V338Q582 316 582 211Q582 195 575 137T567 62Q567 28 581 0H482ZM401 385Q481 385 527 423T573 526Q573 634 437 634H236L183 385H401Z"  />
<glyph unicode="S" horiz-adv-x="648" d="M612 503H518V510Q518 651 354 651Q285 651 238 621Q188 588 188 534Q188 451 308 418L388 396Q480 371 521 333Q573 286 573 201Q573 96 483 36Q404 -17 294 -17Q160 -17 87 41T13 208V225L14 234H108V222Q108 63 298 63Q379 63 428 100T478 200Q478 263 407 298Q371 316 280 337Q94 380 94 524Q94 623 177 680Q251 731 354 731Q470 731 541 673T612 512V503Z"  />
<glyph unicode="T" horiz-adv-x="574" d="M261 0H166L300 634H60L77 714H653L635 634H395L261 0Z"  />
<glyph unicode="U" horiz-adv-x="722" d="M639 286Q615 172 596 133Q522 -17 324 -17Q194 -17 125 39T56 206Q56 249 71 320L154 714H250L155 271Q147 234 147 205Q147 63 325 63Q454 63 502 156Q524 199 552 333L632 714H728L639 286Z"  />
<glyph unicode="V" horiz-adv-x="611" d="M288 0H181L79 714H176L249 93H251L590 714H691L288 0Z"  />
<glyph unicode="W" horiz-adv-x="926" d="M655 0H556L511 616H509L227 0H125L80 714H174L199 113H201L475 714H583L624 111H625L885 714H983L655 0Z"  />
<glyph unicode="X" horiz-adv-x="611" d="M551 0H453L309 302L65 0H-44L266 373L94 714H196L328 432L557 714H664L370 360L551 0Z"  />
<glyph unicode="Y" horiz-adv-x="611" d="M286 0H193L254 287L66 714H167L313 368L584 714H694L348 287L286 0Z"  />
<glyph unicode="Z" horiz-adv-x="611" d="M529 0H-38L-21 79L515 634H106L126 714H647L630 633L90 80H546L529 0Z"  />
<glyph unicode="[" horiz-adv-x="259" d="M160 -198H-29L163 731H352L338 666H230L66 -133H174L160 -198Z"  />
<glyph unicode="\" horiz-adv-x="333" d="M351 -17H278L-18 731H55L351 -17Z"  />
<glyph unicode="]" horiz-adv-x="259" d="M61 -198H-128L-114 -133H-6L158 666H50L64 731H253L61 -198Z"  />
<glyph unicode="^" horiz-adv-x="600" d="M550 264H480L299 624L121 264H50L268 697H332L550 264Z"  />
<glyph unicode="_" horiz-adv-x="500" d="M500 -125H0V-75H500V-125Z"  />
<glyph unicode="`" horiz-adv-x="222" d="M284 589H217L116 732H217L284 589Z"  />
<glyph unicode="a" horiz-adv-x="519" d="M442 0Q418 -12 390 -12Q323 -12 323 53Q323 58 324 61L321 63Q265 -12 148 -12Q74 -12 32 25T-10 134Q-10 236 89 276Q140 296 277 307Q336 312 356 326Q381 342 381 386Q381 454 277 454Q220 454 184 430Q145 405 138 361H53Q64 440 125 484T277 529Q466 529 466 397Q466 371 456 328L410 132Q403 102 403 88Q403 56 428 56Q435 56 441 59L455 63L442 0ZM356 264Q327 244 255 237Q171 229 140 218Q75 194 75 135Q75 102 101 83T168 63Q271 63 318 137Q338 169 358 264H356Z"  />
<glyph unicode="b" horiz-adv-x="593" d="M71 0H-5L146 714H231L176 453L178 451Q243 529 336 529Q434 529 486 470T539 306Q539 176 469 86Q392 -12 266 -12Q204 -12 155 18T92 96H90L71 0ZM266 63Q349 63 405 145Q454 219 454 306Q454 373 423 413T334 454Q238 454 178 368Q125 292 125 192Q125 132 163 98T266 63Z"  />
<glyph unicode="c" horiz-adv-x="537" d="M470 169Q446 82 385 35T234 -12Q131 -12 76 46T21 211Q21 344 100 436T307 529Q495 529 501 353H416Q416 400 387 427T307 454Q216 454 158 376Q106 305 106 211Q106 63 234 63Q344 63 385 169H470Z"  />
<glyph unicode="d" horiz-adv-x="593" d="M455 0H375L393 74H391Q328 -12 220 -12Q126 -12 72 45T17 200Q17 329 95 426Q178 529 304 529Q437 529 465 438H467L522 714H606L455 0ZM234 63Q324 63 383 149Q437 226 437 320Q437 380 402 417T306 454Q214 454 155 371Q102 296 102 200Q102 63 234 63Z"  />
<glyph unicode="e" horiz-adv-x="537" d="M463 162Q443 79 380 34T229 -12Q125 -12 67 46Q10 101 10 197Q10 325 78 421Q153 529 276 529Q495 529 495 301Q495 273 487 233H98Q95 208 95 188Q95 132 134 98T229 63Q341 63 378 162H463ZM410 308Q411 313 411 322Q411 383 379 418T288 454Q157 454 110 308H410Z"  />
<glyph unicode="f" horiz-adv-x="296" d="M108 0H23L119 442H31L46 517H134Q161 632 178 661Q214 722 302 722Q348 722 372 714L358 642Q330 647 318 647Q251 647 235 585L218 517H317L303 442H203L108 0Z"  />
<glyph unicode="g" horiz-adv-x="574" d="M459 76Q431 -57 398 -107Q330 -210 185 -210Q92 -210 36 -168T-22 -50H63Q70 -135 192 -135Q279 -135 323 -71Q353 -30 378 73L376 75Q323 -4 215 -4Q126 -4 74 53T21 210Q21 333 93 427Q171 529 290 529Q352 529 399 497T454 422H456L472 517H552L459 76ZM233 71Q321 71 374 154Q421 226 421 319Q421 383 387 418T289 454Q208 454 154 370Q106 295 106 210Q106 148 141 110T233 71Z"  />
<glyph unicode="h" horiz-adv-x="556" d="M422 0H337L409 335Q415 363 415 382Q415 416 391 435T325 454Q265 454 210 406T140 284L80 0H-5L146 714H231L170 441L172 439Q238 529 356 529Q500 529 500 396Q500 365 485 295L422 0Z"  />
<glyph unicode="i" horiz-adv-x="222" d="M208 610H122L144 714H230L208 610ZM80 0H-5L103 517H188L80 0Z"  />
<glyph unicode="j" horiz-adv-x="222" d="M208 610H122L144 714H230L208 610ZM57 -104Q37 -198 -65 -198Q-98 -198 -120 -192L-105 -117Q-87 -123 -72 -123Q-47 -123 -35 -104T-10 -26L103 517H188L57 -104Z"  />
<glyph unicode="k" horiz-adv-x="481" d="M417 0H322L221 275L119 184L80 0H-5L146 714H230L141 294L143 292L403 517H514L289 326L417 0Z"  />
<glyph unicode="l" horiz-adv-x="222" d="M80 0H-5L145 714H230L80 0Z"  />
<glyph unicode="m" horiz-adv-x="852" d="M718 0H633L703 319Q713 365 713 383Q713 413 690 433T634 454Q590 454 548 424T486 358Q471 331 458 272L399 0H314L374 284Q392 369 392 387Q392 454 320 454Q273 454 230 421Q184 386 168 361T139 275L80 0H-5L105 517H184L165 440L167 438Q239 529 347 529Q455 529 477 436Q506 477 554 503T654 529Q720 529 759 498T798 413Q798 382 783 310L718 0Z"  />
<glyph unicode="n" horiz-adv-x="556" d="M422 0H337L409 333Q415 361 415 382Q415 416 391 435T325 454Q265 454 211 408T141 291L80 0H-5L104 517H186L170 439H172Q238 529 356 529Q500 529 500 396Q500 365 485 295L422 0Z"  />
<glyph unicode="o" horiz-adv-x="574" d="M445 89Q364 -12 235 -12Q137 -12 77 48T17 205Q17 338 94 430Q176 529 306 529Q411 529 466 474T521 315Q521 183 445 89ZM244 63Q327 63 381 139T436 308Q436 374 400 414T299 454Q211 454 153 371Q102 297 102 205Q102 137 140 100T244 63Z"  />
<glyph unicode="p" horiz-adv-x="593" d="M35 -198H-49L102 517H182L164 443H166Q229 529 337 529Q431 529 485 472T540 317Q540 188 462 91Q379 -12 253 -12Q192 -12 150 11Q104 35 92 79H90L35 -198ZM250 63Q343 63 402 146Q455 220 455 317Q455 454 321 454Q233 454 173 367Q120 289 120 197Q120 136 155 100T250 63Z"  />
<glyph unicode="q" horiz-adv-x="593" d="M410 -198H324L380 66H378Q312 -12 215 -12Q121 -12 69 48T17 212Q17 338 89 429Q167 529 289 529Q421 529 456 435H458L475 517H561L410 -198ZM335 98Q379 133 406 199Q431 262 431 327Q431 386 396 420T297 454Q212 454 154 373Q102 300 102 212Q102 143 137 103T234 63Q291 63 335 98Z"  />
<glyph unicode="r" horiz-adv-x="333" d="M80 0H-5L103 517H183L158 406H160Q201 474 247 502T362 530Q376 530 378 529L358 438Q358 438 351 439Q345 439 338 439Q282 439 248 422Q221 407 186 368T129 229L80 0Z"  />
<glyph unicode="s" horiz-adv-x="481" d="M355 365V374Q355 408 325 431T247 454Q138 454 138 388Q138 364 158 347T240 306Q325 272 354 252Q411 211 411 148Q411 75 351 32T199 -12Q-9 -12 -9 163H76V155Q76 63 208 63Q261 63 293 84T326 142Q326 175 271 205Q258 213 185 242T83 302T53 380Q53 446 109 487T245 529Q333 529 386 486T440 365H355Z"  />
<glyph unicode="t" horiz-adv-x="315" d="M223 0Q190 -6 163 -6Q47 -6 47 78Q47 101 52 124L120 442H33L49 517H136L168 670H253L221 517H324L308 442H205L142 141Q138 122 138 104Q138 69 189 69Q212 69 238 78L223 0Z"  />
<glyph unicode="u" horiz-adv-x="556" d="M411 0H329L345 78H343Q276 -12 159 -12Q15 -12 15 121Q15 153 31 228L93 517H178L109 200Q100 159 100 135Q100 63 190 63Q256 63 310 114Q361 162 375 229L435 517H520L411 0Z"  />
<glyph unicode="v" horiz-adv-x="481" d="M207 0H116L42 517H132L176 87H178L402 517H494L207 0Z"  />
<glyph unicode="w" horiz-adv-x="759" d="M495 0H405L379 402H377L192 0H102L41 517H131L163 106H165L351 517H447L472 106H474L670 517H762L495 0Z"  />
<glyph unicode="x" horiz-adv-x="481" d="M404 0H307L213 212L37 0H-66L176 274L61 517H159L237 329L391 517H494L272 267L404 0Z"  />
<glyph unicode="y" horiz-adv-x="481" d="M163 -87Q158 -96 130 -136Q78 -210 -3 -210Q-42 -210 -63 -197L-48 -128Q-25 -142 1 -142Q42 -142 80 -89Q107 -44 133 0L42 517H133L193 106H195L412 517H505L163 -87Z"  />
<glyph unicode="z" horiz-adv-x="444" d="M368 0H-53L-41 64L319 442H41L56 517H449L436 456L73 75H382L368 0Z"  />
<glyph unicode="{" horiz-adv-x="333" d="M202 -198H130Q98 -198 74 -174Q47 -148 47 -108Q47 -79 51 -67L89 118Q93 137 93 155Q93 229 30 232L45 299Q80 301 110 335T151 416L190 603Q201 658 242 694T330 731H395L382 671H332Q310 671 293 650T270 600L229 404Q219 356 188 319T114 268V265Q178 249 178 169Q179 165 175 146L137 -37Q131 -66 131 -94Q131 -138 162 -138H215L202 -198Z"  />
<glyph unicode="|" horiz-adv-x="222" d="M145 -214H77V786H145V-214Z"  />
<glyph unicode="}" horiz-adv-x="333" d="M111 -80Q101 -127 61 -162T-24 -198H-91L-78 -138H-31Q20 -138 37 -56L74 124Q97 238 190 265V268Q163 274 145 299T126 363V372L167 576Q172 601 172 617Q172 671 141 671H89L102 731H174Q207 731 232 706T257 641Q257 622 253 603L215 419Q211 400 211 377Q211 343 228 322T274 300L259 232Q224 232 193 196T151 112L111 -80Z"  />
<glyph unicode="~" horiz-adv-x="600" d="M511 269Q454 183 386 183Q344 183 280 219T169 255Q120 255 85 179L49 229Q93 315 174 315Q219 315 293 279T387 243Q427 243 475 319L511 269Z"  />
<glyph unicode="&#xA0;" horiz-adv-x="278" />
<glyph unicode="&#xA1;" horiz-adv-x="259" d="M201 406H90L114 517H225L201 406ZM66 -198H-27L20 25L110 333H156L113 27L66 -198Z"  />
<glyph unicode="&#xA2;" horiz-adv-x="556" d="M219 -116H180L203 -9Q31 13 31 211Q31 341 108 432Q189 527 317 529L336 620H375L355 527Q511 507 511 353H426Q426 444 340 457L256 58Q356 64 395 169H480Q431 -12 241 -12L219 -116ZM302 459H301Q224 459 168 380Q116 307 116 211Q116 74 218 61L302 459Z"  />
<glyph unicode="&#xA3;" horiz-adv-x="556" d="M485 32Q412 -17 349 -17Q312 -17 246 7T145 31Q100 31 26 -12L-3 62L-2 63Q71 121 98 162Q123 200 123 248Q123 296 112 327H26L37 372H99Q76 453 76 499Q76 597 147 664T318 731Q419 731 478 668T537 504V485H446L448 505Q446 572 413 614T325 656Q256 656 211 609T166 488Q166 428 188 372H342L333 327H203Q212 300 212 260Q212 216 174 162T79 71V69Q127 96 190 96Q231 96 301 70Q334 58 359 58Q392 58 454 104L485 32Z"  />
<glyph unicode="&#xA4;" horiz-adv-x="556" d="M531 145L484 98L428 156Q367 101 280 101Q189 101 128 155L73 97L25 145L80 203Q28 267 28 349Q28 440 82 497L25 555L74 604L130 548Q190 599 281 599Q365 599 424 549L481 605L531 554L476 499Q528 444 528 351Q528 262 476 201L531 145ZM280 176Q347 176 395 227T443 351Q443 421 396 472T280 524Q211 524 162 473T113 349Q113 277 162 227T280 176Z"  />
<glyph unicode="&#xA5;" horiz-adv-x="556" d="M441 174H295L259 0H170L206 174H61L75 234H219L227 286L219 309H89L103 369H200L90 714H188L290 371L528 714H636L387 369H483L470 309H341L317 276L308 234H455L441 174Z"  />
<glyph unicode="&#xA6;" horiz-adv-x="222" d="M145 411H77V661H145V411ZM145 -89H77V161H145V-89Z"  />
<glyph unicode="&#xA7;" horiz-adv-x="556" d="M87 -9Q87 -123 197 -123Q238 -123 265 -101T292 -43Q292 5 243 58L111 201Q46 271 46 339Q46 464 185 496Q163 529 163 575Q163 644 214 687T345 731Q421 731 471 688T521 571Q521 561 520 555H440V559Q440 656 343 656Q303 656 276 634T248 579Q248 532 295 485Q419 362 451 320Q491 267 491 215Q491 150 453 107T348 53Q377 18 377 -37Q377 -109 325 -154T181 -198Q102 -197 56 -146T7 -9H87ZM277 145Q302 118 314 104Q411 124 411 204Q411 240 368 289Q349 312 281 374Q229 422 218 445Q185 443 156 413T126 351Q126 307 168 262L277 145Z"  />
<glyph unicode="&#xA8;" horiz-adv-x="222" d="M204 602H115L136 706H225L204 602ZM367 602H278L299 706H388L367 602Z"  />
<glyph unicode="&#xA9;" horiz-adv-x="800" d="M776 359Q776 201 667 92T401 -17Q243 -17 134 92T24 359Q24 514 134 622T401 731Q558 731 667 623T776 359ZM401 38Q534 38 622 133Q708 225 708 359Q708 492 620 584T400 676Q269 676 181 584T92 359Q92 224 179 131T401 38ZM599 285Q582 212 532 170T413 128Q315 128 253 192T191 357Q191 458 250 521T410 585Q485 585 535 545T598 433H535Q525 479 492 504T411 530Q341 530 300 483T259 359Q259 285 302 234T413 183Q460 183 493 210T535 285H599Z"  />
<glyph unicode="&#xAA;" horiz-adv-x="311" d="M330 387Q313 380 296 380Q252 380 252 420V426H249Q214 380 151 380Q33 380 33 473Q33 558 169 568Q220 572 242 578Q289 591 289 624Q289 659 222 659Q148 659 135 606H75Q82 654 122 681T222 709Q273 709 311 689T349 636Q349 626 344 605L319 501Q306 447 306 442Q306 430 323 430Q331 430 338 433L330 387ZM274 544H272Q256 532 223 529Q213 529 155 522Q93 515 93 467Q93 430 151 430Q197 430 226 447Q252 463 263 503L274 544Z"  />
<glyph unicode="&#xAB;" horiz-adv-x="463" d="M153 114L30 250L52 342L226 442L205 357L85 289L172 199L153 114ZM349 114L226 250L248 342L422 442L401 357L281 289L368 199L349 114Z"  />
<glyph unicode="&#xAC;" horiz-adv-x="600" d="M532 109H464V320H28V388H532V109Z"  />
<glyph unicode="&#xAD;" horiz-adv-x="389" d="M316 238H26L42 318H332L316 238Z"  />
<glyph unicode="&#xAE;" horiz-adv-x="800" d="M776 359Q776 201 667 92T401 -17Q243 -17 134 92T24 359Q24 514 134 622T401 731Q558 731 667 623T776 359ZM401 38Q535 38 623 132Q708 224 708 359Q708 493 621 584T400 676Q268 676 180 584T92 359Q92 224 179 131T401 38ZM587 139H514L395 327H323V139H255V576H428Q577 576 577 451Q577 346 462 332L587 139ZM401 382Q462 382 485 398T509 454Q509 521 417 521H323V382H401Z"  />
<glyph unicode="&#xAF;" horiz-adv-x="222" d="M362 627H92L104 682H373L362 627Z"  />
<glyph unicode="&#xB0;" horiz-adv-x="400" d="M348 456Q306 413 243 413Q180 413 138 456T95 561Q95 623 137 666T243 709Q305 709 348 667T391 561Q391 499 348 456ZM312 491Q341 519 341 561Q341 603 312 631T243 659Q202 659 174 632T145 561Q145 520 173 492T243 463Q284 463 312 491Z"  />
<glyph unicode="&#xB1;" horiz-adv-x="600" d="M532 271H314V104H246V271H28V339H246V505H314V339H532V271ZM532 0H28V68H532V0Z"  />
<glyph unicode="&#xB2;" horiz-adv-x="370" d="M346 397H62Q63 457 92 498T184 573L254 611Q334 654 334 709Q334 738 316 756T269 774Q193 774 177 679H109Q132 829 272 829Q330 829 366 797T402 710Q402 629 295 569L216 525Q142 484 136 452H356L346 397Z"  />
<glyph unicode="&#xB3;" horiz-adv-x="370" d="M314 619Q379 596 379 528Q379 472 334 430T218 388Q67 388 67 528H135Q135 443 222 443Q262 443 286 467T311 529Q311 595 223 595H204L213 644H249Q334 644 334 713Q334 775 264 775Q188 775 179 696V695H112Q119 759 161 794T267 830Q325 830 362 799T400 718Q400 643 314 621V619Z"  />
<glyph unicode="&#xB4;" horiz-adv-x="222" d="M247 589H177L270 732H383L247 589Z"  />
<glyph unicode="&#xB5;" horiz-adv-x="556" d="M412 0H330L346 78H344Q271 -12 173 -12Q116 -12 81 23H79L32 -198H-53L96 517H181L121 241Q118 233 111 196Q103 152 103 135Q103 63 192 63Q257 63 309 112T375 229L436 517H521L412 0Z"  />
<glyph unicode="&#xB6;" horiz-adv-x="600" d="M396 -155H333L502 659H375L207 -155H142L244 336Q165 336 117 378T69 486Q69 591 151 655Q226 714 334 714H578L396 -155Z"  />
<glyph unicode="&#xB7;" horiz-adv-x="278" d="M195 253Q195 226 177 208T131 189Q105 189 86 208T67 253Q67 279 86 298T131 317Q158 317 176 299T195 253Z"  />
<glyph unicode="&#xB8;" horiz-adv-x="222" d="M-103 -145Q-66 -160 -33 -160Q21 -160 21 -129Q21 -99 -24 -99Q-48 -99 -67 -107L-86 -77L-18 0H30L-21 -54L-20 -55Q-6 -50 13 -50Q51 -50 73 -70T96 -123Q96 -162 63 -186T-23 -210Q-76 -210 -121 -188L-103 -145Z"  />
<glyph unicode="&#xB9;" horiz-adv-x="370" d="M255 397H189L254 718Q204 701 145 701H137L146 751Q253 751 297 822H344L255 397Z"  />
<glyph unicode="&#xBA;" horiz-adv-x="344" d="M323 438Q271 380 189 380Q44 380 44 512Q44 594 97 651T234 709Q375 709 375 579Q375 496 323 438ZM189 430Q244 430 279 473T315 575Q315 659 229 659Q175 659 140 615T104 513Q104 476 126 453T189 430Z"  />
<glyph unicode="&#xBB;" horiz-adv-x="463" d="M201 214L27 114L48 199L168 267L81 357L100 442L223 306L201 214ZM397 214L223 114L244 199L364 267L277 357L296 442L419 306L397 214Z"  />
<glyph unicode="&#xBC;" horiz-adv-x="834" d="M201 -28H137L572 725H636L201 -28ZM209 280H143L208 601Q157 584 98 584H91L100 634Q205 634 251 705H298L209 280ZM637 0H571L591 102H399L414 170L660 423H726L669 157H725L714 102H657L637 0ZM603 157L642 334H640L470 157H603Z"  />
<glyph unicode="&#xBD;" horiz-adv-x="834" d="M177 -28H113L548 725H612L177 -28ZM209 280H143L208 601Q157 584 98 584H91L100 634Q205 634 251 705H298L209 280ZM706 0H422Q425 111 539 173L611 212Q658 237 676 259T694 312Q694 342 676 359T629 377Q551 377 537 282H469Q489 432 632 432Q691 432 726 399T762 313Q762 228 652 170Q583 133 562 120Q500 81 496 55H716L706 0Z"  />
<glyph unicode="&#xBE;" horiz-adv-x="834" d="M249 -28H185L620 725H684L249 -28ZM289 502Q354 481 354 411Q354 354 308 313T193 271Q121 271 82 307T42 411H110Q110 370 133 348T197 326Q237 326 261 349T286 412Q286 478 200 478H179L188 527H211Q309 527 309 596Q309 658 239 658Q163 658 154 579H87Q93 640 135 676T242 713Q302 713 338 682T375 601Q375 526 289 504V502ZM646 0H581L601 102H409L424 170L670 423H736L679 157H735L724 102H667L646 0ZM613 157L652 334H650L480 157H613Z"  />
<glyph unicode="&#xBF;" horiz-adv-x="556" d="M348 406H238L260 517H373L348 406ZM431 25Q418 -85 351 -147T179 -210Q94 -210 38 -160T-19 -32Q-19 78 112 166Q177 210 204 247T236 332H319Q308 258 277 212T181 123Q71 50 71 -25Q71 -73 102 -104T182 -135Q315 -135 346 25H431Z"  />
<glyph unicode="&#xC0;" horiz-adv-x="667" d="M608 0H510L477 215H176L51 0H-55L375 714H479L608 0ZM465 295L412 630H410L219 295H465ZM490 779H423L322 922H423L490 779Z"  />
<glyph unicode="&#xC1;" horiz-adv-x="667" d="M608 0H510L477 215H176L51 0H-55L375 714H479L608 0ZM465 295L412 630H410L219 295H465ZM457 779H387L480 922H593L457 779Z"  />
<glyph unicode="&#xC2;" horiz-adv-x="667" d="M608 0H510L477 215H176L51 0H-55L375 714H479L608 0ZM465 295L412 630H410L219 295H465ZM581 779H507L456 872L369 779H287L420 922H506L581 779Z"  />
<glyph unicode="&#xC3;" horiz-adv-x="667" d="M608 0H510L477 215H176L51 0H-55L375 714H479L608 0ZM465 295L412 630H410L219 295H465ZM626 907Q619 885 610 865T588 830T556 805T514 796Q491 796 473 803T428 822Q399 835 377 835Q359 835 346 824T324 793H272Q305 903 388 903Q418 903 460 883Q502 863 524 863Q540 863 552 873T574 907H626Z"  />
<glyph unicode="&#xC4;" horiz-adv-x="667" d="M608 0H510L477 215H176L51 0H-55L375 714H479L608 0ZM465 295L412 630H410L219 295H465ZM399 792H310L331 896H420L399 792ZM562 792H473L494 896H583L562 792Z"  />
<glyph unicode="&#xC5;" horiz-adv-x="667" d="M608 0H510L477 215H176L51 0H-55L375 714H479L608 0ZM465 295L412 630H410L219 295H465ZM554 860Q554 837 545 817T521 781T485 756T441 747Q418 747 398 756T362 780T337 816T328 860Q328 883 337 903T361 939T397 964T441 973Q465 973 485 964T521 939T545 903T554 860ZM441 792Q470 792 489 811T509 860Q509 889 490 908T440 928Q412 928 393 909T373 860Q373 831 392 812T441 792Z"  />
<glyph unicode="&#xC6;" horiz-adv-x="926" d="M821 0H366L409 208H179L30 0H-79L441 714H965L948 634H597L550 407H880L862 327H533L480 80H837L821 0ZM427 288L502 634H480L235 288H427Z"  />
<glyph unicode="&#xC7;" horiz-adv-x="722" d="M660 241Q629 112 548 46T347 -17L318 -16L283 -54L284 -55Q297 -50 317 -50Q354 -50 377 -70T400 -123Q400 -161 368 -185T281 -210Q228 -210 183 -188L201 -145Q237 -160 271 -160Q325 -160 325 -129Q325 -99 280 -99Q256 -99 237 -107L218 -77L274 -11Q159 8 99 87T38 296Q38 476 143 600Q253 731 430 731Q553 731 627 666T702 484H607Q607 564 560 607T430 651Q292 651 208 540Q133 439 133 296Q133 186 187 126Q242 63 344 63Q514 63 565 241H660Z"  />
<glyph unicode="&#xC8;" horiz-adv-x="611" d="M504 0H7L158 714H650L634 634H237L189 407H559L543 327H172L120 80H522L504 0ZM448 779H381L280 922H381L448 779Z"  />
<glyph unicode="&#xC9;" horiz-adv-x="611" d="M504 0H7L158 714H650L634 634H237L189 407H559L543 327H172L120 80H522L504 0ZM435 779H365L458 922H571L435 779Z"  />
<glyph unicode="&#xCA;" horiz-adv-x="611" d="M504 0H7L158 714H650L634 634H237L189 407H559L543 327H172L120 80H522L504 0ZM549 779H475L424 872L337 779H255L388 922H474L549 779Z"  />
<glyph unicode="&#xCB;" horiz-adv-x="611" d="M504 0H7L158 714H650L634 634H237L189 407H559L543 327H172L120 80H522L504 0ZM367 792H278L299 896H388L367 792ZM530 792H441L462 896H551L530 792Z"  />
<glyph unicode="&#xCC;" horiz-adv-x="259" d="M102 0H7L157 714H252L102 0ZM270 779H203L102 922H203L270 779Z"  />
<glyph unicode="&#xCD;" horiz-adv-x="259" d="M102 0H7L157 714H252L102 0ZM238 779H168L261 922H374L238 779Z"  />
<glyph unicode="&#xCE;" horiz-adv-x="259" d="M102 0H7L157 714H252L102 0ZM362 779H288L237 872L150 779H68L201 922H287L362 779Z"  />
<glyph unicode="&#xCF;" horiz-adv-x="259" d="M102 0H7L157 714H252L102 0ZM180 792H91L112 896H201L180 792ZM343 792H254L275 896H364L343 792Z"  />
<glyph unicode="&#xD0;" horiz-adv-x="704" d="M7 0L79 341H13L27 405H93L158 714H413Q537 714 607 642T678 440Q678 253 577 131Q469 0 286 0H7ZM287 80Q424 80 507 190Q583 289 583 431Q583 634 391 634H234L186 405H386L372 341H172L117 80H287Z"  />
<glyph unicode="&#xD1;" horiz-adv-x="722" d="M577 0H475L222 587H220L99 0H7L158 714H260L515 123H517L636 714H728L577 0ZM638 907Q631 885 622 865T600 830T568 805T526 796Q503 796 485 803T440 822Q411 835 389 835Q371 835 358 824T336 793H284Q317 903 400 903Q430 903 472 883Q514 863 536 863Q552 863 564 873T586 907H638Z"  />
<glyph unicode="&#xD2;" horiz-adv-x="759" d="M678 196Q627 95 540 39T344 -17Q199 -17 119 65T38 296Q38 390 67 469T148 607T272 698T430 731Q562 731 646 641Q728 552 728 415Q728 299 678 196ZM344 63Q413 63 467 93T557 172T613 285T633 415Q633 467 619 510T579 584T515 633T429 651Q359 651 304 622T211 543T153 429T133 296Q133 187 186 125T344 63ZM497 779H430L329 922H430L497 779Z"  />
<glyph unicode="&#xD3;" horiz-adv-x="759" d="M678 196Q627 95 540 39T344 -17Q199 -17 119 65T38 296Q38 390 67 469T148 607T272 698T430 731Q562 731 646 641Q728 552 728 415Q728 299 678 196ZM344 63Q413 63 467 93T557 172T613 285T633 415Q633 467 619 510T579 584T515 633T429 651Q359 651 304 622T211 543T153 429T133 296Q133 187 186 125T344 63ZM484 779H414L507 922H620L484 779Z"  />
<glyph unicode="&#xD4;" horiz-adv-x="759" d="M678 196Q627 95 540 39T344 -17Q199 -17 119 65T38 296Q38 390 67 469T148 607T272 698T430 731Q562 731 646 641Q728 552 728 415Q728 299 678 196ZM344 63Q413 63 467 93T557 172T613 285T633 415Q633 467 619 510T579 584T515 633T429 651Q359 651 304 622T211 543T153 429T133 296Q133 187 186 125T344 63ZM598 779H524L473 872L386 779H304L437 922H523L598 779Z"  />
<glyph unicode="&#xD5;" horiz-adv-x="759" d="M678 196Q627 95 540 39T344 -17Q199 -17 119 65T38 296Q38 390 67 469T148 607T272 698T430 731Q562 731 646 641Q728 552 728 415Q728 299 678 196ZM344 63Q413 63 467 93T557 172T613 285T633 415Q633 467 619 510T579 584T515 633T429 651Q359 651 304 622T211 543T153 429T133 296Q133 187 186 125T344 63ZM643 907Q636 885 627 865T605 830T573 805T531 796Q508 796 490 803T445 822Q416 835 394 835Q376 835 363 824T341 793H289Q322 903 405 903Q435 903 477 883Q519 863 541 863Q557 863 569 873T591 907H643Z"  />
<glyph unicode="&#xD6;" horiz-adv-x="759" d="M678 196Q627 95 540 39T344 -17Q199 -17 119 65T38 296Q38 390 67 469T148 607T272 698T430 731Q562 731 646 641Q728 552 728 415Q728 299 678 196ZM344 63Q413 63 467 93T557 172T613 285T633 415Q633 467 619 510T579 584T515 633T429 651Q359 651 304 622T211 543T153 429T133 296Q133 187 186 125T344 63ZM416 792H327L348 896H437L416 792ZM579 792H490L511 896H600L579 792Z"  />
<glyph unicode="&#xD7;" horiz-adv-x="600" d="M520 72L472 24L291 206L108 24L61 72L243 254L62 434L109 482L291 302L471 482L519 434L338 254L520 72Z"  />
<glyph unicode="&#xD8;" horiz-adv-x="759" d="M774 701L674 606Q728 524 728 415Q728 236 620 110T344 -17Q197 -17 115 71H112L17 -22L-12 10L88 106Q38 186 38 296Q38 479 148 605T430 731Q565 731 647 640L745 733L774 701ZM583 579Q526 651 429 651Q291 651 208 539Q133 438 133 296Q133 224 158 173L583 579ZM181 135Q239 63 344 63Q478 63 560 175Q633 276 633 415Q633 489 606 541L181 135Z"  />
<glyph unicode="&#xD9;" horiz-adv-x="722" d="M639 286Q615 172 596 133Q581 102 557 75T500 28T423 -5T324 -17Q194 -17 125 39T56 206Q56 215 56 223T57 244T62 275T71 320L154 714H250L155 271Q150 246 149 231T147 205Q147 63 325 63Q397 63 438 88T502 156Q513 178 525 222T552 333L632 714H728L639 286ZM487 779H420L319 922H420L487 779Z"  />
<glyph unicode="&#xDA;" horiz-adv-x="722" d="M639 286Q615 172 596 133Q581 102 557 75T500 28T423 -5T324 -17Q194 -17 125 39T56 206Q56 215 56 223T57 244T62 275T71 320L154 714H250L155 271Q150 246 149 231T147 205Q147 63 325 63Q397 63 438 88T502 156Q513 178 525 222T552 333L632 714H728L639 286ZM474 779H404L497 922H610L474 779Z"  />
<glyph unicode="&#xDB;" horiz-adv-x="722" d="M639 286Q615 172 596 133Q581 102 557 75T500 28T423 -5T324 -17Q194 -17 125 39T56 206Q56 215 56 223T57 244T62 275T71 320L154 714H250L155 271Q150 246 149 231T147 205Q147 63 325 63Q397 63 438 88T502 156Q513 178 525 222T552 333L632 714H728L639 286ZM588 779H514L463 872L376 779H294L427 922H513L588 779Z"  />
<glyph unicode="&#xDC;" horiz-adv-x="722" d="M639 286Q615 172 596 133Q581 102 557 75T500 28T423 -5T324 -17Q194 -17 125 39T56 206Q56 215 56 223T57 244T62 275T71 320L154 714H250L155 271Q150 246 149 231T147 205Q147 63 325 63Q397 63 438 88T502 156Q513 178 525 222T552 333L632 714H728L639 286ZM406 792H317L338 896H427L406 792ZM569 792H480L501 896H590L569 792Z"  />
<glyph unicode="&#xDD;" horiz-adv-x="611" d="M286 0H193L254 287L66 714H167L313 368L584 714H694L348 287L286 0ZM416 779H346L439 922H552L416 779Z"  />
<glyph unicode="&#xDE;" horiz-adv-x="648" d="M102 0H7L156 714H251L228 600H412Q624 600 624 403Q624 341 588 286Q518 178 356 178H139L102 0ZM375 258Q443 258 486 297T529 403Q529 520 415 520H211L156 258H375Z"  />
<glyph unicode="&#xDF;" horiz-adv-x="537" d="M170 65Q182 62 195 62Q288 63 342 114Q393 163 393 241Q393 301 359 329T248 357H232L247 427H257Q337 427 383 463T429 564Q429 603 400 629T331 656Q262 656 227 605Q202 570 185 490L81 0H-5L102 501Q130 632 184 681T327 731Q413 731 463 692T514 581Q514 511 473 459T365 397V395Q418 385 448 345T478 248Q478 141 406 65T228 -12Q187 -12 156 -7L170 65Z"  />
<glyph unicode="&#xE0;" horiz-adv-x="519" d="M442 0Q418 -12 390 -12Q323 -12 323 53Q323 58 324 61L321 63Q265 -12 148 -12Q74 -12 32 25T-10 134Q-10 236 89 276Q140 296 277 307Q336 312 356 326Q381 342 381 386Q381 454 277 454Q220 454 184 430Q145 405 138 361H53Q64 440 125 484T277 529Q466 529 466 397Q466 371 456 328L410 132Q403 102 403 88Q403 56 428 56Q435 56 441 59L455 63L442 0ZM356 264Q327 244 255 237Q171 229 140 218Q75 194 75 135Q75 102 101 83T168 63Q271 63 318 137Q338 169 358 264H356ZM343 589H276L175 732H276L343 589Z"  />
<glyph unicode="&#xE1;" horiz-adv-x="519" d="M442 0Q418 -12 390 -12Q323 -12 323 53Q323 58 324 61L321 63Q265 -12 148 -12Q74 -12 32 25T-10 134Q-10 236 89 276Q140 296 277 307Q336 312 356 326Q381 342 381 386Q381 454 277 454Q220 454 184 430Q145 405 138 361H53Q64 440 125 484T277 529Q466 529 466 397Q466 371 456 328L410 132Q403 102 403 88Q403 56 428 56Q435 56 441 59L455 63L442 0ZM356 264Q327 244 255 237Q171 229 140 218Q75 194 75 135Q75 102 101 83T168 63Q271 63 318 137Q338 169 358 264H356ZM330 589H260L353 732H466L330 589Z"  />
<glyph unicode="&#xE2;" horiz-adv-x="519" d="M442 0Q418 -12 390 -12Q323 -12 323 53Q323 58 324 61L321 63Q265 -12 148 -12Q74 -12 32 25T-10 134Q-10 236 89 276Q140 296 277 307Q336 312 356 326Q381 342 381 386Q381 454 277 454Q220 454 184 430Q145 405 138 361H53Q64 440 125 484T277 529Q466 529 466 397Q466 371 456 328L410 132Q403 102 403 88Q403 56 428 56Q435 56 441 59L455 63L442 0ZM356 264Q327 244 255 237Q171 229 140 218Q75 194 75 135Q75 102 101 83T168 63Q271 63 318 137Q338 169 358 264H356ZM444 589H370L319 682L232 589H150L283 732H369L444 589Z"  />
<glyph unicode="&#xE3;" horiz-adv-x="519" d="M442 0Q418 -12 390 -12Q323 -12 323 53Q323 58 324 61L321 63Q265 -12 148 -12Q74 -12 32 25T-10 134Q-10 236 89 276Q140 296 277 307Q336 312 356 326Q381 342 381 386Q381 454 277 454Q220 454 184 430Q145 405 138 361H53Q64 440 125 484T277 529Q466 529 466 397Q466 371 456 328L410 132Q403 102 403 88Q403 56 428 56Q435 56 441 59L455 63L442 0ZM356 264Q327 244 255 237Q171 229 140 218Q75 194 75 135Q75 102 101 83T168 63Q271 63 318 137Q338 169 358 264H356ZM489 718Q457 607 377 607Q350 607 285 635Q260 646 240 646Q205 646 187 604H135Q168 714 251 714Q277 714 322 694T387 674Q419 674 437 718H489Z"  />
<glyph unicode="&#xE4;" horiz-adv-x="519" d="M442 0Q418 -12 390 -12Q323 -12 323 53Q323 58 324 61L321 63Q265 -12 148 -12Q74 -12 32 25T-10 134Q-10 236 89 276Q140 296 277 307Q336 312 356 326Q381 342 381 386Q381 454 277 454Q220 454 184 430Q145 405 138 361H53Q64 440 125 484T277 529Q466 529 466 397Q466 371 456 328L410 132Q403 102 403 88Q403 56 428 56Q435 56 441 59L455 63L442 0ZM356 264Q327 244 255 237Q171 229 140 218Q75 194 75 135Q75 102 101 83T168 63Q271 63 318 137Q338 169 358 264H356ZM262 602H173L194 706H283L262 602ZM425 602H336L357 706H446L425 602Z"  />
<glyph unicode="&#xE5;" horiz-adv-x="519" d="M442 0Q418 -12 390 -12Q323 -12 323 53Q323 58 324 61L321 63Q265 -12 148 -12Q74 -12 32 25T-10 134Q-10 236 89 276Q140 296 277 307Q336 312 356 326Q381 342 381 386Q381 454 277 454Q220 454 184 430Q145 405 138 361H53Q64 440 125 484T277 529Q466 529 466 397Q466 371 456 328L410 132Q403 102 403 88Q403 56 428 56Q435 56 441 59L455 63L442 0ZM356 264Q327 244 255 237Q171 229 140 218Q75 194 75 135Q75 102 101 83T168 63Q271 63 318 137Q338 169 358 264H356ZM430 676Q430 630 396 597T317 563Q271 563 238 597T204 676Q204 722 238 755T317 789Q363 789 396 755T430 676ZM317 608Q346 608 365 627T385 676Q385 705 366 724T316 744Q288 744 269 725T249 676Q249 647 268 628T317 608Z"  />
<glyph unicode="&#xE6;" horiz-adv-x="870" d="M794 162Q766 83 705 38Q639 -12 547 -12Q399 -12 365 100Q300 -12 162 -12Q-5 -12 -5 132Q-5 275 219 293Q296 299 326 309Q388 331 388 385Q388 454 275 454Q172 454 147 362H64Q91 529 295 529Q419 529 460 448Q520 529 625 529Q722 529 773 477T824 327Q824 285 810 233H435Q430 205 430 182Q430 127 464 95T554 63Q665 63 707 162H794ZM739 308Q741 322 741 333Q741 390 709 422T620 454Q560 454 514 415T449 308H739ZM311 121Q346 166 362 266Q327 248 247 238T137 215Q80 190 80 132Q80 63 176 63Q267 63 311 121Z"  />
<glyph unicode="&#xE7;" horiz-adv-x="537" d="M470 169Q420 -12 230 -12H219L179 -54L180 -55Q193 -50 213 -50Q250 -50 273 -70T296 -123Q296 -161 264 -185T177 -210Q124 -210 79 -188L97 -145Q133 -160 167 -160Q221 -160 221 -129Q221 -99 176 -99Q152 -99 133 -107L114 -77L176 -6Q21 24 21 211Q21 344 96 434Q177 529 307 529Q495 529 501 353H416Q416 400 387 427T307 454Q215 454 158 376Q106 306 106 211Q106 63 234 63Q344 63 385 169H470Z"  />
<glyph unicode="&#xE8;" horiz-adv-x="537" d="M463 162Q443 79 380 34T229 -12Q125 -12 67 46Q10 101 10 197Q10 325 78 421Q153 529 276 529Q495 529 495 301Q495 273 487 233H98Q95 208 95 188Q95 132 134 98T229 63Q341 63 378 162H463ZM410 308Q411 313 411 322Q411 383 379 418T288 454Q157 454 110 308H410ZM350 589H283L182 732H283L350 589Z"  />
<glyph unicode="&#xE9;" horiz-adv-x="537" d="M463 162Q443 79 380 34T229 -12Q125 -12 67 46Q10 101 10 197Q10 325 78 421Q153 529 276 529Q495 529 495 301Q495 273 487 233H98Q95 208 95 188Q95 132 134 98T229 63Q341 63 378 162H463ZM410 308Q411 313 411 322Q411 383 379 418T288 454Q157 454 110 308H410ZM337 589H267L360 732H473L337 589Z"  />
<glyph unicode="&#xEA;" horiz-adv-x="537" d="M463 162Q443 79 380 34T229 -12Q125 -12 67 46Q10 101 10 197Q10 325 78 421Q153 529 276 529Q495 529 495 301Q495 273 487 233H98Q95 208 95 188Q95 132 134 98T229 63Q341 63 378 162H463ZM410 308Q411 313 411 322Q411 383 379 418T288 454Q157 454 110 308H410ZM451 589H377L326 682L239 589H157L290 732H376L451 589Z"  />
<glyph unicode="&#xEB;" horiz-adv-x="537" d="M463 162Q443 79 380 34T229 -12Q125 -12 67 46Q10 101 10 197Q10 325 78 421Q153 529 276 529Q495 529 495 301Q495 273 487 233H98Q95 208 95 188Q95 132 134 98T229 63Q341 63 378 162H463ZM410 308Q411 313 411 322Q411 383 379 418T288 454Q157 454 110 308H410ZM269 602H180L201 706H290L269 602ZM432 602H343L364 706H453L432 602Z"  />
<glyph unicode="&#xEC;" horiz-adv-x="222" d="M80 0H-5L103 517H188L80 0ZM214 589H147L46 732H147L214 589Z"  />
<glyph unicode="&#xED;" horiz-adv-x="222" d="M80 0H-5L103 517H188L80 0ZM181 589H111L204 732H317L181 589Z"  />
<glyph unicode="&#xEE;" horiz-adv-x="222" d="M80 0H-5L103 517H188L80 0ZM304 589H230L179 682L92 589H10L143 732H229L304 589Z"  />
<glyph unicode="&#xEF;" horiz-adv-x="222" d="M80 0H-5L103 517H188L80 0ZM122 602H33L54 706H143L122 602ZM285 602H196L217 706H306L285 602Z"  />
<glyph unicode="&#xF0;" horiz-adv-x="574" d="M437 453Q427 489 394 535T328 605L214 548L172 588L285 644L255 667Q247 672 226 686L290 731Q339 700 359 681L464 734L508 696L400 641Q471 575 500 508T529 342Q529 182 449 85T235 -12Q138 -12 78 46T17 200Q17 329 97 417T306 506Q388 506 435 453H437ZM244 63Q327 63 385 141Q439 213 439 299Q439 361 402 396T299 431Q213 431 156 357Q102 288 102 200Q102 136 140 100T244 63Z"  />
<glyph unicode="&#xF1;" horiz-adv-x="556" d="M422 0H337L409 333Q415 361 415 382Q415 416 391 435T325 454Q265 454 211 408T141 291L80 0H-5L104 517H186L170 439H172Q238 529 356 529Q500 529 500 396Q500 365 485 295L422 0ZM513 718Q481 607 401 607Q374 607 309 635Q284 646 264 646Q229 646 211 604H159Q192 714 275 714Q301 714 346 694T411 674Q443 674 461 718H513Z"  />
<glyph unicode="&#xF2;" horiz-adv-x="574" d="M445 89Q364 -12 235 -12Q137 -12 77 48T17 205Q17 338 94 430Q176 529 306 529Q411 529 466 474T521 315Q521 183 445 89ZM244 63Q327 63 381 139T436 308Q436 374 400 414T299 454Q211 454 153 371Q102 297 102 205Q102 137 140 100T244 63ZM375 589H308L207 732H308L375 589Z"  />
<glyph unicode="&#xF3;" horiz-adv-x="574" d="M445 89Q364 -12 235 -12Q137 -12 77 48T17 205Q17 338 94 430Q176 529 306 529Q411 529 466 474T521 315Q521 183 445 89ZM244 63Q327 63 381 139T436 308Q436 374 400 414T299 454Q211 454 153 371Q102 297 102 205Q102 137 140 100T244 63ZM362 589H292L385 732H498L362 589Z"  />
<glyph unicode="&#xF4;" horiz-adv-x="574" d="M445 89Q364 -12 235 -12Q137 -12 77 48T17 205Q17 338 94 430Q176 529 306 529Q411 529 466 474T521 315Q521 183 445 89ZM244 63Q327 63 381 139T436 308Q436 374 400 414T299 454Q211 454 153 371Q102 297 102 205Q102 137 140 100T244 63ZM476 589H402L351 682L264 589H182L315 732H401L476 589Z"  />
<glyph unicode="&#xF5;" horiz-adv-x="574" d="M445 89Q364 -12 235 -12Q137 -12 77 48T17 205Q17 338 94 430Q176 529 306 529Q411 529 466 474T521 315Q521 183 445 89ZM244 63Q327 63 381 139T436 308Q436 374 400 414T299 454Q211 454 153 371Q102 297 102 205Q102 137 140 100T244 63ZM521 718Q489 607 409 607Q382 607 317 635Q292 646 272 646Q237 646 219 604H167Q200 714 283 714Q309 714 354 694T419 674Q451 674 469 718H521Z"  />
<glyph unicode="&#xF6;" horiz-adv-x="574" d="M445 89Q364 -12 235 -12Q137 -12 77 48T17 205Q17 338 94 430Q176 529 306 529Q411 529 466 474T521 315Q521 183 445 89ZM244 63Q327 63 381 139T436 308Q436 374 400 414T299 454Q211 454 153 371Q102 297 102 205Q102 137 140 100T244 63ZM294 602H205L226 706H315L294 602ZM457 602H368L389 706H478L457 602Z"  />
<glyph unicode="&#xF7;" horiz-adv-x="600" d="M324 415Q305 395 281 395Q255 395 236 414T216 459Q216 484 235 503T280 523Q306 523 325 504T344 459Q344 436 324 415ZM532 219H28V287H532V219ZM324 3Q305 -17 281 -17Q255 -17 236 2T216 47Q216 73 235 92T280 111Q306 111 325 92T344 47Q344 24 324 3Z"  />
<glyph unicode="&#xF8;" horiz-adv-x="574" d="M566 501L493 435Q521 388 521 315Q521 183 445 89Q364 -12 235 -12Q124 -12 69 53L-6 -15L-30 13L46 83Q17 133 17 204Q17 338 96 433T306 529Q417 529 471 466L541 529L566 501ZM408 409Q368 454 299 454Q210 454 153 372Q102 298 102 205Q102 166 112 142H113L408 409ZM130 108Q169 63 244 63Q329 63 385 145Q436 219 436 308Q436 344 425 374L130 108Z"  />
<glyph unicode="&#xF9;" horiz-adv-x="556" d="M411 0H329L345 78H343Q276 -12 159 -12Q15 -12 15 121Q15 153 31 228L93 517H178L109 200Q100 159 100 135Q100 63 190 63Q256 63 310 114Q361 162 375 229L435 517H520L411 0ZM361 589H294L193 732H294L361 589Z"  />
<glyph unicode="&#xFA;" horiz-adv-x="556" d="M411 0H329L345 78H343Q276 -12 159 -12Q15 -12 15 121Q15 153 31 228L93 517H178L109 200Q100 159 100 135Q100 63 190 63Q256 63 310 114Q361 162 375 229L435 517H520L411 0ZM348 589H278L371 732H484L348 589Z"  />
<glyph unicode="&#xFB;" horiz-adv-x="556" d="M411 0H329L345 78H343Q276 -12 159 -12Q15 -12 15 121Q15 153 31 228L93 517H178L109 200Q100 159 100 135Q100 63 190 63Q256 63 310 114Q361 162 375 229L435 517H520L411 0ZM462 589H388L337 682L250 589H168L301 732H387L462 589Z"  />
<glyph unicode="&#xFC;" horiz-adv-x="556" d="M411 0H329L345 78H343Q276 -12 159 -12Q15 -12 15 121Q15 153 31 228L93 517H178L109 200Q100 159 100 135Q100 63 190 63Q256 63 310 114Q361 162 375 229L435 517H520L411 0ZM280 602H191L212 706H301L280 602ZM443 602H354L375 706H464L443 602Z"  />
<glyph unicode="&#xFD;" horiz-adv-x="481" d="M163 -87Q158 -96 130 -136Q78 -210 -3 -210Q-42 -210 -63 -197L-48 -128Q-25 -142 1 -142Q42 -142 80 -89Q107 -44 133 0L42 517H133L193 106H195L412 517H505L163 -87ZM315 589H245L338 732H451L315 589Z"  />
<glyph unicode="&#xFE;" horiz-adv-x="593" d="M35 -198H-49L142 714H227L164 443H166Q229 529 337 529Q431 529 485 472T540 317Q540 188 462 91Q379 -12 253 -12Q192 -12 150 11Q104 35 92 79H90L35 -198ZM250 63Q342 63 402 146Q455 221 455 317Q455 454 321 454Q232 454 173 367Q120 290 120 197Q120 136 155 100T250 63Z"  />
<glyph unicode="&#xFF;" horiz-adv-x="481" d="M163 -87Q158 -96 130 -136Q78 -210 -3 -210Q-42 -210 -63 -197L-48 -128Q-25 -142 1 -142Q42 -142 80 -89Q107 -44 133 0L42 517H133L193 106H195L412 517H505L163 -87ZM247 602H158L179 706H268L247 602ZM410 602H321L342 706H431L410 602Z"  />
<glyph unicode="&#x131;" horiz-adv-x="222" d="M80 0H-5L103 517H188L80 0Z"  />
<glyph unicode="&#x141;" horiz-adv-x="556" d="M480 0H7L57 234L-21 187L-4 269L74 317L157 714H252L183 384L404 520L387 437L166 302L120 80H497L480 0Z"  />
<glyph unicode="&#x142;" horiz-adv-x="222" d="M80 0H-5L63 322L-7 268L3 345L77 402L145 714H230L176 477L245 532L235 454L161 397L80 0Z"  />
<glyph unicode="&#x152;" horiz-adv-x="1074" d="M963 0H488L501 57H499Q439 -17 323 -17Q193 -17 118 70T42 300Q42 469 144 596Q253 731 418 731Q484 731 540 706T624 634L640 714H1106L1090 634H711L663 407H1010L994 327H647L595 80H979L963 0ZM595 542Q595 588 531 622Q475 651 425 651Q290 651 209 535Q137 432 137 292Q137 193 189 128T328 63Q391 63 437 91T505 156Q524 188 537 252L595 542Z"  />
<glyph unicode="&#x153;" horiz-adv-x="907" d="M838 163Q779 -12 588 -12Q450 -12 409 90Q382 42 332 15T225 -12Q17 -12 17 191Q17 321 95 421Q179 529 306 529Q443 529 479 428Q536 529 669 529Q768 529 820 473Q869 420 869 325Q869 280 858 233H479Q472 200 472 180Q472 63 603 63Q652 63 692 89T751 163H838ZM230 63Q324 63 375 162Q417 241 417 344Q417 396 384 425T296 454Q210 454 152 365Q102 286 102 195Q102 136 136 100T230 63ZM782 308L783 320Q784 332 784 337Q784 388 754 420Q721 454 666 454Q602 454 555 415T492 308H782Z"  />
<glyph unicode="&#x160;" horiz-adv-x="648" d="M612 503H518V510Q518 581 479 616T354 651Q321 651 291 644T238 621T202 584T188 534Q188 488 217 462T308 418L388 396Q500 366 536 318Q573 271 573 201Q573 104 491 42Q408 -17 294 -17Q160 -17 87 41T13 208V225L14 234H108V222Q108 140 155 102T298 63Q338 63 371 72T428 100T465 143T478 200Q478 261 423 289Q371 316 280 337Q190 357 142 403T94 524Q94 618 169 674Q245 731 354 731Q411 731 458 716T540 673T593 605T612 512V503ZM422 779H336L259 922H335L386 829L479 922H557L422 779Z"  />
<glyph unicode="&#x161;" horiz-adv-x="481" d="M355 365V374Q355 408 325 431T247 454Q138 454 138 388Q138 364 158 347T240 306Q325 272 354 252Q411 211 411 148Q411 75 351 32T199 -12Q-9 -12 -9 163H76V155Q76 63 208 63Q261 63 293 84T326 142Q326 175 271 205Q258 213 185 242T83 302T53 380Q53 446 109 487T245 529Q333 529 386 486T440 365H355ZM315 589H229L152 732H228L279 639L372 732H450L315 589Z"  />
<glyph unicode="&#x178;" horiz-adv-x="611" d="M286 0H193L254 287L66 714H167L313 368L584 714H694L348 287L286 0ZM348 792H259L280 896H369L348 792ZM511 792H422L443 896H532L511 792Z"  />
<glyph unicode="&#x17D;" horiz-adv-x="611" d="M529 0H-38L-21 79L515 634H106L126 714H647L630 633L90 80H546L529 0ZM419 779H333L256 922H332L383 829L476 922H554L419 779Z"  />
<glyph unicode="&#x17E;" horiz-adv-x="444" d="M368 0H-53L-41 64L319 442H41L56 517H449L436 456L73 75H382L368 0ZM295 589H209L132 732H208L259 639L352 732H430L295 589Z"  />
<glyph unicode="&#x192;" horiz-adv-x="556" d="M198 -25Q180 -88 160 -113Q118 -165 37 -165Q15 -165 -19 -160L2 -86Q30 -90 32 -90Q93 -90 117 -7L227 381H132L150 449H245L290 609Q320 714 446 714Q471 714 512 706L492 633Q477 639 452 639Q414 639 396 624T367 572L332 449H443L425 381H314L198 -25Z"  />
<glyph unicode="&#x2C6;" horiz-adv-x="222" d="M364 589H290L239 682L152 589H70L203 732H289L364 589Z"  />
<glyph unicode="&#x2C7;" horiz-adv-x="222" d="M268 589H182L105 732H181L232 639L325 732H403L268 589Z"  />
<glyph unicode="&#x2C9;" horiz-adv-x="222" d="M362 627H92L104 682H373L362 627Z"  />
<glyph unicode="&#x2D8;" horiz-adv-x="222" d="M394 730Q385 666 340 629T228 591Q93 591 93 720V730H138Q138 646 231 646Q324 646 349 730H394Z"  />
<glyph unicode="&#x2D9;" horiz-adv-x="222" d="M264 602H175L196 706H285L264 602Z"  />
<glyph unicode="&#x2DA;" horiz-adv-x="222" d="M352 680Q352 634 318 601T239 567Q193 567 160 601T126 680Q126 726 160 759T239 793Q285 793 318 759T352 680ZM239 612Q268 612 287 631T307 680Q307 709 288 728T238 748Q210 748 191 729T171 680Q171 651 190 632T239 612Z"  />
<glyph unicode="&#x2DB;" horiz-adv-x="222" d="M98 -152Q51 -210 -17 -210Q-57 -210 -81 -190T-105 -135Q-105 -104 -79 -74T15 0H75Q-34 -80 -34 -124Q-34 -160 4 -160Q36 -160 70 -130L98 -152Z"  />
<glyph unicode="&#x2DC;" horiz-adv-x="222" d="M411 718Q379 607 299 607Q272 607 207 635Q182 646 162 646Q127 646 109 604H57Q90 714 173 714Q199 714 244 694T309 674Q341 674 359 718H411Z"  />
<glyph unicode="&#x2DD;" horiz-adv-x="222" d="M123 589H53L146 732H259L123 589ZM289 589H219L312 732H425L289 589Z"  />
<glyph unicode="&#x3C0;" horiz-adv-x="658" d="M532 1Q493 -12 461 -12Q383 -12 383 59Q383 73 388 96L462 442H225L131 0H46L140 442H35L51 517H666L650 442H547L477 115Q474 101 474 93Q474 62 510 62Q526 62 546 67L532 1Z"  />
<glyph unicode="&#x66D;" horiz-adv-x="775" d="M314 354L387 581L461 354H700L507 209L583 -16L387 121L192 -16L268 209L76 354H314Z"  />
<glyph unicode="&#xE01;" horiz-adv-x="585" d="M469 0H379L457 369Q460 383 460 398Q460 444 427 469T335 495Q198 495 158 401L157 397H241L230 345Q161 334 144 251L91 0H1L51 236Q69 323 149 351V354H60L70 402Q98 478 167 523Q240 571 344 571Q439 571 497 522Q552 476 552 407Q552 392 548 373L469 0Z"  />
<glyph unicode="&#xE02;" horiz-adv-x="508" d="M427 161Q390 -12 197 -12Q119 -12 70 25T21 127Q21 142 25 162L40 236Q51 289 92 335Q128 368 163 402T199 465Q199 487 173 487H94L109 561H202Q285 561 285 488Q285 438 249 390Q240 379 179 317Q138 276 132 245L115 165Q112 151 112 141Q112 105 137 85T205 64Q316 64 337 165L421 561H512L427 161Z"  />
<glyph unicode="&#xE03;" horiz-adv-x="508" d="M427 161Q390 -12 197 -12Q119 -12 70 25T21 127Q21 143 25 162L40 235Q51 288 94 335Q131 368 167 402T204 466Q204 488 181 488Q157 488 148 468H91L111 563H139Q162 563 175 549T189 516H196L218 563H226Q256 563 273 543T290 490Q290 439 253 391Q244 380 180 317Q139 276 132 245L115 165Q112 151 112 141Q112 105 137 85T205 64Q316 64 337 165L421 561H512L427 161Z"  />
<glyph unicode="&#xE04;" horiz-adv-x="600" d="M484 0H394L470 357Q473 371 473 385Q473 433 440 463Q404 495 337 495Q263 495 215 453Q175 417 162 357L134 225H137Q179 300 268 300H329L311 218H248Q193 218 155 181T104 87L86 0H-4L73 361Q93 453 157 508Q230 571 348 571Q441 571 503 520T565 395Q565 380 561 361L484 0Z"  />
<glyph unicode="&#xE05;" horiz-adv-x="617" d="M501 0H411L496 402Q499 418 499 431Q499 487 452 487Q392 487 369 402H298Q300 412 300 430Q300 487 253 487Q225 487 202 464T171 402L134 225H137Q179 300 268 300H329L311 218H248Q193 218 155 181T104 87L86 0H-4L80 394Q98 477 145 524T256 571Q330 571 349 504H353Q398 571 475 571Q527 571 558 535T590 440Q590 417 585 394L501 0Z"  />
<glyph unicode="&#xE06;" horiz-adv-x="593" d="M517 184Q475 -12 287 -12Q166 -12 109 78L105 76L89 0H-1L53 256Q64 310 102 350Q133 378 164 407T196 466Q196 488 173 488Q150 488 139 468H82L103 563H131Q154 563 167 549T181 516H188L210 563H218Q281 563 281 490Q281 447 250 406Q247 402 190 340Q154 302 147 271L137 227Q133 209 133 195Q133 138 174 101T277 64Q401 64 430 199L507 561H597L517 184Z"  />
<glyph unicode="&#xE07;" horiz-adv-x="558" d="M243 77Q309 112 368 180Q454 278 454 381Q454 494 361 494Q339 494 315 488L331 561Q361 569 390 569Q464 569 504 523T545 386Q545 257 446 141Q367 49 265 0H158L61 561H150L229 77H243Z"  />
<glyph unicode="&#xE08;" horiz-adv-x="539" d="M236 77Q304 108 364 178Q439 267 439 361Q439 426 403 460T303 495Q175 495 135 392H45Q103 571 309 571Q412 571 471 517T531 372Q531 238 432 130Q353 44 242 0H154L97 190Q90 212 66 212H37L51 280H110Q164 280 179 226L220 77H236Z"  />
<glyph unicode="&#xE09;" horiz-adv-x="608" d="M491 0H403L421 88L420 90Q340 -12 216 -12Q149 -12 109 17Q64 49 64 111Q64 131 69 155L79 202Q80 205 80 210Q80 227 60 227H48L62 294H121Q179 294 179 240Q179 230 177 221L165 166Q161 148 161 132Q161 64 246 64Q319 64 381 121Q438 173 452 238L475 344Q479 362 479 382Q479 438 440 467Q405 495 344 495Q212 495 173 392H83Q110 473 182 522T356 571Q456 571 513 523T570 394Q570 369 565 346L491 0Z"  />
<glyph unicode="&#xE0A;" horiz-adv-x="543" d="M422 384Q496 355 496 264Q496 136 420 62T215 -12Q123 -12 71 31Q22 70 22 134Q22 151 26 168L40 236Q51 287 91 333Q126 367 160 401T195 465Q195 488 169 488H94L109 561H201Q280 561 280 490Q280 438 246 393Q237 381 179 324Q141 285 134 254L117 175Q114 159 114 146Q114 64 218 64Q312 64 361 122Q404 175 404 264Q404 349 338 349H311L328 428H352Q436 428 454 514L464 561H554L544 514Q521 404 423 388L422 384Z"  />
<glyph unicode="&#xE0B;" horiz-adv-x="545" d="M422 384Q496 355 496 264Q496 136 420 62T215 -12Q123 -12 73 29T22 134Q22 151 26 168L40 235Q51 288 94 335Q130 368 166 402T202 466Q202 488 180 488Q157 488 146 468H89L109 563H137Q184 563 188 516H195L216 563H224Q254 563 271 543T288 490Q288 440 251 393Q243 382 180 318Q139 276 132 245L117 175Q114 159 114 146Q114 64 218 64Q312 64 361 122Q404 175 404 264Q404 349 338 349H311L328 428H352Q436 428 454 514L464 561H554L544 514Q521 404 423 388L422 384Z"  />
<glyph unicode="&#xE0C;" horiz-adv-x="930" d="M854 186Q832 84 762 31Q704 -12 633 -12Q506 -12 471 79L469 77L452 0H363L441 369Q444 383 444 395Q444 441 406 469Q372 495 322 495Q198 495 158 401L157 397H241L230 345Q161 334 144 251L117 121Q115 111 115 106Q115 72 156 72H195L179 0H109Q69 0 45 25T21 85Q21 95 23 104L51 236Q69 323 149 351V354H60L70 402Q98 478 164 523Q234 571 334 571Q415 571 473 527Q535 479 535 405Q535 387 532 373L504 244Q499 221 499 197Q499 139 529 103Q561 64 621 64Q738 64 767 202L843 561H934L854 186Z"  />
<glyph unicode="&#xE0D;" horiz-adv-x="930" d="M836 103Q813 -4 747 -65Q675 -133 561 -133Q478 -133 433 -109Q370 -74 365 14H455Q458 -59 559 -59Q711 -59 746 100L758 155H755Q727 109 677 80T569 51Q499 51 457 81Q408 116 408 187Q408 213 414 241L441 369Q444 383 444 394Q444 441 408 468T322 495Q198 495 158 401L157 397H241L230 345Q161 334 144 251L117 121Q115 111 115 106Q115 72 156 72H195L179 0H109Q69 0 45 25T21 85Q21 95 23 104L51 236Q69 323 149 351V354H60L70 402Q98 478 164 523Q234 571 334 571Q415 571 473 526Q535 479 535 405Q535 387 532 373L508 261Q502 233 502 211Q502 127 590 127Q660 127 718 185T792 320L843 561H933L836 103Z"  />
<glyph unicode="&#xE0E;" horiz-adv-x="600" d="M471 -61Q440 -209 294 -209Q223 -209 192 -154L184 -140L95 -202H-1L15 -128H83L216 -41L242 -98Q259 -135 295 -135Q324 -135 349 -112T384 -48L472 369Q475 383 475 398Q475 444 442 469T350 495Q213 495 173 401L172 397H266L255 345Q187 334 169 251L137 100Q116 0 29 0H-28L-13 72H3Q41 72 49 108L76 236Q94 323 174 351V354H75L85 402Q113 478 182 523Q255 571 359 571Q454 571 512 522Q567 476 567 407Q567 392 563 373L471 -61Z"  />
<glyph unicode="&#xE0F;" horiz-adv-x="600" d="M471 -61Q456 -130 407 -169T291 -209Q220 -209 195 -156L121 -203L102 -168L46 -202H-42L-26 -128H46L138 -67L160 -109L225 -69L243 -108Q255 -135 291 -135Q365 -135 383 -52L472 369Q475 383 475 398Q475 444 442 469T350 495Q213 495 173 401L172 397H266L255 345Q187 334 169 251L137 100Q116 0 29 0H-28L-13 72H3Q41 72 49 108L76 236Q94 323 174 351V354H75L85 402Q113 478 182 523Q255 571 359 571Q454 571 512 522Q567 476 567 407Q567 392 563 373L471 -61Z"  />
<glyph unicode="&#xE10;" horiz-adv-x="549" d="M246 77Q314 108 374 178Q449 267 449 361Q449 426 413 460T313 495Q185 495 145 392H55Q113 571 319 571Q403 571 449 536L508 593H615L503 487Q541 441 541 372Q541 238 442 130Q363 44 252 0H164L107 190Q100 212 76 212H47L61 280H120Q174 280 189 226L230 77H246ZM400 -89Q388 -142 348 -174Q305 -209 244 -209Q168 -209 141 -156L133 -140L44 -202H-41L-25 -128H30L164 -42L190 -98Q207 -134 245 -134Q274 -134 294 -120T319 -82L321 -71H404L400 -89Z"  />
<glyph unicode="&#xE11;" horiz-adv-x="602" d="M486 0H396L472 359Q479 392 479 419Q479 495 408 495Q332 495 248 412T146 245L94 0H4L56 244Q67 298 103 344Q133 376 163 408T193 465Q193 487 171 487Q148 487 137 467H79L99 561H132Q180 561 182 515H188L211 561H219Q279 561 279 507Q279 498 277 489H279Q346 571 447 571Q508 571 542 538T576 445Q576 421 570 393L486 0Z"  />
<glyph unicode="&#xE12;" horiz-adv-x="985" d="M908 184Q866 -13 689 -13Q562 -13 520 79L517 77L501 0H411L496 400Q500 418 500 433Q500 487 457 487Q401 487 375 402H303Q306 423 306 438Q306 487 264 487Q194 487 150 389Q113 306 113 214Q113 140 146 102T235 64Q275 64 310 75L294 1Q252 -12 198 -12Q120 -12 72 46Q21 107 21 212Q21 352 91 459Q166 571 275 571Q349 571 357 504H361Q402 571 477 571Q527 571 559 534T591 441Q591 422 587 402L553 244Q549 225 549 204Q549 145 583 106Q619 64 680 64Q793 64 822 200L899 561H988L908 184Z"  />
<glyph unicode="&#xE13;" horiz-adv-x="930" d="M812 0H718L737 88L735 90Q666 -12 542 -12Q478 -12 438 20Q394 55 394 123Q394 148 400 176L441 369Q444 383 444 395Q444 441 406 469Q372 495 322 495Q198 495 158 401L157 397H241L230 345Q161 334 144 251L117 121Q115 111 115 106Q115 72 156 72H195L179 0H109Q69 0 45 25T21 85Q21 95 23 104L51 236Q69 323 149 351V354H60L70 402Q98 478 164 523Q234 571 334 571Q415 571 473 527Q535 479 535 405Q535 387 532 373L493 192Q488 169 488 146Q488 64 579 64Q648 64 704 123Q756 178 773 256L838 561H932L812 0Z"  />
<glyph unicode="&#xE14;" horiz-adv-x="614" d="M498 0H408L483 355Q486 369 486 385Q486 434 453 464T360 495Q256 495 182 414T107 216Q107 64 230 64Q271 64 306 75L290 1Q250 -12 201 -12Q122 -12 70 44Q15 103 15 202Q15 357 115 464T369 571Q464 571 523 521Q579 472 579 399Q579 383 575 364L498 0Z"  />
<glyph unicode="&#xE15;" horiz-adv-x="632" d="M516 0H426L511 400Q514 414 514 430Q514 487 467 487Q406 487 380 402H308Q311 419 311 432Q311 487 264 487Q197 487 150 399Q108 319 108 221Q108 64 229 64Q270 64 305 75L289 1Q244 -12 197 -12Q116 -12 66 46T16 206Q16 358 88 464T268 571Q305 571 330 553T362 504H366Q407 571 487 571Q542 571 573 536T605 444Q605 424 600 400L516 0Z"  />
<glyph unicode="&#xE16;" horiz-adv-x="591" d="M475 0H385L463 369Q466 383 466 395Q466 442 427 470Q391 495 335 495Q198 495 158 401L157 397H241L230 345Q161 334 144 251L117 121Q115 111 115 106Q115 72 156 72H195L179 0H109Q69 0 45 25T21 85Q21 95 23 104L51 236Q69 323 149 351V354H60L70 402Q98 478 167 523Q241 571 344 571Q435 571 496 526T557 404Q557 387 554 373L475 0Z"  />
<glyph unicode="&#xE17;" horiz-adv-x="596" d="M480 0H390L467 363Q473 391 473 409Q473 495 370 495Q299 495 238 445Q172 391 153 304L88 0H-2L117 561H207L187 468H190Q219 507 268 535Q331 571 405 571Q470 571 516 536Q568 497 568 431Q568 413 564 394L480 0Z"  />
<glyph unicode="&#xE18;" horiz-adv-x="571" d="M493 159Q476 70 417 29T243 -12Q146 -12 88 22Q26 58 26 123Q26 140 29 154L42 215H132L120 159Q118 150 118 141Q118 64 241 64Q383 64 401 150L407 179Q409 189 409 199Q409 245 340 261L169 301Q80 322 80 409Q80 474 128 517T261 561H564L545 475H235Q207 475 190 461T173 423Q173 385 223 373L416 328Q502 308 502 220Q502 206 499 190L493 159Z"  />
<glyph unicode="&#xE19;" horiz-adv-x="593" d="M475 0H385L403 82L401 84Q319 -12 202 -12Q29 -12 29 128Q29 153 36 186L116 561H206L129 200Q124 177 124 157Q124 64 228 64Q300 64 362 117Q421 168 436 237L505 561H595L475 0Z"  />
<glyph unicode="&#xE1A;" horiz-adv-x="592" d="M518 200Q495 93 419 38Q349 -12 243 -12Q157 -12 100 27Q33 71 33 153Q33 177 38 200L115 561H205L128 200Q124 181 124 164Q124 64 245 64Q399 64 428 200L505 561H595L518 200Z"  />
<glyph unicode="&#xE1B;" horiz-adv-x="592" d="M518 200Q495 93 419 38Q349 -12 243 -12Q157 -12 100 27Q33 71 33 153Q33 177 38 200L115 561H205L128 200Q124 181 124 164Q124 64 245 64Q399 64 428 200L545 751H635L518 200Z"  />
<glyph unicode="&#xE1C;" horiz-adv-x="742" d="M660 160Q624 -12 464 -12Q348 -12 334 77H330Q279 -11 168 -11Q101 -11 63 23T25 116Q25 136 30 160L115 561H270L254 487H189L116 144Q114 135 114 127Q114 100 133 82T185 64Q227 64 258 89T299 160L384 561H476L391 160Q388 146 388 135Q388 64 467 64Q549 64 566 144L655 561H745L660 160Z"  />
<glyph unicode="&#xE1D;" horiz-adv-x="742" d="M660 160Q624 -12 464 -12Q348 -12 334 77H330Q279 -11 168 -11Q101 -11 63 23T25 116Q25 136 30 160L115 561H270L254 487H189L116 144Q114 135 114 127Q114 100 133 82T185 64Q227 64 258 89T299 160L384 561H476L391 160Q388 146 388 135Q388 64 467 64Q549 64 566 144L696 756H786L660 160Z"  />
<glyph unicode="&#xE1E;" horiz-adv-x="726" d="M521 0H416L395 439H393L189 0H84L71 561H160L156 115H162L369 561H468L484 115H490L684 561H773L521 0Z"  />
<glyph unicode="&#xE1F;" horiz-adv-x="717" d="M516 0H408L383 439H381L181 0H76L71 561H160L149 121H155L358 561H460L479 121H485L723 756H815L516 0Z"  />
<glyph unicode="&#xE20;" horiz-adv-x="600" d="M484 0H394L472 369Q475 383 475 398Q475 444 442 469T350 495Q213 495 173 401L172 397H266L255 345Q187 334 169 251L137 100Q116 0 29 0H-28L-13 72H3Q41 72 49 108L76 236Q94 323 174 351V354H75L85 402Q113 478 182 523Q255 571 359 571Q454 571 512 522Q567 476 567 407Q567 392 563 373L484 0Z"  />
<glyph unicode="&#xE21;" horiz-adv-x="593" d="M516 184Q474 -12 286 -12Q165 -12 108 78L104 76L88 0H-2L117 561H207L136 227Q132 208 132 195Q132 138 173 101T276 64Q400 64 429 199L506 561H596L516 184Z"  />
<glyph unicode="&#xE22;" horiz-adv-x="570" d="M452 0H148Q86 0 46 37T5 133Q5 197 47 241Q86 282 149 294L150 297Q79 315 79 400Q79 471 127 516T256 561H342L326 487H266Q217 487 187 461T157 394Q157 366 176 350T226 334H321L304 258H225Q175 258 140 226T104 152Q104 76 186 76H378L481 561H571L452 0Z"  />
<glyph unicode="&#xE23;" horiz-adv-x="509" d="M345 295Q452 257 452 163Q452 83 385 36T219 -12Q105 -12 49 38Q5 77 5 135Q5 149 6 155H96Q95 150 95 141Q95 64 217 64Q279 64 317 85Q359 110 359 157Q359 200 284 227L167 269Q70 304 70 390Q70 479 141 528Q205 571 305 571Q412 571 462 514Q496 475 496 426Q496 415 495 412H405Q406 417 406 427Q406 495 299 495Q246 495 209 475Q161 450 161 402Q161 377 181 361Q198 347 241 332L345 295Z"  />
<glyph unicode="&#xE24;" horiz-adv-x="591" d="M433 -200H343L463 369Q466 383 466 395Q466 442 427 470Q391 495 335 495Q198 495 158 401L157 397H241L230 345Q161 334 144 251L117 121Q115 111 115 106Q115 72 156 72H195L179 0H109Q69 0 45 25T21 85Q21 95 23 104L51 236Q69 323 149 351V354H60L70 402Q98 478 167 523Q241 571 344 571Q435 571 496 526T557 404Q557 389 554 373L433 -200Z"  />
<glyph unicode="&#xE25;" horiz-adv-x="567" d="M451 0H361L419 275Q398 261 238 241Q88 222 88 138Q88 64 174 64Q217 64 252 74L237 2Q192 -12 145 -12Q77 -12 36 24T-5 127Q-5 187 31 231Q84 295 206 310L374 330Q404 334 428 359T453 422Q453 495 332 495Q207 495 172 392H82Q129 571 342 571Q427 571 483 535Q541 496 541 435Q541 422 538 408L451 0Z"  />
<glyph unicode="&#xE26;" horiz-adv-x="600" d="M442 -200H352L472 369Q475 383 475 398Q475 444 442 469T350 495Q213 495 173 401L172 397H266L255 345Q187 334 169 251L137 100Q116 0 29 0H-28L-13 72H3Q41 72 49 108L76 236Q94 323 174 351V354H75L85 402Q113 478 182 523Q255 571 359 571Q454 571 512 522Q567 476 567 407Q567 392 563 373L442 -200Z"  />
<glyph unicode="&#xE27;" horiz-adv-x="544" d="M94 151Q101 64 205 64Q303 64 367 150Q428 231 428 347Q428 419 394 457T303 495Q179 495 139 392H48Q76 472 142 519Q214 571 311 571Q408 571 464 512T521 354Q521 202 440 101Q350 -12 196 -12Q106 -12 55 33T3 151H94Z"  />
<glyph unicode="&#xE28;" horiz-adv-x="600" d="M484 0H394L470 357Q473 372 473 386Q473 434 440 463Q403 495 337 495Q263 495 215 453Q175 417 162 357L134 225H137Q179 300 268 300H329L311 218H248Q193 218 155 181T104 87L86 0H-4L73 361Q93 453 157 508Q230 571 348 571Q438 571 489 525L559 593H666L538 474Q565 441 565 395Q565 378 561 361L484 0Z"  />
<glyph unicode="&#xE29;" horiz-adv-x="604" d="M524 200Q501 93 424 38Q353 -12 246 -12Q160 -12 101 27Q33 71 33 154Q33 176 38 200L115 561H205L128 200Q124 182 124 165Q124 116 159 89Q191 64 248 64Q405 64 434 200L452 285H306L322 360H468L511 561H601L558 360H616L600 285H542L524 200Z"  />
<glyph unicode="&#xE2A;" horiz-adv-x="567" d="M451 0H361L419 275Q398 261 238 241Q171 233 140 218Q88 192 88 137Q88 64 174 64Q217 64 252 74L237 2Q192 -12 145 -12Q77 -12 36 24T-5 127Q-5 187 31 231Q84 295 206 310L374 330Q404 334 428 359T453 422Q453 495 332 495Q207 495 172 392H82Q129 571 342 571Q419 571 468 539L526 593H633L521 491Q541 467 541 433Q541 421 538 408L451 0Z"  />
<glyph unicode="&#xE2B;" horiz-adv-x="578" d="M462 0H372L412 189Q418 217 418 238Q418 277 394 293T315 310H154L88 0H-2L117 561H207L170 386H319Q455 386 483 522L491 561H581L573 523Q542 377 419 357L418 355Q510 336 510 241Q510 223 505 200L462 0Z"  />
<glyph unicode="&#xE2C;" horiz-adv-x="746" d="M660 160Q623 -12 464 -12Q348 -12 334 77H330Q279 -11 168 -11Q101 -11 63 23T25 116Q25 136 30 160L115 561H205L116 144Q114 135 114 127Q114 100 133 82T185 64Q227 64 258 89T299 160L384 561H476L391 160Q388 146 388 135Q388 64 467 64Q549 64 566 144L617 382Q621 401 621 413Q621 452 579 452H548L563 522H584Q646 522 664 605L676 661H766L754 604Q733 505 660 492L659 488Q710 467 710 410Q710 394 707 380L660 160Z"  />
<glyph unicode="&#xE2D;" horiz-adv-x="601" d="M234 228H112Q109 209 109 192Q109 130 146 97T247 64Q357 64 420 140T483 342Q483 414 442 454T332 495Q192 495 154 392H63Q89 473 164 522T344 571Q450 571 513 509T577 341Q577 171 479 76Q390 -12 248 -12Q138 -12 78 43T17 194Q17 257 39 301H250L234 228Z"  />
<glyph unicode="&#xE2E;" horiz-adv-x="601" d="M666 598L535 476Q577 420 577 341Q577 171 479 76Q390 -12 248 -12Q138 -12 78 43T17 194Q17 257 39 301H250L234 228H112Q109 209 109 192Q109 130 146 97T247 64Q357 64 420 140T483 342Q483 414 442 454T332 495Q192 495 154 392H63Q89 473 164 522T344 571Q429 571 484 527L559 598H666Z"  />
<glyph unicode="&#xE2F;" horiz-adv-x="607" d="M437 0H347L425 367Q358 277 244 277Q177 277 135 315Q88 356 88 432Q88 462 95 495L109 561H197L189 522Q181 483 181 450Q181 354 271 354Q339 354 391 403T459 531L465 561H556L437 0Z"  />
<glyph unicode="&#xE30;" horiz-adv-x="311" d="M287 387H52L78 508H165L155 461H319L318 457L287 387ZM222 82H-13L13 203H100L90 156H254L253 152L222 82Z"  />
<glyph unicode="&#xE31;" horiz-adv-x="0" d="M146 631H-124Q-221 631 -221 705Q-221 719 -218 732L-209 772H-125L-131 744Q-133 735 -133 731Q-133 702 -88 702H185V698L146 631Z"  />
<glyph unicode="&#xE32;" horiz-adv-x="491" d="M376 0H285L369 394Q371 403 371 416Q371 455 340 475T259 495Q151 495 125 412H35Q79 571 270 571Q350 571 404 536Q464 497 464 431Q464 414 461 400L376 0Z"  />
<glyph unicode="&#xE33;" horiz-adv-x="491" d="M376 0H285L369 394Q371 403 371 416Q371 455 340 475T259 495Q151 495 125 412H35Q79 571 270 571Q350 571 404 536Q464 497 464 431Q464 414 461 400L376 0ZM61 704Q61 659 27 629T-61 598Q-102 598 -127 621T-153 676Q-153 719 -118 750T-30 782Q10 782 35 759T61 704ZM-16 661Q1 676 1 697Q1 733 -37 733Q-59 733 -76 718T-93 683Q-93 647 -55 647Q-33 647 -16 661Z"  />
<glyph unicode="&#xE34;" horiz-adv-x="0" d="M18 631H-436L-434 641L-394 702H33L18 631Z"  />
<glyph unicode="&#xE35;" horiz-adv-x="0" d="M18 631H-436L-434 641L-394 702H-54L-39 772H48L18 631Z"  />
<glyph unicode="&#xE36;" horiz-adv-x="0" d="M-137 702Q-129 739 -100 764T-30 789Q6 789 28 771T50 723Q50 681 20 656T-61 631H-441L-439 641L-399 702H-137ZM-48 674Q-30 674 -18 686T-6 715Q-6 744 -37 744Q-81 744 -81 702Q-81 674 -48 674Z"  />
<glyph unicode="&#xE37;" horiz-adv-x="0" d="M18 631H-441L-439 641L-399 702H-173L-158 772H-76L-91 702H-47L-32 772H48L18 631Z"  />
<glyph unicode="&#xE38;" horiz-adv-x="0" d="M-167 -238L-235 -264H-253L-224 -127H-274L-261 -64H-130L-167 -238Z"  />
<glyph unicode="&#xE39;" horiz-adv-x="0" d="M-149 -153Q-172 -260 -298 -260Q-411 -260 -411 -179Q-411 -167 -408 -154L-402 -127H-450L-437 -64H-309L-326 -146Q-328 -156 -328 -165Q-328 -199 -290 -199Q-242 -199 -231 -146L-214 -64H-130L-149 -153Z"  />
<glyph unicode="&#xE3A;" horiz-adv-x="0" d="M-123 -117Q-123 -146 -147 -168T-201 -190Q-224 -190 -238 -175T-253 -137Q-253 -108 -230 -86T-174 -64Q-152 -64 -138 -79T-123 -117Z"  />
<glyph unicode="&#xE3F;" horiz-adv-x="562" d="M215 -99H160L181 0H-17L133 704H331L350 797H405L386 704Q470 704 520 663T571 551Q571 416 448 371Q484 358 508 328Q538 292 538 244Q538 130 463 65T255 0H236L215 -99ZM277 81Q356 81 401 124T446 234Q446 329 315 329H306L253 81H277ZM198 81L251 329H141L88 81H198ZM322 405Q480 405 480 538Q480 624 369 624L322 405ZM267 405L314 624H204L157 405H267Z"  />
<glyph unicode="&#xE40;" horiz-adv-x="246" d="M144 0H77Q13 0 13 60Q13 75 15 84L117 561H207L110 103Q108 94 108 90Q108 72 135 72H159L144 0Z"  />
<glyph unicode="&#xE41;" horiz-adv-x="469" d="M144 0H77Q13 0 13 60Q13 75 15 84L117 561H207L110 103Q108 94 108 90Q108 72 135 72H159L144 0ZM367 0H300Q236 0 236 60Q236 75 238 84L340 561H430L333 103Q331 94 331 90Q331 72 358 72H382L367 0Z"  />
<glyph unicode="&#xE42;" horiz-adv-x="272" d="M171 0H104Q40 0 40 60Q40 75 42 84L162 645Q168 673 168 697Q168 813 67 842L70 858Q75 886 100 903T156 920H475L459 845L179 847L178 844Q213 826 235 785T257 693Q257 668 251 640L137 103Q135 94 135 90Q135 72 162 72H186L171 0Z"  />
<glyph unicode="&#xE43;" horiz-adv-x="278" d="M178 0H111Q47 0 47 60Q47 75 49 84L158 594Q168 643 213 687Q250 719 288 752T326 814Q326 858 246 858Q150 858 124 782H37Q57 853 114 891T254 930Q331 930 376 897Q416 866 416 820Q416 776 377 737Q339 704 301 672Q256 632 248 593L144 103Q142 94 142 90Q142 72 169 72H193L178 0Z"  />
<glyph unicode="&#xE44;" horiz-adv-x="283" d="M182 0H115Q51 0 51 60Q51 75 53 84L170 632Q205 794 343 842V845H65L69 863L103 920H466L450 845Q382 828 330 773T263 645L148 103Q146 94 146 90Q146 72 173 72H197L182 0Z"  />
<glyph unicode="&#xE45;" horiz-adv-x="491" d="M333 -200H242L369 394Q371 403 371 416Q371 455 340 475T259 495Q151 495 125 412H35Q79 571 270 571Q350 571 404 536Q464 497 464 431Q464 414 461 400L333 -200Z"  />
<glyph unicode="&#xE46;" horiz-adv-x="586" d="M405 -200H316L444 404Q448 423 448 438Q448 489 405 489Q347 489 332 416H266Q269 428 269 440Q269 489 224 489Q193 489 170 461T147 388Q147 321 205 321Q229 321 245 329L230 260Q210 249 183 249Q126 249 94 284T62 375Q62 457 108 514T221 571Q258 571 282 552T310 501H315Q354 571 431 571Q482 571 510 539T539 452Q539 430 533 402L405 -200Z"  />
<glyph unicode="&#xE47;" horiz-adv-x="0" d="M19 631H-61Q-117 631 -117 676H-120Q-144 628 -207 628Q-249 628 -274 653T-300 715Q-300 773 -256 808T-137 843H64L51 781H-151Q-184 781 -203 765T-222 724Q-222 689 -187 689Q-144 689 -134 729H-86Q-88 719 -88 716Q-88 691 -59 691H-30L-20 741H42L19 631Z"  />
<glyph unicode="&#xE48;" horiz-adv-x="0" d="M19 631H-67L-37 772H49L19 631Z"  />
<glyph unicode="&#xE49;" horiz-adv-x="0" d="M103 631H-214L-203 684Q-202 687 -202 693Q-202 700 -206 704T-224 709H-258L-243 781H-158Q-138 781 -126 770T-114 739Q-114 735 -116 725L-121 702H145L142 689L103 631Z"  />
<glyph unicode="&#xE4A;" horiz-adv-x="0" d="M71 631H-91L-84 665Q-83 669 -83 677Q-83 700 -107 700Q-127 700 -138 685T-155 649H-213Q-212 654 -212 658T-211 668Q-211 682 -217 690T-238 699Q-251 699 -262 688T-279 650L-283 631H-369L-363 658Q-349 718 -318 744T-245 771Q-210 771 -194 753T-176 711H-174Q-163 739 -137 755T-84 771Q-48 771 -30 750T-17 702H113L111 690L71 631Z"  />
<glyph unicode="&#xE4B;" horiz-adv-x="0" d="M107 691H26L13 631H-68L-55 691H-135L-122 753H-42L-29 812H52L39 753H120L107 691Z"  />
<glyph unicode="&#xE4C;" horiz-adv-x="0" d="M81 697H-19Q-51 697 -64 682T-83 644L-86 631H-170L-168 646Q-160 700 -123 735T-14 770H81L84 712L81 697Z"  />
<glyph unicode="&#xE4D;" horiz-adv-x="0" d="M93 704Q93 659 59 629T-29 598Q-70 598 -95 621T-121 676Q-121 719 -86 750T2 782Q42 782 67 759T93 704ZM16 661Q33 676 33 697Q33 733 -5 733Q-27 733 -44 718T-61 683Q-61 647 -23 647Q-1 647 16 661Z"  />
<glyph unicode="&#xE4E;" horiz-adv-x="0" d="M-56 632Q-79 623 -111 623Q-212 623 -212 701Q-212 743 -182 771T-99 799H-67Q-83 808 -83 831Q-83 856 -64 874T-7 892H87L101 849L99 838H13Q-25 838 -25 807Q-25 784 3 780L-4 748H-86Q-140 748 -140 708Q-140 674 -89 674Q-67 674 -46 680L-56 632Z"  />
<glyph unicode="&#xE4F;" horiz-adv-x="624" d="M424 258Q424 198 383 160T279 121Q236 121 208 150T179 220Q179 278 221 319T324 360Q368 360 396 331T424 258ZM357 184Q389 212 389 254Q389 287 370 306T320 325Q277 325 246 297T214 227Q214 198 234 177T283 156Q326 156 357 184ZM421 122Q487 183 487 270Q487 336 447 377T341 418Q253 418 187 355T120 208Q120 146 160 104T265 62Q355 62 421 122ZM534 278Q534 165 450 88Q370 15 261 15Q180 15 126 68T72 200Q72 307 152 385T346 464Q427 464 480 411T534 278Z"  />
<glyph unicode="&#xE50;" horiz-adv-x="599" d="M477 82Q390 -11 248 -11Q144 -11 85 46T25 192Q25 318 107 407Q196 503 337 503Q440 503 501 442Q558 385 558 296Q558 169 477 82ZM253 62Q362 62 421 137Q470 199 470 288Q470 350 439 387Q403 430 332 430Q224 430 164 353Q114 288 114 200Q114 140 145 104Q181 62 253 62Z"  />
<glyph unicode="&#xE51;" horiz-adv-x="601" d="M232 -12Q336 -5 404 79T472 283Q472 355 433 394Q396 430 333 430Q252 430 190 378Q115 315 115 205Q115 155 138 129Q157 107 186 107Q218 107 240 129Q264 155 264 199Q264 233 255 254H333Q342 235 342 198Q342 131 295 85T179 39Q113 39 71 81Q26 125 26 199Q26 334 117 420Q205 503 338 503Q436 503 496 448Q559 389 559 287Q559 137 464 32T215 -89L232 -12Z"  />
<glyph unicode="&#xE52;" horiz-adv-x="667" d="M573 132Q560 70 514 35T399 0H167Q114 0 83 26T52 100Q52 115 56 134L141 534Q143 543 143 551Q143 571 123 571H113L127 635H163Q236 635 236 567Q236 555 233 541L145 128Q143 119 143 113Q143 67 191 67H409Q469 67 482 128L537 391Q538 396 538 402Q538 429 511 429Q471 429 456 372H413Q415 386 415 392Q415 429 381 429Q343 429 334 388L324 341Q322 332 322 324Q322 284 368 284H389L376 223H343Q295 223 270 246T245 307Q245 319 248 334L263 407Q271 447 303 474T376 502Q443 502 447 445H450Q479 502 547 502Q584 502 607 478T630 418Q630 404 628 394L573 132Z"  />
<glyph unicode="&#xE53;" horiz-adv-x="638" d="M517 0H427L504 363Q506 372 506 380Q506 429 456 429Q392 429 378 365L332 148H249L295 365Q297 374 297 380Q297 429 244 429Q218 429 197 410T170 363L125 154Q122 140 122 126Q122 67 188 67H209L194 0H156Q100 0 66 31T31 115Q31 133 35 152L82 373Q95 432 139 467T244 503Q290 503 318 480Q342 460 347 429H349Q365 461 401 482T484 503Q533 503 565 473T598 396Q598 381 595 367L517 0Z"  />
<glyph unicode="&#xE54;" horiz-adv-x="603" d="M481 0H213Q129 0 83 35T36 135Q36 158 40 177L70 322Q86 398 148 448T296 498H420Q496 498 509 562L524 634H615L602 571Q573 430 434 430H298Q245 430 208 399T159 315L132 189Q128 170 128 154Q128 67 228 67H340Q305 85 305 136Q305 146 308 160L316 198Q336 293 434 293H493L481 235H453Q412 235 403 193L391 136Q389 126 389 122Q389 97 407 82T452 67H495L481 0Z"  />
<glyph unicode="&#xE55;" horiz-adv-x="613" d="M491 0H207Q126 0 81 36T35 136Q35 155 40 178L71 322Q85 389 139 438Q194 491 263 495V499Q263 533 292 560T367 588Q402 588 421 568Q437 550 437 525Q437 510 431 498Q506 498 519 562L534 634H625L612 571Q583 430 444 430H301Q246 430 208 400T159 315L132 189Q128 170 128 155Q128 112 155 90T228 67H350Q315 85 315 136Q315 146 318 160L326 198Q346 293 445 293H503L491 235H463Q422 235 413 193L401 136Q399 126 399 121Q399 96 417 82T462 67H505L491 0ZM371 481Q383 492 383 508Q383 534 357 534Q340 534 329 523T317 496Q317 470 343 470Q360 470 371 481Z"  />
<glyph unicode="&#xE56;" horiz-adv-x="615" d="M536 202Q514 99 444 45Q381 -5 295 -5H230Q160 -5 110 32T60 132Q60 150 63 164L74 216H164L153 165Q150 151 150 142Q150 103 180 82Q207 63 249 63H282Q343 63 388 101T447 204L469 307Q472 321 472 337Q472 382 441 408T358 434Q292 434 243 400T173 312H95L142 534Q145 548 145 555Q145 571 125 571H114L127 635H166Q237 635 237 573Q237 560 233 541L211 438L213 436Q236 464 277 483Q326 505 380 505Q463 505 513 462T563 348Q563 327 558 304L536 202Z"  />
<glyph unicode="&#xE57;" horiz-adv-x="805" d="M692 132Q679 69 630 35T512 0H368L384 71Q433 78 442 120L494 367Q496 377 496 383Q496 429 447 429Q387 429 373 365L327 148H244L290 365Q292 374 292 382Q292 429 243 429Q183 429 170 367L125 154Q122 140 122 128Q122 67 188 67H213L198 0H156Q100 0 66 31T31 115Q31 133 35 152L82 376Q94 435 137 469T242 503Q284 503 311 482T342 429H344Q386 503 473 503Q523 503 555 474T588 397Q588 383 585 369L537 146Q523 82 470 68H511Q588 68 606 154L688 541Q697 583 728 609T808 635H838L825 571H813Q785 571 777 534L692 132Z"  />
<glyph unicode="&#xE58;" horiz-adv-x="610" d="M260 73Q243 39 209 18T136 -3Q87 -3 57 24T26 95Q26 108 29 122L69 311Q86 392 153 445T313 498H409Q500 498 517 576L530 635H619L606 572Q593 507 546 469T434 430H331Q184 430 157 302L121 132Q119 123 119 112Q119 70 159 69Q185 69 212 97T248 164H312Q309 151 309 139Q309 109 324 91T360 73Q395 73 425 110T455 200Q455 258 408 258H379L393 322H433Q540 322 540 203Q540 123 487 60T356 -3Q315 -3 290 21Q267 42 266 73H260Z"  />
<glyph unicode="&#xE59;" horiz-adv-x="613" d="M437 0H350L327 341Q321 435 254 435Q185 435 166 347L124 150Q120 131 120 116Q120 64 170 64H209L196 0H141Q89 0 59 29T28 106Q28 125 31 139L75 343Q110 506 259 506Q306 506 336 485T373 427Q378 449 396 465T437 481Q480 481 477 445Q506 446 513 479L546 635H636L600 466Q591 424 559 396T488 368H468Q468 400 443 400Q414 400 409 371L437 0Z"  />
<glyph unicode="&#xE5A;" horiz-adv-x="760" d="M590 0H501L620 561H709L590 0ZM437 0H347L425 367Q358 277 244 277Q177 277 135 315Q88 356 88 432Q88 462 95 495L109 561H197L189 522Q181 483 181 450Q181 354 271 354Q339 354 391 403T459 531L465 561H556L437 0Z"  />
<glyph unicode="&#xE5B;" horiz-adv-x="1313" d="M1241 152Q1191 138 1142 138Q1043 138 1018 235L937 79H895L864 283L750 62H703L680 265Q627 151 526 75Q421 -4 312 -4Q213 -4 149 50Q79 110 79 216Q79 347 161 433T367 520Q450 520 497 478T544 364Q544 340 538 311H461Q465 330 465 350Q465 398 438 426T361 454Q277 454 219 392Q158 326 158 224Q158 149 204 107T327 65Q438 65 530 157Q629 255 674 434H723L752 187L862 408H907L931 196L1027 383H1069Q1066 359 1066 337Q1066 195 1163 195Q1188 195 1234 203L1241 152Z"  />
<glyph unicode="&#x2002;" horiz-adv-x="500" />
<glyph unicode="&#x2003;" horiz-adv-x="1000" />
<glyph unicode="&#x2009;" horiz-adv-x="100" />
<glyph unicode="&#x200A;" horiz-adv-x="20" />
<glyph unicode="&#x200B;" horiz-adv-x="0" />
<glyph unicode="&#x200C;" horiz-adv-x="0" d="M-90 1479L0 1389L88 1477L115 1450L27 1362L115 1274L88 1247L0 1333L-90 1246L-117 1274L-29 1362L-117 1450L-90 1479Z"  />
<glyph unicode="&#x200D;" horiz-adv-x="0" d="M77 749V795H-76V749H-99V818H100V749H77Z"  />
<glyph unicode="&#x200E;" horiz-adv-x="0" d="M10 858L26 875L95 806L26 737L10 754L51 795H-75V818H51L10 858Z"  />
<glyph unicode="&#x200F;" horiz-adv-x="0" d="M-10 754L-26 738L-95 806L-26 875L-10 859L-51 818H76V795H-50L-10 754Z"  />
<glyph unicode="&#x2010;" horiz-adv-x="389" d="M316 238H26L42 318H332L316 238Z"  />
<glyph unicode="&#x2013;" horiz-adv-x="500" d="M477 238H-23L-7 318H493L477 238Z"  />
<glyph unicode="&#x2014;" horiz-adv-x="1000" d="M847 238H107L123 318H863L847 238Z"  />
<glyph unicode="&#x2018;" horiz-adv-x="278" d="M222 456H111L130 548Q148 636 184 673Q216 706 277 714L267 666Q210 657 190 567H246L222 456Z"  />
<glyph unicode="&#x2019;" horiz-adv-x="278" d="M258 637Q239 538 201 497Q169 462 107 456L117 504Q146 510 160 526Q180 547 194 603H138L162 714H273L258 637Z"  />
<glyph unicode="&#x201A;" horiz-adv-x="278" d="M116 26Q98 -65 61 -106Q27 -143 -33 -147L-23 -99Q5 -95 21 -77Q40 -55 54 0H-2L22 111H133L116 26Z"  />
<glyph unicode="&#x201C;" horiz-adv-x="426" d="M200 456H89L108 549Q126 637 162 674Q193 706 255 714L245 666Q188 657 168 567H224L200 456ZM382 456H271L289 542Q308 633 341 670T437 714L427 666Q369 658 350 567H406L382 456Z"  />
<glyph unicode="&#x201D;" horiz-adv-x="426" d="M233 623Q215 531 175 492Q143 462 85 456L95 504Q129 508 149 539Q161 559 172 603H116L140 714H251L233 623ZM416 632Q395 531 361 497Q323 459 267 456L277 504Q330 508 354 603H298L322 714H433L416 632Z"  />
<glyph unicode="&#x201E;" horiz-adv-x="426" d="M114 30Q98 -50 71 -89Q34 -143 -36 -147L-26 -99Q4 -94 21 -74T51 0H-5L19 111H130L114 30ZM297 34Q281 -49 254 -88Q218 -141 146 -147L156 -99Q185 -95 202 -75T233 0H177L201 111H312L297 34Z"  />
<glyph unicode="&#x2020;" horiz-adv-x="556" d="M213 -155H128L254 442H63L79 517H270L312 714H397L355 518H546L530 442H339L213 -155Z"  />
<glyph unicode="&#x2021;" horiz-adv-x="556" d="M446 42H255L213 -155H128L170 42H-21L-5 117H186L254 442H63L79 517H270L312 714H397L355 518H546L530 442H339L271 117H462L446 42Z"  />
<glyph unicode="&#x2022;" horiz-adv-x="500" d="M377 231Q325 178 250 178Q175 178 124 230T72 357Q72 429 123 482T250 535Q324 535 376 483T429 357Q429 285 377 231Z"  />
<glyph unicode="&#x2026;" horiz-adv-x="1000" d="M150 0H39L63 111H174L150 0ZM483 0H372L396 111H507L483 0ZM816 0H705L729 111H840L816 0Z"  />
<glyph unicode="&#x202A;" horiz-adv-x="0" d="M-28 795H-85V818H-28V795ZM1 818H51L10 858L26 875L95 806L26 737L10 754L51 795H1V818Z"  />
<glyph unicode="&#x202B;" horiz-adv-x="0" d="M28 818H85V795H28V818ZM-1 795H-50L-10 754L-26 738L-95 806L-26 875L-10 859L-51 818H-1V795Z"  />
<glyph unicode="&#x202C;" horiz-adv-x="0" d="M-52 797L-69 813L0 882L69 813L52 797L11 838V736H-12V837L-52 797Z"  />
<glyph unicode="&#x202D;" horiz-adv-x="0" d="M-37 858L-21 875L48 806L-21 737L-37 754L4 795H-103V818H3L-37 858ZM28 858L44 875L113 806L44 737L28 754L81 806L28 858Z"  />
<glyph unicode="&#x202E;" horiz-adv-x="0" d="M38 754L21 737L-47 806L21 875L38 858L-3 817H104V794H-3L38 754ZM-28 754L-44 737L-113 806L-44 875L-28 858L-80 806L-28 754Z"  />
<glyph unicode="&#x2030;" horiz-adv-x="1074" d="M168 -28H104L539 725H603L168 -28ZM294 422Q247 362 170 362Q48 362 48 501Q48 592 96 650T222 709Q342 709 342 575Q342 482 294 422ZM174 417Q215 417 244 462T274 562Q274 654 215 654Q171 654 141 602Q116 558 116 510Q116 417 174 417ZM619 48Q572 -12 495 -12Q373 -12 373 127Q373 218 420 276T547 335Q667 335 667 201Q667 109 619 48ZM970 49Q923 -12 845 -12Q723 -12 723 127Q723 218 771 276T897 335Q1017 335 1017 201Q1017 110 970 49ZM499 43Q541 43 570 89T599 188Q599 280 540 280Q499 280 470 234T441 134Q441 91 457 67T499 43ZM849 43Q891 43 920 89T949 188Q949 280 890 280Q845 280 816 227Q791 183 791 134Q791 43 849 43Z"  />
<glyph unicode="&#x2039;" horiz-adv-x="259" d="M153 114L30 250L52 342L226 442L205 357L85 289L172 199L153 114Z"  />
<glyph unicode="&#x203A;" horiz-adv-x="259" d="M193 214L19 114L40 199L160 267L73 357L92 441L215 306L193 214Z"  />
<glyph unicode="&#x2044;" horiz-adv-x="167" d="M-102 -28H-166L269 725H333L-102 -28Z"  />
<glyph unicode="&#x20AC;" horiz-adv-x="556" d="M504 32Q419 -17 329 -17Q212 -17 144 59T72 275H-6L27 334H74L82 391H15L48 450H96Q133 575 216 647T409 720Q500 720 586 660L544 585Q479 641 405 641Q253 641 182 450H507L473 391H165L156 334H455L421 275H154Q164 60 340 60Q422 60 525 133L504 32Z"  />
<glyph unicode="&#x2113;" horiz-adv-x="500" d="M466 617Q466 573 447 528T394 439T316 353T221 273Q209 221 202 190T192 140T188 114T187 100Q187 68 203 57T239 45Q260 45 283 54T339 86H341L361 40Q323 12 290 -1T218 -14Q168 -14 138 11T108 86Q108 92 108 99T111 121T119 158T132 220L64 162H62L39 208L147 291L202 549Q220 637 264 679T366 721Q411 721 438 692T466 617ZM399 613Q399 636 388 651T358 667Q335 667 315 645T283 566L236 346Q262 370 290 401T343 468T383 541T399 613Z"  />
<glyph unicode="&#x2122;" horiz-adv-x="990" d="M261 302H193V659H64V714H390V659H261V302ZM926 302H858V646H856L721 302H678L543 646H541V302H473V714H578L701 401L822 714H926V302Z"  />
<glyph unicode="&#x2126;" horiz-adv-x="748" d="M700 452Q700 393 683 341T632 247T552 177T446 139L430 64L624 63L610 0H354L394 185Q446 192 488 214T559 271T604 351T620 449Q620 495 606 532T564 596T499 636T415 650Q355 650 303 625T212 559T152 464T130 351Q130 319 138 291T164 240T206 203T266 185L227 0H-22L-8 63H176L193 143Q157 154 131 174T86 223T59 284T50 353Q50 427 79 494T159 611T276 691T417 721Q477 721 529 702T619 648T678 563T700 452Z"  />
<glyph unicode="&#x212E;" horiz-adv-x="600" d="M157 259V78Q216 19 302 19Q365 19 411 47T495 139L530 118Q507 82 484 57T433 15T373 -9T302 -17Q243 -17 196 4T114 63T62 151T44 259Q44 317 62 367T114 455T195 513T302 535Q360 535 407 515T489 458T542 371T561 259H157ZM448 295V440Q385 500 301 500Q217 500 157 440V295H448Z"  />
<glyph unicode="&#x2202;" horiz-adv-x="511" d="M374 398Q376 503 328 583Q283 658 201 658Q145 658 87 611L46 661Q112 721 199 721Q317 721 385 622Q450 526 450 361Q450 184 391 88Q331 -12 217 -12Q125 -12 67 55Q13 119 13 213Q13 306 69 366T212 427Q307 427 373 352L374 398ZM336 131Q369 196 369 280Q305 365 221 365Q163 365 126 321T88 210Q88 144 124 96T219 48Q294 48 336 131Z"  />
<glyph unicode="&#x2206;" horiz-adv-x="664" d="M601 0H-51L373 714H477L601 0ZM490 80L410 633L101 80H490Z"  />
<glyph unicode="&#x220F;" horiz-adv-x="719" d="M650 -214H572V714H146V-214H68V786H650V-214Z"  />
<glyph unicode="&#x2211;" horiz-adv-x="615" d="M589 -214H25V-150L347 290L39 722V786H577V714H140L441 290L122 -142H589V-214Z"  />
<glyph unicode="&#x2212;" horiz-adv-x="600" d="M532 219H28V287H532V219Z"  />
<glyph unicode="&#x2215;" horiz-adv-x="167" d="M-102 -28H-166L269 725H333L-102 -28Z"  />
<glyph unicode="&#x2219;" horiz-adv-x="278" d="M195 253Q195 226 177 208T131 189Q105 189 86 208T67 253Q67 279 86 298T131 317Q158 317 176 299T195 253Z"  />
<glyph unicode="&#x221A;" horiz-adv-x="504" d="M274 -214H199L37 120L-10 98L-38 158L74 210L225 -107L409 786H485L274 -214Z"  />
<glyph unicode="&#x221E;" horiz-adv-x="759" d="M549 98Q463 98 359 207Q287 140 249 120T168 99Q102 99 61 142T20 252Q20 320 61 364T165 408Q212 408 255 383T359 294Q428 366 468 388T548 410Q612 410 654 366T696 255Q696 187 656 143T549 98ZM490 325Q457 305 401 251Q488 166 551 166Q588 166 609 189T631 252Q631 291 609 316T547 342Q519 342 490 325ZM168 166Q229 166 315 251Q221 341 165 341Q130 341 108 316T85 252Q85 213 107 190T168 166Z"  />
<glyph unicode="&#x222B;" horiz-adv-x="554" d="M293 6Q293 -213 167 -213Q138 -213 118 -199T98 -161Q98 -146 109 -136T135 -125Q153 -125 167 -146T187 -167Q212 -167 215 -65Q215 -65 215 -12L213 579Q207 786 339 786Q373 786 396 771T420 730Q420 692 378 692Q358 692 340 720Q331 735 323 735Q288 735 291 632L293 555V6Z"  />
<glyph unicode="&#x2248;" horiz-adv-x="600" d="M548 421Q540 356 505 317T414 278Q366 278 277 313T149 349Q87 349 78 274H13Q21 340 56 378T147 417Q200 417 288 382T412 346Q471 346 483 421H548ZM548 231Q540 165 505 127T414 88Q367 88 276 123T149 159Q87 159 78 84H13Q21 149 56 188T147 227Q195 227 285 192T412 156Q471 156 483 231H548Z"  />
<glyph unicode="&#x2260;" horiz-adv-x="600" d="M535 118H246L163 -28L105 4L170 118H31V184H209L285 322H31V388H324L404 528L462 496L400 388H535V322H361L285 184H535V118Z"  />
<glyph unicode="&#x2264;" horiz-adv-x="600" d="M532 86L28 274V340L532 528V457L114 307L532 157V86ZM532 0H28V68H532V0Z"  />
<glyph unicode="&#x2265;" horiz-adv-x="600" d="M542 274L38 86V157L456 307L38 457V528L542 340V274ZM542 0H38V68H542V0Z"  />
<glyph unicode="&#x25A0;" horiz-adv-x="863" d="M151 0V561H712V0H151Z"  />
<glyph unicode="&#x25CA;" horiz-adv-x="593" d="M332 -35H260L89 356L260 747H332L504 356L332 -35ZM296 41L428 356L296 671L165 356L296 41Z"  />
<glyph unicode="&#x25CC;" horiz-adv-x="706" d="M56 291Q56 309 63 318T91 327Q129 327 129 291Q129 254 91 254Q71 254 64 262T56 291ZM577 291Q577 327 614 327Q649 327 649 291Q649 254 614 254Q577 254 577 291ZM316 551Q316 588 352 588Q390 588 390 551Q390 514 352 514Q316 514 316 551ZM316 29Q316 67 352 67Q390 67 390 29Q390 -7 352 -7Q316 -7 316 29ZM543 421Q543 458 581 458Q618 458 618 421Q618 403 609 393T581 383Q561 383 552 393T543 421ZM543 160Q543 179 552 188T581 198Q600 198 609 189T618 160Q618 124 581 124Q543 124 543 160ZM88 421Q88 458 124 458Q163 458 163 421Q163 403 153 393T124 383Q105 383 97 393T88 421ZM88 160Q88 179 96 188T124 198Q143 198 153 189T163 160Q163 124 124 124Q88 124 88 160ZM187 519Q187 537 194 546T222 556Q261 556 261 519Q261 482 222 482Q202 482 195 491T187 519ZM446 519Q446 556 484 556Q521 556 521 519Q521 482 484 482Q446 482 446 519ZM187 61Q187 80 194 90T222 100Q261 100 261 61Q261 25 222 25Q202 25 195 34T187 61ZM446 61Q446 100 484 100Q521 100 521 61Q521 25 484 25Q446 25 446 61Z"  />
<glyph unicode="&#xFB01;" horiz-adv-x="519" d="M108 0H23L119 442H31L46 517H134Q161 632 178 661Q214 722 302 722Q348 722 372 714L358 642Q330 647 318 647Q251 647 235 585L218 517H317L303 442H203L108 0ZM505 610H419L441 714H527L505 610ZM377 0H292L400 517H485L377 0Z"  />
<glyph unicode="&#xFB02;" horiz-adv-x="519" d="M108 0H23L119 442H31L46 517H134Q161 632 178 661Q214 722 302 722Q348 722 372 714L358 642Q330 647 318 647Q251 647 235 585L218 517H317L303 442H203L108 0ZM377 0H292L442 714H527L377 0Z"  />

</font>
</defs>
</svg>
