<svg xmlns="http://www.w3.org/2000/svg">
<defs>
<font horiz-adv-x="534" id="a0372047-e7df-43e9-8b2d-e708ab221e32">
<font-face font-family="" panose-1="2 11 4 3 2 2 2 9 2 4" ascent="1479" descent="-482" units-per-em="1000" alphabetic="0">
</font-face>
<missing-glyph horiz-adv-x="606" />

<glyph unicode="&#xA;" />
<glyph unicode="&#xD;" />
<glyph unicode=" " horiz-adv-x="278" />
<glyph unicode="!" horiz-adv-x="278" d="M122 178H84L138 495L185 714H252L202 482L122 178ZM106 0H23L46 106H131L106 0Z"  />
<glyph unicode="&quot;" horiz-adv-x="370" d="M195 471H137V714H195V471ZM320 471H262V714H320V471Z"  />
<glyph unicode="#" horiz-adv-x="556" d="M354 0H305L336 223H195L164 0H114L145 223H35L45 268H151L173 424H63L73 469H179L210 691H260L229 469H370L401 691H451L420 469H525L515 424H414L392 268H497L487 223H386L354 0ZM342 268L364 424H223L201 268H342Z"  />
<glyph unicode="$" horiz-adv-x="556" d="M204 -100H159L179 -9H178Q82 5 29 63T-25 216V235H43V223Q43 70 190 49L253 345Q162 369 121 401Q64 445 64 525Q64 621 136 674T334 729L346 781H391L379 725Q572 699 572 523V506H503Q503 650 367 667L309 393Q450 352 484 312Q521 268 521 206Q521 96 432 36Q356 -15 240 -15Q227 -15 222 -14L204 -100ZM323 671H317Q237 671 186 634Q132 595 132 528Q132 475 175 444Q204 423 267 406L323 671ZM234 44Q240 43 250 43Q329 43 386 79Q453 121 453 196Q453 257 402 291Q369 313 295 332L234 44Z"  />
<glyph unicode="%" horiz-adv-x="833" d="M158 -32H104L674 723H729L158 -32ZM342 405Q291 327 202 327Q139 327 103 365T67 468Q67 559 113 628Q166 706 253 706Q313 706 350 667T387 566Q387 473 342 405ZM203 372Q266 372 303 439Q334 495 334 564Q334 661 250 661Q188 661 151 591Q120 534 120 466Q120 424 142 398T203 372ZM721 63Q670 -15 581 -15Q518 -15 482 23T446 126Q446 217 492 286Q545 364 632 364Q692 364 729 326T766 225Q766 131 721 63ZM581 30Q645 30 682 97Q712 152 712 222Q712 319 627 319Q566 319 529 249Q498 192 498 125Q498 83 521 57T581 30Z"  />
<glyph unicode="&amp;" horiz-adv-x="611" d="M550 0H479L425 84Q344 -15 218 -15Q126 -15 72 34T17 168Q17 239 63 290T227 395Q159 492 159 561Q159 628 208 671T331 714Q399 714 443 678T488 584Q488 515 427 458Q390 423 306 378L434 179Q470 223 489 315H552Q530 210 467 128L550 0ZM222 559Q222 508 278 420Q361 465 393 498T425 572Q425 613 399 637T329 661Q284 661 253 632T222 559ZM255 351Q159 305 120 262T80 164Q80 113 119 76T213 38Q322 38 396 130L255 351Z"  />
<glyph unicode="&apos;" horiz-adv-x="278" d="M211 471H153V714H211V471Z"  />
<glyph unicode="(" horiz-adv-x="259" d="M112 -191Q47 -3 47 148Q47 466 292 729H345Q218 574 162 427T106 102Q106 -24 155 -191H112Z"  />
<glyph unicode=")" horiz-adv-x="259" d="M-102 -191Q23 -42 79 107T136 436Q136 563 87 729H130Q195 551 195 395Q195 75 -50 -191H-102Z"  />
<glyph unicode="*" horiz-adv-x="352" d="M301 449L263 430L204 536L118 444L90 471L173 561L72 616L93 651L195 594L221 714H260L235 590L351 614L356 576L241 551L301 449Z"  />
<glyph unicode="+" horiz-adv-x="600" d="M532 225H307V0H254V225H29V278H254V503H307V278H532V225Z"  />
<glyph unicode="&#x2c;" horiz-adv-x="278" d="M99 -33Q88 -79 63 -102T-12 -137L-4 -97Q25 -87 39 -67T65 0H23L47 106H131L99 -33Z"  />
<glyph unicode="-" horiz-adv-x="370" d="M289 246H38L50 304H301L289 246Z"  />
<glyph unicode="." horiz-adv-x="278" d="M106 0H23L46 106H131L106 0Z"  />
<glyph unicode="/" horiz-adv-x="333" d="M-20 -15H-79L333 729H391L-20 -15Z"  />
<glyph unicode="0" horiz-adv-x="556" d="M460 152Q373 -15 216 -15Q124 -15 75 51T25 244Q25 416 110 561T333 706Q531 706 531 460Q531 288 460 152ZM230 38Q346 38 414 203Q468 333 468 468Q468 653 326 653Q212 653 143 488Q88 358 88 224Q88 38 230 38Z"  />
<glyph unicode="1" horiz-adv-x="556" d="M267 0H204L328 581Q262 546 135 525H134L147 575Q308 599 369 700H417L267 0Z"  />
<glyph unicode="2" horiz-adv-x="556" d="M442 0H-11Q-4 101 70 176Q122 227 234 287T384 380Q460 445 460 528Q460 585 421 619T316 653Q242 653 195 602T143 466H80Q84 571 152 638T322 706Q411 706 467 657T523 526Q523 390 346 289L229 222Q92 143 62 58H453L442 0Z"  />
<glyph unicode="3" horiz-adv-x="556" d="M374 363Q478 337 478 216Q478 114 404 48Q334 -15 230 -15Q122 -15 65 42T8 208V222H71V209Q71 126 111 82T226 38Q306 38 360 88T415 212Q415 341 252 341H225L235 394H259Q334 394 362 403Q458 434 458 530Q458 585 419 619T321 653Q174 653 146 487H83Q124 706 324 706Q410 706 465 659T521 533Q521 469 480 423T374 365V363Z"  />
<glyph unicode="4" horiz-adv-x="556" d="M344 0H281L319 174H-1L10 233L439 700H495L393 227H499L487 174H382L344 0ZM330 227L409 590L407 592L72 227H330Z"  />
<glyph unicode="5" horiz-adv-x="556" d="M517 633H210L136 409H138Q191 464 292 464Q378 464 431 406T485 258Q485 139 412 62T219 -15Q126 -15 70 38T13 181V198H77Q76 191 76 177Q76 111 116 75T226 38Q310 38 366 99T422 247Q422 325 382 368T270 411Q158 411 115 330L59 335L173 691H531L517 633Z"  />
<glyph unicode="6" horiz-adv-x="556" d="M483 523Q479 653 348 653Q187 653 113 357H115Q176 456 299 456Q387 456 443 396T499 244Q499 130 428 58T244 -15Q146 -15 91 48T36 222Q36 343 74 459T184 641T352 706Q546 706 546 523H483ZM252 38Q334 38 386 101Q436 161 436 252Q436 319 392 361T276 403Q199 403 147 341Q99 282 99 203Q99 132 141 85T252 38Z"  />
<glyph unicode="7" horiz-adv-x="556" d="M101 0Q148 163 259 339Q363 505 491 633H110L124 691H571L558 637Q282 364 171 0H101Z"  />
<glyph unicode="8" horiz-adv-x="556" d="M375 368Q490 330 490 202Q490 106 417 46T240 -15Q142 -15 80 38T18 184Q18 263 68 317T203 380V382Q157 397 130 434T103 522Q103 602 164 654T313 706Q407 706 464 661T522 537Q522 474 482 427T375 369V368ZM417 435Q459 473 459 533Q459 589 422 621T316 653Q252 653 209 616T166 519Q166 462 205 430T308 398Q375 398 417 435ZM376 84Q427 131 427 205Q427 345 254 345Q180 345 131 300T81 183Q81 115 125 77T246 38Q325 38 376 84Z"  />
<glyph unicode="9" horiz-adv-x="556" d="M439 334Q377 235 255 235Q168 235 112 294T55 447Q55 561 126 633T310 706Q408 706 463 643T518 470Q518 357 480 238T372 53Q299 -15 202 -15Q9 -15 8 168H71Q75 38 206 38Q370 38 441 334H439ZM277 288Q355 288 406 350Q455 409 455 488Q455 560 413 606T301 653Q220 653 169 592T118 439Q118 371 162 330T277 288Z"  />
<glyph unicode=":" horiz-adv-x="278" d="M197 394H113L136 500H221L197 394ZM106 0H23L46 106H131L106 0Z"  />
<glyph unicode=";" horiz-adv-x="278" d="M197 394H113L136 500H221L197 394ZM98 -34Q88 -78 65 -100Q40 -125 -12 -137L-4 -97Q25 -87 39 -67T65 0H23L47 106H131L98 -34Z"  />
<glyph unicode="&lt;" horiz-adv-x="600" d="M534 -8L26 226V280L534 514V459L87 253L534 47V-8Z"  />
<glyph unicode="=" horiz-adv-x="600" d="M532 325H29V378H532V325ZM532 128H29V181H532V128Z"  />
<glyph unicode="&gt;" horiz-adv-x="600" d="M554 226L46 -8V47L492 253L46 459V514L554 280V226Z"  />
<glyph unicode="?" horiz-adv-x="537" d="M258 182H195Q207 265 246 312Q273 345 358 404Q457 473 457 552Q457 609 422 642T323 676Q251 676 205 627T150 494V493H87Q92 605 158 668Q221 729 326 729Q410 729 465 683T520 561Q519 481 464 422Q434 389 340 326Q305 297 294 281T268 224L258 182ZM230 0H147L170 106H255L230 0Z"  />
<glyph unicode="@" horiz-adv-x="800" d="M727 163Q681 82 596 34T418 -15Q257 -15 152 92T47 360Q47 514 153 621T414 729Q559 729 656 641T753 418Q753 315 690 226Q621 128 521 128Q460 128 454 194H452Q386 129 325 129Q267 129 230 170T193 274Q193 381 257 468Q326 563 430 563Q503 563 536 479L561 544H614L521 266Q507 224 507 201Q507 173 531 173Q594 173 647 253T700 421Q700 541 617 614Q538 684 416 684Q280 684 190 589T100 353Q100 217 191 124T418 30Q491 30 562 66T676 163H727ZM339 182Q400 182 452 262T505 417Q505 451 480 480T425 510Q353 510 301 428Q256 356 256 279Q256 236 279 209T339 182Z"  />
<glyph unicode="A" horiz-adv-x="630" d="M566 0H495L459 222H133L1 0H-75L362 714H436L566 0ZM449 280L388 656H386L167 280H449Z"  />
<glyph unicode="B" horiz-adv-x="667" d="M478 371Q535 363 567 322T600 224Q600 116 525 58T313 0H5L160 714H441Q531 714 582 672T633 551Q633 482 591 434T478 373V371ZM382 401Q459 401 510 437Q565 476 565 544Q565 656 435 656H216L161 401H382ZM327 58Q417 58 474 101T532 216Q532 343 363 343H148L86 58H327Z"  />
<glyph unicode="C" horiz-adv-x="704" d="M648 244Q621 122 536 54T327 -15Q192 -15 113 67T34 290Q34 474 142 601T422 729Q540 729 612 665T688 488H620Q617 576 565 623T421 671Q270 671 181 550Q102 441 102 284Q102 173 165 108T337 43Q421 43 487 96T580 244H648Z"  />
<glyph unicode="D" horiz-adv-x="685" d="M5 0L160 714H391Q662 714 662 428Q662 245 559 126Q451 0 271 0H5ZM266 58Q426 58 514 173Q594 276 594 441Q594 656 379 656H216L86 58H266Z"  />
<glyph unicode="E" horiz-adv-x="574" d="M493 0H5L158 714H636L623 656H213L158 398H541L528 340H146L86 58H506L493 0Z"  />
<glyph unicode="F" horiz-adv-x="537" d="M493 340H146L73 0H5L158 714H615L603 656H214L159 398H504L493 340Z"  />
<glyph unicode="G" horiz-adv-x="741" d="M616 0H570L582 120H580Q495 -15 321 -15Q188 -15 111 64T34 284Q34 474 140 601T423 729Q556 729 629 669T706 494H638Q634 580 577 625T417 671Q278 671 186 546Q102 432 102 288Q102 171 163 107T333 43Q443 43 520 113T618 305H372L386 363H691L616 0Z"  />
<glyph unicode="H" horiz-adv-x="704" d="M554 0H486L560 346H147L73 0H5L158 714H225L159 404H572L639 714H706L554 0Z"  />
<glyph unicode="I" horiz-adv-x="222" d="M73 0H5L156 714H224L73 0Z"  />
<glyph unicode="J" horiz-adv-x="500" d="M388 181Q365 76 313 31T167 -15Q77 -15 29 27T-20 148Q-20 189 -11 229H57Q48 173 48 142Q48 43 172 43Q234 43 270 79T325 205L434 714H502L388 181Z"  />
<glyph unicode="K" horiz-adv-x="648" d="M590 0H512L285 374L126 247L73 0H5L157 714H225L143 333L145 331L606 714H701L335 416L590 0Z"  />
<glyph unicode="L" horiz-adv-x="537" d="M467 0H5L159 714H227L86 58H481L467 0Z"  />
<glyph unicode="M" horiz-adv-x="852" d="M705 0H638L785 646H783L388 0H320L205 656H203L68 0H2L157 714H256L367 74L759 714H858L705 0Z"  />
<glyph unicode="N" horiz-adv-x="704" d="M560 0H485L200 638H198L65 0H0L154 714H231L516 76H518L650 714H716L560 0Z"  />
<glyph unicode="O" horiz-adv-x="741" d="M617 120Q507 -15 327 -15Q192 -15 113 67T34 290Q34 470 136 595Q246 729 422 729Q557 729 637 647T718 430Q718 245 617 120ZM338 43Q476 43 567 161Q650 270 650 413Q650 533 590 602T419 671Q268 671 180 549Q102 441 102 284Q102 173 166 108T338 43Z"  />
<glyph unicode="P" horiz-adv-x="630" d="M73 0H5L159 714H450Q530 714 583 666T637 538Q637 430 566 366Q500 306 398 306H139L73 0ZM396 364Q471 364 520 408T569 528Q569 656 428 656H215L152 364H396Z"  />
<glyph unicode="Q" horiz-adv-x="741" d="M609 -64L509 30Q433 -15 327 -15Q192 -15 113 67T34 290Q34 469 137 595Q247 729 422 729Q557 729 637 647T718 430Q718 318 677 221T558 62L649 -23L609 -64ZM511 106Q577 159 614 244Q650 325 650 413Q650 533 590 602T419 671Q268 671 180 549Q102 441 102 284Q102 173 166 108T338 43Q406 43 462 75L382 149L421 190L511 106Z"  />
<glyph unicode="R" horiz-adv-x="648" d="M490 0Q480 4 480 71Q480 89 485 138T490 201Q490 317 395 317H140L73 0H5L157 714H465Q552 714 600 669T648 536Q648 459 598 404T467 341V339Q558 321 558 210Q558 195 553 136T548 63Q548 15 560 0H490ZM398 375Q480 375 530 417T580 531Q580 597 551 626T457 656H213L153 375H398Z"  />
<glyph unicode="S" horiz-adv-x="630" d="M538 506Q538 592 494 631T350 671Q269 671 218 632T167 528Q167 485 191 459Q219 430 287 410L355 390Q400 377 453 355Q555 313 555 206Q555 96 468 37Q393 -15 278 -15Q151 -15 80 46T9 215Q9 216 10 223Q10 230 10 235H78V217Q78 43 283 43Q370 43 428 85T486 196Q486 245 456 274T352 326Q311 338 230 362Q99 402 99 525Q99 627 177 681Q245 729 352 729Q474 729 540 676T606 522Q606 519 606 514Q605 509 605 506H538Z"  />
<glyph unicode="T" horiz-adv-x="556" d="M239 0H171L314 656H69L81 714H639L627 656H382L239 0Z"  />
<glyph unicode="U" horiz-adv-x="704" d="M612 243Q591 142 554 93Q473 -15 302 -15Q189 -15 120 39Q48 95 48 189Q48 218 54 247L150 714H218L133 309Q116 227 116 188Q117 120 168 82T311 43Q504 43 542 228L643 714H711L612 243Z"  />
<glyph unicode="V" horiz-adv-x="593" d="M255 0H176L64 714H134L226 58H227L593 714H667L255 0Z"  />
<glyph unicode="W" horiz-adv-x="907" d="M634 0H560L513 649H511L199 0H124L71 714H139L176 79H178L482 714H564L613 85H615L907 714H978L634 0Z"  />
<glyph unicode="X" horiz-adv-x="574" d="M523 0H451L292 318L12 0H-68L260 372L84 714H159L307 414L566 714H647L337 361L523 0Z"  />
<glyph unicode="Y" horiz-adv-x="574" d="M260 0H191L256 295L66 714H138L299 352L598 714H681L323 288L260 0Z"  />
<glyph unicode="Z" horiz-adv-x="574" d="M506 0H-50L-37 60L532 656H98L111 714H626L614 657L43 58H519L506 0Z"  />
<glyph unicode="[" horiz-adv-x="241" d="M133 -191H-28L167 729H330L319 676H221L46 -138H143L133 -191Z"  />
<glyph unicode="\" horiz-adv-x="333" d="M412 -15H353L-58 729H1L412 -15Z"  />
<glyph unicode="]" horiz-adv-x="241" d="M89 -191H-74L-63 -138H35L210 675H113L123 729H284L89 -191Z"  />
<glyph unicode="^" horiz-adv-x="600" d="M551 238H494L294 628L97 238H39L269 691H321L551 238Z"  />
<glyph unicode="_" horiz-adv-x="500" d="M500 -125H0V-75H500V-125Z"  />
<glyph unicode="`" horiz-adv-x="185" d="M223 588H173L67 732H141L223 588Z"  />
<glyph unicode="a" horiz-adv-x="519" d="M442 -1Q414 -6 391 -6Q335 -6 335 51Q335 64 337 78L335 80Q309 36 259 11T155 -15Q79 -15 35 21T-9 128Q-9 231 97 270Q159 292 290 297Q346 299 371 322T396 403Q396 478 287 478Q143 478 125 362H62Q74 443 132 487T280 531Q360 531 409 501T459 416Q459 385 452 350Q437 274 403 132Q393 90 393 69Q393 47 426 47Q438 47 451 49L442 -1ZM374 276L372 278Q354 254 258 249Q138 242 96 214T54 131Q54 38 169 38Q242 38 292 80Q338 119 353 183L374 276Z"  />
<glyph unicode="b" horiz-adv-x="574" d="M46 0H-11L141 714H204L143 425H145Q204 531 323 531Q415 531 467 474T519 316Q519 227 482 148Q406 -15 246 -15Q179 -15 133 20T73 118H71L46 0ZM350 76Q399 115 427 182T456 318Q456 478 308 478Q248 478 202 438T126 330T97 195Q97 122 134 80T238 38Q301 38 350 76Z"  />
<glyph unicode="c" horiz-adv-x="519" d="M454 167Q394 -15 213 -15Q120 -15 67 42T14 198Q14 330 92 430T294 531Q383 531 435 487T487 363V355H424V366Q423 415 390 446T300 478Q194 478 132 388Q77 309 77 198Q77 123 114 81T221 38Q343 38 391 167H454Z"  />
<glyph unicode="d" horiz-adv-x="574" d="M438 0H377L400 93H398Q329 -15 210 -15Q117 -15 66 40T14 196Q14 320 91 422Q175 531 296 531Q431 531 464 419H466L528 714H591L438 0ZM216 38Q318 38 383 136Q441 222 441 329Q441 399 403 438T296 478Q202 478 140 390T77 192Q77 118 114 78T216 38Z"  />
<glyph unicode="e" horiz-adv-x="519" d="M459 166Q404 -15 224 -15Q124 -15 69 42T14 204Q14 337 92 434T293 531Q383 531 436 477T489 329Q489 282 484 241H80Q77 222 77 201Q77 125 116 82T227 38Q288 38 332 72T396 166H459ZM425 294Q425 302 426 314Q426 326 426 330Q426 401 388 439T284 478Q215 478 161 427T88 294H425Z"  />
<glyph unicode="f" horiz-adv-x="259" d="M81 0H18L120 463H30L42 516H131L147 591Q161 656 193 685T288 714Q320 714 350 707L339 655Q315 661 294 661Q227 661 214 603L194 516H296L284 463H183L81 0Z"  />
<glyph unicode="g" horiz-adv-x="556" d="M438 57Q409 -78 363 -134Q304 -206 180 -206Q86 -206 34 -163T-20 -39H43Q43 -153 188 -153Q314 -153 356 -20Q375 39 390 104L388 106Q363 63 315 37T212 11Q122 11 72 69T21 221Q21 344 95 437T285 531Q349 531 396 499T454 410H456L478 516H536L438 57ZM223 64Q314 64 374 149Q429 226 429 320Q429 478 288 478Q197 478 137 395Q84 321 84 226Q84 152 121 108T223 64Z"  />
<glyph unicode="h" horiz-adv-x="537" d="M403 0H340L411 328Q419 365 419 385Q419 429 391 453T311 478Q242 478 186 420T108 261L52 0H-11L143 714H206L143 422H145Q175 471 221 500Q271 531 327 531Q482 531 482 393Q482 372 479 357L474 332L403 0Z"  />
<glyph unicode="i" horiz-adv-x="185" d="M184 613H121L143 714H206L184 613ZM52 0H-11L100 516H163L52 0Z"  />
<glyph unicode="j" horiz-adv-x="185" d="M184 613H121L142 714H206L184 613ZM35 -84Q23 -139 -6 -165T-93 -191Q-102 -191 -137 -186L-125 -134Q-101 -138 -89 -138Q-39 -138 -28 -86L100 516H163L35 -84Z"  />
<glyph unicode="k" horiz-adv-x="463" d="M408 0H339L202 279L92 187L52 0H-11L141 714H204L108 266L110 264L412 516H496L252 317L408 0Z"  />
<glyph unicode="l" horiz-adv-x="185" d="M51 0H-11L143 714H206L51 0Z"  />
<glyph unicode="m" horiz-adv-x="833" d="M694 0H631L702 326Q710 363 710 390Q710 478 612 478Q474 478 423 236L373 0H310L382 336Q388 364 388 386Q388 478 301 478Q236 478 182 416T108 262L52 0H-11L100 516H158L138 426L140 424Q208 531 322 531Q436 531 447 421H449Q518 531 630 531Q773 531 773 395Q773 368 766 335L694 0Z"  />
<glyph unicode="n" horiz-adv-x="537" d="M403 0H340L411 328Q419 365 419 385Q419 429 391 453T311 478Q242 478 186 419T108 261L52 0H-11L100 516H158L140 422H142Q174 471 223 501T327 531Q482 531 482 393Q482 372 479 357L474 332L403 0Z"  />
<glyph unicode="o" horiz-adv-x="556" d="M435 92Q356 -15 220 -15Q125 -15 70 42T14 201Q14 335 90 430Q171 531 302 531Q394 531 450 477T506 329Q506 188 435 92ZM231 38Q325 38 384 124T443 316Q443 391 403 434T291 478Q197 478 135 393Q77 313 77 206Q77 127 117 83T231 38Z"  />
<glyph unicode="p" horiz-adv-x="574" d="M17 -191H-46L106 516H163L143 423H145Q214 531 333 531Q427 531 478 475T529 320Q529 192 453 93Q371 -15 247 -15Q103 -15 82 103H80L17 -191ZM246 38Q347 38 411 134Q466 217 466 324Q466 396 429 437T326 478Q225 478 160 380Q102 293 102 187Q102 118 140 78T246 38Z"  />
<glyph unicode="q" horiz-adv-x="574" d="M402 -191H339L400 91H398Q331 -15 217 -15Q127 -15 75 42T22 200Q22 332 98 431T295 531Q359 531 407 499T472 413H474L496 516H554L402 -191ZM232 38Q329 38 390 134Q444 218 444 321Q444 394 407 436T302 478Q202 478 140 385Q85 303 85 198Q85 38 232 38Z"  />
<glyph unicode="r" horiz-adv-x="315" d="M52 0H-11L100 516H157L131 397H133Q171 464 215 493T324 523Q334 523 345 523Q355 522 354 522L340 459Q323 460 311 460Q233 460 179 407Q129 357 110 270L52 0Z"  />
<glyph unicode="s" horiz-adv-x="481" d="M435 365H372V374Q372 423 340 450T251 478Q193 478 158 456T123 391Q123 359 152 336T257 285T367 224T400 143Q400 68 343 27T192 -15Q107 -15 54 30Q-2 77 -2 158V168H61Q61 38 207 38Q261 38 299 64T337 133Q337 179 284 211Q264 222 190 250Q60 298 60 390Q60 455 118 495Q172 531 251 531Q435 531 435 370V365Z"  />
<glyph unicode="t" horiz-adv-x="296" d="M205 -2Q174 -6 142 -6Q46 -6 46 68Q46 87 53 121L124 463H31L43 516H136L169 672H232L199 516H302L292 463H187L112 113Q109 99 109 83Q109 47 144 47Q177 47 216 53L205 -2Z"  />
<glyph unicode="u" horiz-adv-x="537" d="M402 0H344L362 94H360Q328 44 279 15T175 -15Q20 -15 20 124Q20 151 31 202L99 516H162L90 183Q83 151 83 131Q83 87 111 63T191 38Q262 38 315 95Q372 156 396 266L450 516H513L402 0Z"  />
<glyph unicode="v" horiz-adv-x="463" d="M184 0H116L35 516H101L162 71H164L406 516H475L184 0Z"  />
<glyph unicode="w" horiz-adv-x="741" d="M478 0H410L373 433H371L159 0H90L30 516H96L137 77H139L352 516H426L461 80H463L682 516H749L478 0Z"  />
<glyph unicode="x" horiz-adv-x="463" d="M397 0H325L215 225L17 0H-58L188 272L67 516H139L233 313L411 516H487L260 266L397 0Z"  />
<glyph unicode="y" horiz-adv-x="463" d="M126 -120Q85 -191 0 -191Q-8 -191 -55 -186L-43 -135Q-15 -138 10 -138Q52 -138 89 -88Q99 -74 139 0L44 516H110L185 78H186L424 516H492L126 -120Z"  />
<glyph unicode="z" horiz-adv-x="426" d="M351 0H-58L-47 51L352 463H44L55 516H443L432 466L31 53H362L351 0Z"  />
<glyph unicode="{" horiz-adv-x="333" d="M178 -191H139Q106 -191 84 -168T61 -106Q61 -93 63 -82L66 -66L93 64Q108 136 108 166Q108 242 58 242L69 295Q105 295 133 338Q159 378 172 441L207 609Q218 663 249 696T321 729H370L359 676H337Q317 676 306 669Q280 653 267 586Q238 436 229 410Q196 307 129 270V268Q171 236 171 163Q171 148 168 130L164 106L137 -22Q124 -84 124 -95Q124 -137 159 -137H189L178 -191Z"  />
<glyph unicode="|" horiz-adv-x="222" d="M138 -214H85V786H138V-214Z"  />
<glyph unicode="}" horiz-adv-x="333" d="M103 -65Q91 -120 71 -146T32 -181T-18 -191H-61L-50 -138H-36Q-7 -138 4 -130Q12 -125 23 -104T49 -16L73 100Q98 220 180 268V270Q138 304 138 375Q138 390 141 408L145 432L181 605Q185 624 185 632Q185 676 150 676H120L131 729H170Q203 729 225 706T248 644Q248 630 238 581L218 483Q201 400 201 372Q201 296 251 296L240 243Q168 243 136 91L103 -65Z"  />
<glyph unicode="~" horiz-adv-x="600" d="M511 279Q454 193 386 193Q351 193 307 212Q269 229 232 246Q199 258 169 258Q116 258 85 189L49 225Q93 311 174 311Q219 311 318 267Q365 246 387 246Q431 246 475 315L511 279Z"  />
<glyph unicode="&#xA0;" horiz-adv-x="278" />
<glyph unicode="&#xA1;" horiz-adv-x="278" d="M203 410H119L142 516H227L203 410ZM65 -191H-2L43 33L128 345H165L110 30L65 -191Z"  />
<glyph unicode="&#xA2;" horiz-adv-x="556" d="M211 -117H172L195 -11Q119 0 78 55T36 198Q36 326 108 423Q188 530 312 530L331 618H369L350 529Q426 520 467 477T509 363V355H446V367Q446 412 418 442T339 478L245 38Q365 38 413 167H476Q415 -15 235 -15H233L211 -117ZM300 478Q204 469 148 380Q99 302 99 199Q99 66 206 42L300 478Z"  />
<glyph unicode="&#xA3;" horiz-adv-x="556" d="M486 47Q421 -15 325 -15Q297 -15 238 5T143 26Q85 26 20 -13L-4 42Q134 153 134 253Q134 274 123 328H36L43 362H113Q87 437 87 492Q87 598 154 663T326 729Q422 729 483 671T541 520L540 498H477L478 518Q481 588 440 632T330 676Q247 676 199 628T150 497Q150 428 176 362H334L328 328H185Q197 282 197 250Q197 203 170 162Q141 117 68 58L70 56Q119 79 174 79Q203 79 257 59T340 38Q375 38 401 50T462 97L486 47Z"  />
<glyph unicode="&#xA4;" horiz-adv-x="556" d="M526 136L488 98L432 154Q364 98 278 98Q185 98 123 153L68 98L30 136L86 192Q30 257 30 346Q30 436 85 501L30 556L68 594L123 539Q190 594 278 594Q366 594 433 539L488 594L526 556L471 501Q526 431 526 346Q526 259 471 191L526 136ZM278 161Q355 161 409 215T463 346Q463 421 408 476T277 531Q201 531 147 476T93 346Q93 270 146 216T278 161Z"  />
<glyph unicode="&#xA5;" horiz-adv-x="556" d="M426 176H280L242 0H179L218 176H86L96 221H228L244 295L241 304H113L123 349H223L84 714H148L284 349L558 714H633L352 349H463L453 304H317L305 288L290 221H436L426 176Z"  />
<glyph unicode="&#xA6;" horiz-adv-x="222" d="M138 411H85V661H138V411ZM138 -89H85V161H138V-89Z"  />
<glyph unicode="&#xA7;" horiz-adv-x="556" d="M71 -4Q68 -52 104 -84T194 -117Q239 -117 272 -92T305 -30Q305 14 259 69Q241 91 180 148Q101 222 73 266T44 356Q44 413 84 454T188 506Q162 546 162 583Q162 647 211 688T334 729Q508 729 508 563V554H445Q445 676 336 676Q286 676 256 651T225 581Q225 548 251 514T348 417Q479 301 479 220Q479 157 442 116T336 64Q368 22 368 -22Q368 -88 316 -129T185 -170Q107 -170 58 -123T8 -2V13H72L71 -4ZM189 223Q249 162 309 102Q358 110 387 139T416 209Q416 276 298 383Q239 436 212 465Q171 463 139 431T107 356Q107 309 189 223Z"  />
<glyph unicode="&#xA8;" horiz-adv-x="185" d="M100 609H37L56 711H120L100 609ZM258 609H196L215 711H279L258 609Z"  />
<glyph unicode="&#xA9;" horiz-adv-x="800" d="M772 357Q772 200 665 93T400 -15Q242 -15 135 92T28 357Q28 515 135 622T400 729Q557 729 664 622T772 357ZM400 38Q534 38 624 130T714 357Q714 492 624 584T399 676Q265 676 176 584T86 357Q86 222 176 130T400 38ZM594 279Q584 209 534 169T409 128Q311 128 252 191T192 357Q192 459 252 522T409 586Q482 586 533 546T594 435H543Q533 483 496 512T409 541Q334 541 290 491T245 357Q245 273 290 223T410 173Q461 173 496 201T543 279H594Z"  />
<glyph unicode="&#xAA;" horiz-adv-x="311" d="M323 380Q307 377 291 377Q253 377 253 412Q253 420 256 429H253Q215 368 137 368Q24 368 24 459Q24 566 203 566Q249 566 268 579T287 624Q287 667 221 667Q127 667 113 599H70Q88 706 217 706Q269 706 301 686T334 632Q334 608 329 587L299 463Q292 434 292 429Q292 421 297 419T324 416Q327 416 329 417L323 380ZM276 545L274 547Q266 535 230 532Q148 525 133 521Q71 505 71 459Q71 407 144 407Q243 407 263 491L276 545Z"  />
<glyph unicode="&#xAB;" horiz-adv-x="426" d="M156 118L50 257L65 321L224 434L209 366L93 282L168 180L156 118ZM316 118L210 257L225 321L384 434L369 366L253 282L328 180L316 118Z"  />
<glyph unicode="&#xAC;" horiz-adv-x="600" d="M537 111H484V325H34V378H537V111Z"  />
<glyph unicode="&#xAD;" horiz-adv-x="370" d="M289 246H38L50 304H301L289 246Z"  />
<glyph unicode="&#xAE;" horiz-adv-x="800" d="M772 357Q772 200 665 93T400 -15Q242 -15 135 92T28 357Q28 515 135 622T400 729Q557 729 664 622T772 357ZM400 38Q534 38 624 130T714 357Q714 492 624 584T399 676Q265 676 176 584T86 357Q86 222 176 130T400 38ZM590 142H528L407 333H318V142H265V572H434Q570 572 570 453Q570 354 462 333L590 142ZM396 378Q454 378 478 388Q517 404 517 453Q517 527 418 527H318V378H396Z"  />
<glyph unicode="&#xAF;" horiz-adv-x="185" d="M284 638H28L36 683H292L284 638Z"  />
<glyph unicode="&#xB0;" horiz-adv-x="400" d="M391 562Q391 501 349 460T247 418Q186 418 145 459T103 562Q103 622 144 664T247 706Q307 706 349 663T391 562ZM247 457Q291 457 321 488T352 562Q352 604 322 635T247 667Q203 667 173 637T142 562Q142 518 172 488T247 457Z"  />
<glyph unicode="&#xB1;" horiz-adv-x="600" d="M534 270H309V90H256V270H32V323H256V503H309V323H534V270ZM534 0H31V53H534V0Z"  />
<glyph unicode="&#xB2;" horiz-adv-x="370" d="M347 397H63Q67 491 187 557L278 607Q357 650 357 715Q357 790 270 790Q227 790 198 760T165 680H118Q120 747 164 788T275 829Q335 829 369 800T404 716Q404 671 380 639Q353 604 283 564L197 515Q123 473 118 436H354L347 397Z"  />
<glyph unicode="&#xB3;" horiz-adv-x="370" d="M213 600L220 639H239Q355 639 355 720Q355 750 332 770T274 790Q184 790 163 693H122Q130 754 171 791T276 829Q333 829 367 800T402 721Q402 639 308 617Q374 598 374 529Q374 468 332 428T221 388Q155 388 117 426T78 534H120Q123 483 151 455T223 427Q268 427 297 455T327 527Q327 600 228 600H213Z"  />
<glyph unicode="&#xB4;" horiz-adv-x="185" d="M281 732L137 588H84L200 732H281Z"  />
<glyph unicode="&#xB5;" horiz-adv-x="537" d="M402 0H344L362 94H360Q327 44 278 15T176 -15Q94 -15 57 35L10 -191H-53L99 516H162L90 183Q83 151 83 131Q83 87 111 63T191 38Q262 38 315 95Q372 156 396 266L450 516H513L402 0Z"  />
<glyph unicode="&#xB6;" horiz-adv-x="600" d="M369 -177H316L492 670H365L189 -177H136L241 328Q163 329 116 374Q71 416 71 482Q71 587 150 653Q225 714 332 714H554L369 -177Z"  />
<glyph unicode="&#xB7;" horiz-adv-x="278" d="M166 273Q149 256 128 256Q105 256 88 272T71 312Q71 334 87 351T127 368Q150 368 166 352T183 312Q183 291 166 273Z"  />
<glyph unicode="&#xB8;" horiz-adv-x="185" d="M-71 -152Q-26 -169 6 -169Q63 -169 63 -129Q63 -88 9 -88Q-12 -88 -30 -97L-46 -79L24 0H61L6 -56L9 -58Q25 -54 43 -54Q118 -54 118 -123Q118 -159 87 -181T11 -203Q-40 -203 -85 -181L-71 -152Z"  />
<glyph unicode="&#xB9;" horiz-adv-x="370" d="M243 397H195L274 740Q233 713 150 706L159 745Q260 757 302 820H340L243 397Z"  />
<glyph unicode="&#xBA;" horiz-adv-x="334" d="M314 429Q262 368 174 368Q108 368 72 403T36 502Q36 590 89 648T228 706Q291 706 327 673T364 580Q364 487 314 429ZM182 407Q242 407 281 461Q317 510 317 572Q317 617 291 642T220 667Q162 667 121 614Q83 565 83 506Q83 407 182 407Z"  />
<glyph unicode="&#xBB;" horiz-adv-x="426" d="M174 230L15 117L30 185L146 269L71 371L83 434L189 294L174 230ZM334 230L175 117L190 185L306 269L231 371L243 434L349 294L334 230Z"  />
<glyph unicode="&#xBC;" horiz-adv-x="834" d="M182 -34H129L573 725H626L182 -34ZM196 274H148L227 617Q186 591 103 583L112 622Q210 633 254 696H293L196 274ZM632 0H585L606 100H396L404 141L676 423H721L661 139H729L721 100H653L632 0ZM614 139L659 351L455 139H614Z"  />
<glyph unicode="&#xBD;" horiz-adv-x="834" d="M162 -34H109L553 725H606L162 -34ZM196 274H148L227 617Q186 591 103 583L112 622Q210 633 254 696H293L196 274ZM716 0H432Q435 51 466 89T570 167Q657 215 671 225Q726 266 726 318Q726 393 639 393Q596 393 567 364T534 283H487Q491 351 533 391T644 432Q704 432 738 402T773 319Q773 276 747 242T654 169L563 116Q495 76 487 39H723L716 0Z"  />
<glyph unicode="&#xBE;" horiz-adv-x="834" d="M262 -34H209L653 725H706L262 -34ZM218 477L225 516H245Q360 516 360 597Q360 628 336 647T279 667Q190 667 168 570H127Q137 633 178 669T281 706Q338 706 372 677T407 598Q407 516 312 494Q379 474 379 406Q379 344 336 305T226 265Q160 265 122 304T83 411H125Q127 361 154 333T228 304Q273 304 302 332T332 404Q332 477 231 477H218ZM652 0H605L626 100H416L424 141L696 423H741L681 139H749L741 100H673L652 0ZM634 139L679 351L475 139H634Z"  />
<glyph unicode="&#xBF;" horiz-adv-x="537" d="M330 410H246L269 516H354L330 410ZM414 30Q408 -81 344 -143T175 -206Q91 -206 36 -160T-19 -38Q-19 28 18 78T142 184Q190 215 210 245T243 341H306Q296 259 255 210Q228 178 142 119Q44 52 44 -29Q44 -86 79 -119T178 -153Q249 -153 296 -104T351 30H414Z"  />
<glyph unicode="&#xC0;" horiz-adv-x="630" d="M566 0H495L459 222H133L1 0H-75L362 714H436L566 0ZM449 280L388 656H386L167 280H449ZM448 778H398L292 922H366L448 778Z"  />
<glyph unicode="&#xC1;" horiz-adv-x="630" d="M566 0H495L459 222H133L1 0H-75L362 714H436L566 0ZM449 280L388 656H386L167 280H449ZM561 922L417 778H364L480 922H561Z"  />
<glyph unicode="&#xC2;" horiz-adv-x="630" d="M566 0H495L459 222H133L1 0H-75L362 714H436L566 0ZM449 280L388 656H386L167 280H449ZM545 778H488L422 884L321 778H260L396 922H459L545 778Z"  />
<glyph unicode="&#xC3;" horiz-adv-x="630" d="M566 0H495L459 222H133L1 0H-75L362 714H436L566 0ZM449 280L388 656H386L167 280H449ZM571 901Q562 857 538 829T482 800Q451 800 387 839Q359 856 342 856Q326 856 313 840T294 800H253Q281 901 346 901Q377 901 423 871Q463 845 484 845Q499 845 514 865Q527 882 531 901H571Z"  />
<glyph unicode="&#xC4;" horiz-adv-x="630" d="M566 0H495L459 222H133L1 0H-75L362 714H436L566 0ZM449 280L388 656H386L167 280H449ZM359 799H296L315 901H379L359 799ZM517 799H455L474 901H538L517 799Z"  />
<glyph unicode="&#xC5;" horiz-adv-x="630" d="M566 0H495L459 222H133L1 0H-75L362 714H436L566 0ZM449 280L388 656H386L167 280H449ZM514 859Q514 817 485 789T415 760Q372 760 344 788T315 860Q315 902 344 930T414 959Q457 959 485 931T514 859ZM415 794Q442 794 460 812T479 859Q479 886 461 905T414 925Q386 925 368 907T350 860Q350 831 369 813T415 794Z"  />
<glyph unicode="&#xC6;" horiz-adv-x="889" d="M808 0H371L420 226H165L-1 0H-81L453 714H951L938 656H581L525 398H860L847 340H513L452 58H821L808 0ZM432 284L513 656H483L208 284H432Z"  />
<glyph unicode="&#xC7;" horiz-adv-x="704" d="M648 244Q621 122 536 54T324 -15H311L271 -56L274 -58Q287 -54 308 -54Q383 -54 383 -123Q383 -159 352 -181T275 -203Q225 -203 180 -181L194 -152Q238 -169 271 -169Q328 -169 328 -129Q328 -88 274 -88Q253 -88 235 -97L219 -79L277 -12Q161 4 98 84T34 290Q34 469 137 595Q247 729 422 729Q541 729 613 667Q688 602 688 488H620Q617 576 565 623T421 671Q276 671 189 559T102 284Q102 173 165 108T337 43Q422 43 488 96T580 244H648Z"  />
<glyph unicode="&#xC8;" horiz-adv-x="574" d="M493 0H5L158 714H636L623 656H213L158 398H541L528 340H146L86 58H506L493 0ZM426 778H376L270 922H344L426 778Z"  />
<glyph unicode="&#xC9;" horiz-adv-x="574" d="M493 0H5L158 714H636L623 656H213L158 398H541L528 340H146L86 58H506L493 0ZM559 922L415 778H362L478 922H559Z"  />
<glyph unicode="&#xCA;" horiz-adv-x="574" d="M493 0H5L158 714H636L623 656H213L158 398H541L528 340H146L86 58H506L493 0ZM533 778H476L410 884L309 778H248L384 922H447L533 778Z"  />
<glyph unicode="&#xCB;" horiz-adv-x="574" d="M493 0H5L158 714H636L623 656H213L158 398H541L528 340H146L86 58H506L493 0ZM347 799H284L303 901H367L347 799ZM505 799H443L462 901H526L505 799Z"  />
<glyph unicode="&#xCC;" horiz-adv-x="222" d="M73 0H5L156 714H224L73 0ZM239 778H189L83 922H157L239 778Z"  />
<glyph unicode="&#xCD;" horiz-adv-x="222" d="M73 0H5L156 714H224L73 0ZM362 922L218 778H165L281 922H362Z"  />
<glyph unicode="&#xCE;" horiz-adv-x="222" d="M73 0H5L156 714H224L73 0ZM341 778H284L218 884L117 778H56L192 922H255L341 778Z"  />
<glyph unicode="&#xCF;" horiz-adv-x="222" d="M73 0H5L156 714H224L73 0ZM155 799H92L111 901H175L155 799ZM313 799H251L270 901H334L313 799Z"  />
<glyph unicode="&#xD0;" horiz-adv-x="685" d="M4 0L81 348H1L12 393H90L160 714H385Q527 714 594 645T662 428Q662 245 560 126Q451 0 271 0H4ZM261 58Q414 58 504 162T594 441Q594 656 374 656H215L159 393H372L361 348H148L85 58H261Z"  />
<glyph unicode="&#xD1;" horiz-adv-x="704" d="M560 0H485L200 638H198L65 0H0L154 714H231L516 76H518L650 714H716L560 0ZM612 901Q603 857 579 829T523 800Q492 800 428 839Q400 856 383 856Q367 856 354 840T335 800H294Q322 901 387 901Q418 901 464 871Q504 845 525 845Q540 845 555 865Q568 882 572 901H612Z"  />
<glyph unicode="&#xD2;" horiz-adv-x="741" d="M617 120Q507 -15 327 -15Q192 -15 113 67T34 290Q34 470 136 595Q246 729 422 729Q557 729 637 647T718 430Q718 245 617 120ZM338 43Q476 43 567 161Q650 270 650 413Q650 533 590 602T419 671Q268 671 180 549Q102 441 102 284Q102 173 166 108T338 43ZM474 778H424L318 922H392L474 778Z"  />
<glyph unicode="&#xD3;" horiz-adv-x="741" d="M617 120Q507 -15 327 -15Q192 -15 113 67T34 290Q34 470 136 595Q246 729 422 729Q557 729 637 647T718 430Q718 245 617 120ZM338 43Q476 43 567 161Q650 270 650 413Q650 533 590 602T419 671Q268 671 180 549Q102 441 102 284Q102 173 166 108T338 43ZM607 922L463 778H410L526 922H607Z"  />
<glyph unicode="&#xD4;" horiz-adv-x="741" d="M617 120Q507 -15 327 -15Q192 -15 113 67T34 290Q34 470 136 595Q246 729 422 729Q557 729 637 647T718 430Q718 245 617 120ZM338 43Q476 43 567 161Q650 270 650 413Q650 533 590 602T419 671Q268 671 180 549Q102 441 102 284Q102 173 166 108T338 43ZM581 778H524L458 884L357 778H296L432 922H495L581 778Z"  />
<glyph unicode="&#xD5;" horiz-adv-x="741" d="M617 120Q507 -15 327 -15Q192 -15 113 67T34 290Q34 470 136 595Q246 729 422 729Q557 729 637 647T718 430Q718 245 617 120ZM338 43Q476 43 567 161Q650 270 650 413Q650 533 590 602T419 671Q268 671 180 549Q102 441 102 284Q102 173 166 108T338 43ZM610 901Q601 857 577 829T521 800Q490 800 426 839Q398 856 381 856Q365 856 352 840T333 800H292Q320 901 385 901Q416 901 462 871Q502 845 523 845Q538 845 553 865Q566 882 570 901H610Z"  />
<glyph unicode="&#xD6;" horiz-adv-x="741" d="M617 120Q507 -15 327 -15Q192 -15 113 67T34 290Q34 470 136 595Q246 729 422 729Q557 729 637 647T718 430Q718 245 617 120ZM338 43Q476 43 567 161Q650 270 650 413Q650 533 590 602T419 671Q268 671 180 549Q102 441 102 284Q102 173 166 108T338 43ZM395 799H332L351 901H415L395 799ZM553 799H491L510 901H574L553 799Z"  />
<glyph unicode="&#xD7;" horiz-adv-x="600" d="M515 62L478 25L289 213L100 25L63 62L251 251L63 440L100 477L289 288L478 477L515 440L326 251L515 62Z"  />
<glyph unicode="&#xD8;" horiz-adv-x="741" d="M29 -27L5 0L93 91Q34 168 34 289Q34 470 136 595Q245 729 422 729Q550 729 631 653L715 741L740 712L657 626Q718 546 718 430Q718 245 617 120Q507 -15 327 -15Q196 -15 117 64L29 -27ZM586 606Q526 671 419 671Q269 671 181 549Q102 440 102 284Q102 196 140 140L586 606ZM163 112Q228 43 338 43Q477 43 567 162Q650 271 650 414Q650 515 609 576L163 112Z"  />
<glyph unicode="&#xD9;" horiz-adv-x="704" d="M612 243Q591 142 554 93Q473 -15 302 -15Q189 -15 120 39Q48 95 48 189Q48 218 54 247L150 714H218L133 309Q116 227 116 188Q117 120 168 82T311 43Q504 43 542 228L643 714H711L612 243ZM469 778H419L313 922H387L469 778Z"  />
<glyph unicode="&#xDA;" horiz-adv-x="704" d="M612 243Q591 142 554 93Q473 -15 302 -15Q189 -15 120 39Q48 95 48 189Q48 218 54 247L150 714H218L133 309Q116 227 116 188Q117 120 168 82T311 43Q504 43 542 228L643 714H711L612 243ZM602 922L458 778H405L521 922H602Z"  />
<glyph unicode="&#xDB;" horiz-adv-x="704" d="M612 243Q591 142 554 93Q473 -15 302 -15Q189 -15 120 39Q48 95 48 189Q48 218 54 247L150 714H218L133 309Q116 227 116 188Q117 120 168 82T311 43Q504 43 542 228L643 714H711L612 243ZM576 778H519L453 884L352 778H291L427 922H490L576 778Z"  />
<glyph unicode="&#xDC;" horiz-adv-x="704" d="M612 243Q591 142 554 93Q473 -15 302 -15Q189 -15 120 39Q48 95 48 189Q48 218 54 247L150 714H218L133 309Q116 227 116 188Q117 120 168 82T311 43Q504 43 542 228L643 714H711L612 243ZM390 799H327L346 901H410L390 799ZM548 799H486L505 901H569L548 799Z"  />
<glyph unicode="&#xDD;" horiz-adv-x="574" d="M260 0H191L256 295L66 714H138L299 352L598 714H681L323 288L260 0ZM537 922L393 778H340L456 922H537Z"  />
<glyph unicode="&#xDE;" horiz-adv-x="630" d="M73 0H5L159 714H227L201 597H425Q505 597 558 549T611 420Q611 313 544 251T370 189H113L73 0ZM371 247Q445 247 494 292T543 411Q543 539 402 539H189L126 247H371Z"  />
<glyph unicode="&#xDF;" horiz-adv-x="519" d="M155 50Q170 47 199 47Q280 47 338 102T396 239Q396 368 228 368H225L237 421H243Q324 421 377 461T431 569Q431 618 401 647T319 676Q199 676 171 547L52 0H-11L108 549Q147 729 318 729Q402 729 448 688T494 574Q494 508 452 459T341 399V397Q459 372 459 250Q459 179 424 119Q351 -6 201 -6Q164 -6 144 -2L155 50Z"  />
<glyph unicode="&#xE0;" horiz-adv-x="519" d="M442 -1Q414 -6 391 -6Q335 -6 335 51Q335 64 337 78L335 80Q309 36 259 11T155 -15Q79 -15 35 21T-9 128Q-9 231 97 270Q159 292 290 297Q346 299 371 322T396 403Q396 478 287 478Q143 478 125 362H62Q74 443 132 487T280 531Q360 531 409 501T459 416Q459 385 452 350Q437 274 403 132Q393 90 393 69Q393 47 426 47Q438 47 451 49L442 -1ZM374 276L372 278Q354 254 258 249Q138 242 96 214T54 131Q54 38 169 38Q242 38 292 80Q338 119 353 183L374 276ZM347 588H297L191 732H265L347 588Z"  />
<glyph unicode="&#xE1;" horiz-adv-x="519" d="M442 -1Q414 -6 391 -6Q335 -6 335 51Q335 64 337 78L335 80Q309 36 259 11T155 -15Q79 -15 35 21T-9 128Q-9 231 97 270Q159 292 290 297Q346 299 371 322T396 403Q396 478 287 478Q143 478 125 362H62Q74 443 132 487T280 531Q360 531 409 501T459 416Q459 385 452 350Q437 274 403 132Q393 90 393 69Q393 47 426 47Q438 47 451 49L442 -1ZM374 276L372 278Q354 254 258 249Q138 242 96 214T54 131Q54 38 169 38Q242 38 292 80Q338 119 353 183L374 276ZM456 732L312 588H259L375 732H456Z"  />
<glyph unicode="&#xE2;" horiz-adv-x="519" d="M442 -1Q414 -6 391 -6Q335 -6 335 51Q335 64 337 78L335 80Q309 36 259 11T155 -15Q79 -15 35 21T-9 128Q-9 231 97 270Q159 292 290 297Q346 299 371 322T396 403Q396 478 287 478Q143 478 125 362H62Q74 443 132 487T280 531Q360 531 409 501T459 416Q459 385 452 350Q437 274 403 132Q393 90 393 69Q393 47 426 47Q438 47 451 49L442 -1ZM374 276L372 278Q354 254 258 249Q138 242 96 214T54 131Q54 38 169 38Q242 38 292 80Q338 119 353 183L374 276ZM466 588H409L343 694L242 588H181L317 732H380L466 588Z"  />
<glyph unicode="&#xE3;" horiz-adv-x="519" d="M442 -1Q414 -6 391 -6Q335 -6 335 51Q335 64 337 78L335 80Q309 36 259 11T155 -15Q79 -15 35 21T-9 128Q-9 231 97 270Q159 292 290 297Q346 299 371 322T396 403Q396 478 287 478Q143 478 125 362H62Q74 443 132 487T280 531Q360 531 409 501T459 416Q459 385 452 350Q437 274 403 132Q393 90 393 69Q393 47 426 47Q438 47 451 49L442 -1ZM374 276L372 278Q354 254 258 249Q138 242 96 214T54 131Q54 38 169 38Q242 38 292 80Q338 119 353 183L374 276ZM471 711Q461 666 437 638T382 610Q351 610 287 649Q259 666 242 666Q206 666 194 610H153Q181 711 246 711Q274 711 323 681Q366 655 386 655Q398 655 412 672T431 711H471Z"  />
<glyph unicode="&#xE4;" horiz-adv-x="519" d="M442 -1Q414 -6 391 -6Q335 -6 335 51Q335 64 337 78L335 80Q309 36 259 11T155 -15Q79 -15 35 21T-9 128Q-9 231 97 270Q159 292 290 297Q346 299 371 322T396 403Q396 478 287 478Q143 478 125 362H62Q74 443 132 487T280 531Q360 531 409 501T459 416Q459 385 452 350Q437 274 403 132Q393 90 393 69Q393 47 426 47Q438 47 451 49L442 -1ZM374 276L372 278Q354 254 258 249Q138 242 96 214T54 131Q54 38 169 38Q242 38 292 80Q338 119 353 183L374 276ZM280 609H217L236 711H300L280 609ZM438 609H376L395 711H459L438 609Z"  />
<glyph unicode="&#xE5;" horiz-adv-x="519" d="M442 -1Q414 -6 391 -6Q335 -6 335 51Q335 64 337 78L335 80Q309 36 259 11T155 -15Q79 -15 35 21T-9 128Q-9 231 97 270Q159 292 290 297Q346 299 371 322T396 403Q396 478 287 478Q143 478 125 362H62Q74 443 132 487T280 531Q360 531 409 501T459 416Q459 385 452 350Q437 274 403 132Q393 90 393 69Q393 47 426 47Q438 47 451 49L442 -1ZM374 276L372 278Q354 254 258 249Q138 242 96 214T54 131Q54 38 169 38Q242 38 292 80Q338 119 353 183L374 276ZM410 679Q410 637 381 609T311 580Q269 580 240 608T211 680Q211 721 239 750T310 779Q354 779 382 751T410 679ZM311 614Q339 614 357 632T375 679Q375 706 357 725T310 745Q282 745 264 727T246 680Q246 651 265 633T311 614Z"  />
<glyph unicode="&#xE6;" horiz-adv-x="852" d="M792 166Q733 -15 545 -15Q472 -15 426 20T371 122H369Q319 -15 156 -15Q78 -15 35 22T-9 128Q-9 231 97 270Q159 292 290 297Q347 299 371 321T396 403Q396 478 287 478Q143 478 125 362H62Q74 443 132 487T280 531Q424 531 447 426Q507 531 632 531Q721 531 771 475T821 321Q821 280 811 241H426Q418 202 418 174Q418 113 457 76T558 38Q621 38 667 71T729 166H792ZM756 294Q758 310 758 331Q758 404 722 441T625 478Q555 478 505 431T435 294H756ZM374 276L372 278Q354 254 258 249Q168 244 126 228Q54 201 54 131Q54 38 169 38Q242 38 292 80Q338 119 353 183L374 276Z"  />
<glyph unicode="&#xE7;" horiz-adv-x="519" d="M454 167Q395 -15 210 -15H204L164 -56L167 -58Q180 -54 201 -54Q276 -54 276 -123Q276 -159 245 -181T168 -203Q121 -203 73 -181L87 -152Q131 -169 165 -169Q221 -169 221 -129Q221 -88 167 -88Q146 -88 128 -97L112 -79L171 -11Q94 2 54 59Q14 113 14 198Q14 327 88 425Q169 531 294 531Q383 531 435 487T487 363V355H424V366Q423 415 390 446T300 478Q194 478 132 388Q77 309 77 198Q77 123 114 81T221 38Q343 38 391 167H454Z"  />
<glyph unicode="&#xE8;" horiz-adv-x="519" d="M459 166Q404 -15 224 -15Q124 -15 69 42T14 204Q14 337 92 434T293 531Q383 531 436 477T489 329Q489 282 484 241H80Q77 222 77 201Q77 125 116 82T227 38Q288 38 332 72T396 166H459ZM425 294Q425 302 426 314Q426 326 426 330Q426 401 388 439T284 478Q215 478 161 427T88 294H425ZM353 588H303L197 732H271L353 588Z"  />
<glyph unicode="&#xE9;" horiz-adv-x="519" d="M459 166Q404 -15 224 -15Q124 -15 69 42T14 204Q14 337 92 434T293 531Q383 531 436 477T489 329Q489 282 484 241H80Q77 222 77 201Q77 125 116 82T227 38Q288 38 332 72T396 166H459ZM425 294Q425 302 426 314Q426 326 426 330Q426 401 388 439T284 478Q215 478 161 427T88 294H425ZM462 732L318 588H265L381 732H462Z"  />
<glyph unicode="&#xEA;" horiz-adv-x="519" d="M459 166Q404 -15 224 -15Q124 -15 69 42T14 204Q14 337 92 434T293 531Q383 531 436 477T489 329Q489 282 484 241H80Q77 222 77 201Q77 125 116 82T227 38Q288 38 332 72T396 166H459ZM425 294Q425 302 426 314Q426 326 426 330Q426 401 388 439T284 478Q215 478 161 427T88 294H425ZM470 588H413L347 694L246 588H185L321 732H384L470 588Z"  />
<glyph unicode="&#xEB;" horiz-adv-x="519" d="M459 166Q404 -15 224 -15Q124 -15 69 42T14 204Q14 337 92 434T293 531Q383 531 436 477T489 329Q489 282 484 241H80Q77 222 77 201Q77 125 116 82T227 38Q288 38 332 72T396 166H459ZM425 294Q425 302 426 314Q426 326 426 330Q426 401 388 439T284 478Q215 478 161 427T88 294H425ZM261 609H198L217 711H281L261 609ZM419 609H357L376 711H440L419 609Z"  />
<glyph unicode="&#xEC;" horiz-adv-x="185" d="M52 0H-11L100 516H163L52 0ZM186 588H136L30 732H104L186 588Z"  />
<glyph unicode="&#xED;" horiz-adv-x="185" d="M52 0H-11L100 516H163L52 0ZM302 732L158 588H105L221 732H302Z"  />
<glyph unicode="&#xEE;" horiz-adv-x="185" d="M52 0H-11L100 516H163L52 0ZM284 588H227L161 694L60 588H-1L135 732H198L284 588Z"  />
<glyph unicode="&#xEF;" horiz-adv-x="185" d="M52 0H-11L100 516H163L52 0ZM100 609H37L56 711H120L100 609ZM258 609H196L215 711H279L258 609Z"  />
<glyph unicode="&#xF0;" horiz-adv-x="556" d="M447 440Q427 552 356 623L248 568L222 599L326 652Q286 687 242 707L288 742Q339 717 378 679L495 738L521 707L406 649Q509 537 509 357Q509 205 442 103Q364 -15 220 -15Q124 -15 69 39T14 190Q14 321 92 411Q173 506 302 506Q400 506 445 440H447ZM231 38Q324 38 385 119T446 301Q446 373 405 413T291 453Q196 453 134 370Q77 294 77 196Q77 121 117 80T231 38Z"  />
<glyph unicode="&#xF1;" horiz-adv-x="537" d="M403 0H340L411 328Q419 365 419 385Q419 429 391 453T311 478Q242 478 186 419T108 261L52 0H-11L100 516H158L140 422H142Q174 471 223 501T327 531Q482 531 482 393Q482 372 479 357L474 332L403 0ZM427 711Q417 666 393 638T338 610Q307 610 243 649Q215 666 198 666Q162 666 150 610H109Q137 711 202 711Q230 711 279 681Q322 655 342 655Q354 655 368 672T387 711H427Z"  />
<glyph unicode="&#xF2;" horiz-adv-x="556" d="M435 92Q356 -15 220 -15Q125 -15 70 42T14 201Q14 335 90 430Q171 531 302 531Q394 531 450 477T506 329Q506 188 435 92ZM231 38Q325 38 384 124T443 316Q443 391 403 434T291 478Q197 478 135 393Q77 313 77 206Q77 127 117 83T231 38ZM365 588H315L209 732H283L365 588Z"  />
<glyph unicode="&#xF3;" horiz-adv-x="556" d="M435 92Q356 -15 220 -15Q125 -15 70 42T14 201Q14 335 90 430Q171 531 302 531Q394 531 450 477T506 329Q506 188 435 92ZM231 38Q325 38 384 124T443 316Q443 391 403 434T291 478Q197 478 135 393Q77 313 77 206Q77 127 117 83T231 38ZM474 732L330 588H277L393 732H474Z"  />
<glyph unicode="&#xF4;" horiz-adv-x="556" d="M435 92Q356 -15 220 -15Q125 -15 70 42T14 201Q14 335 90 430Q171 531 302 531Q394 531 450 477T506 329Q506 188 435 92ZM231 38Q325 38 384 124T443 316Q443 391 403 434T291 478Q197 478 135 393Q77 313 77 206Q77 127 117 83T231 38ZM479 588H422L356 694L255 588H194L330 732H393L479 588Z"  />
<glyph unicode="&#xF5;" horiz-adv-x="556" d="M435 92Q356 -15 220 -15Q125 -15 70 42T14 201Q14 335 90 430Q171 531 302 531Q394 531 450 477T506 329Q506 188 435 92ZM231 38Q325 38 384 124T443 316Q443 391 403 434T291 478Q197 478 135 393Q77 313 77 206Q77 127 117 83T231 38ZM489 711Q479 666 455 638T400 610Q369 610 305 649Q277 666 260 666Q224 666 212 610H171Q199 711 264 711Q292 711 341 681Q384 655 404 655Q416 655 430 672T449 711H489Z"  />
<glyph unicode="&#xF6;" horiz-adv-x="556" d="M435 92Q356 -15 220 -15Q125 -15 70 42T14 201Q14 335 90 430Q171 531 302 531Q394 531 450 477T506 329Q506 188 435 92ZM231 38Q325 38 384 124T443 316Q443 391 403 434T291 478Q197 478 135 393Q77 313 77 206Q77 127 117 83T231 38ZM296 609H233L252 711H316L296 609ZM454 609H392L411 711H475L454 609Z"  />
<glyph unicode="&#xF7;" horiz-adv-x="600" d="M338 453Q338 431 321 414T283 397Q260 397 243 413T226 453Q226 476 242 492T282 509Q305 509 321 493T338 453ZM534 225H31V278H534V225ZM338 50Q338 28 321 11T283 -6Q259 -6 243 10T226 50Q226 73 242 89T282 106Q305 106 321 90T338 50Z"  />
<glyph unicode="&#xF8;" horiz-adv-x="556" d="M6 -22L-14 0L51 65Q14 121 14 201Q14 335 90 429Q171 531 302 531Q398 531 454 472L512 530L534 509L474 448Q506 398 506 329Q506 188 435 92Q356 -15 220 -15Q125 -15 70 42L6 -22ZM409 427Q369 478 291 478Q194 478 132 388Q77 307 77 206Q77 147 97 112L409 427ZM114 87Q156 38 232 38Q328 38 389 132Q443 215 443 316Q443 361 426 400L114 87Z"  />
<glyph unicode="&#xF9;" horiz-adv-x="537" d="M402 0H344L362 94H360Q328 44 279 15T175 -15Q20 -15 20 124Q20 151 31 202L99 516H162L90 183Q83 151 83 131Q83 87 111 63T191 38Q262 38 315 95Q372 156 396 266L450 516H513L402 0ZM357 588H307L201 732H275L357 588Z"  />
<glyph unicode="&#xFA;" horiz-adv-x="537" d="M402 0H344L362 94H360Q328 44 279 15T175 -15Q20 -15 20 124Q20 151 31 202L99 516H162L90 183Q83 151 83 131Q83 87 111 63T191 38Q262 38 315 95Q372 156 396 266L450 516H513L402 0ZM466 732L322 588H269L385 732H466Z"  />
<glyph unicode="&#xFB;" horiz-adv-x="537" d="M402 0H344L362 94H360Q328 44 279 15T175 -15Q20 -15 20 124Q20 151 31 202L99 516H162L90 183Q83 151 83 131Q83 87 111 63T191 38Q262 38 315 95Q372 156 396 266L450 516H513L402 0ZM470 588H413L347 694L246 588H185L321 732H384L470 588Z"  />
<glyph unicode="&#xFC;" horiz-adv-x="537" d="M402 0H344L362 94H360Q328 44 279 15T175 -15Q20 -15 20 124Q20 151 31 202L99 516H162L90 183Q83 151 83 131Q83 87 111 63T191 38Q262 38 315 95Q372 156 396 266L450 516H513L402 0ZM266 609H203L222 711H286L266 609ZM424 609H362L381 711H445L424 609Z"  />
<glyph unicode="&#xFD;" horiz-adv-x="463" d="M126 -120Q85 -191 0 -191Q-8 -191 -55 -186L-43 -135Q-15 -138 10 -138Q52 -138 89 -88Q99 -74 139 0L44 516H110L185 78H186L424 516H492L126 -120ZM397 732L253 588H200L316 732H397Z"  />
<glyph unicode="&#xFE;" horiz-adv-x="574" d="M17 -191H-46L149 714H212L150 425H152Q209 531 333 531Q427 531 478 475T529 320Q529 185 446 85T247 -15Q103 -15 82 103H80L17 -191ZM246 38Q347 38 411 134Q466 217 466 324Q466 396 429 437T326 478Q231 478 164 385Q102 297 102 187Q102 118 140 78T246 38Z"  />
<glyph unicode="&#xFF;" horiz-adv-x="463" d="M126 -120Q85 -191 0 -191Q-8 -191 -55 -186L-43 -135Q-15 -138 10 -138Q52 -138 89 -88Q99 -74 139 0L44 516H110L185 78H186L424 516H492L126 -120ZM230 609H167L186 711H250L230 609ZM388 609H326L345 711H409L388 609Z"  />
<glyph unicode="&#x131;" horiz-adv-x="185" d="M52 0H-11L100 516H163L52 0Z"  />
<glyph unicode="&#x141;" horiz-adv-x="537" d="M467 0H5L59 251L-35 194L-23 250L71 307L159 714H227L150 355L402 508L393 454L139 299L86 58H481L467 0Z"  />
<glyph unicode="&#x142;" horiz-adv-x="185" d="M52 0H-11L62 338L-13 285L-1 340L74 393L143 714H206L148 446L226 502L215 447L136 391L52 0Z"  />
<glyph unicode="&#x152;" horiz-adv-x="1037" d="M956 0H501L515 64L513 66Q453 -15 325 -15Q193 -15 120 68T46 298Q46 470 148 595Q257 729 425 729Q568 729 636 626L655 714H1099L1086 656H706L652 398H1002L989 340H639L580 58H969L956 0ZM607 514Q611 533 611 542Q611 605 543 641Q487 671 418 671Q280 671 193 549Q114 439 114 296Q114 182 171 113T328 43Q405 43 465 89T542 208L607 514Z"  />
<glyph unicode="&#x153;" horiz-adv-x="907" d="M837 166Q780 -15 601 -15Q451 -15 419 119H417Q387 55 333 20T214 -15Q124 -15 73 40T22 193Q22 325 96 423Q177 531 304 531Q371 531 416 497T470 400H472Q502 460 559 495T685 531Q772 531 820 474T869 322Q869 280 858 241H471Q463 221 463 174Q463 112 501 75T605 38Q735 38 774 166H837ZM221 38Q325 38 381 146Q426 232 426 346Q426 407 391 442T294 478Q198 478 137 381Q85 297 85 195Q85 122 120 80T221 38ZM803 294Q806 323 806 336Q806 397 773 436Q736 478 669 478Q522 478 481 294H803Z"  />
<glyph unicode="&#x160;" horiz-adv-x="630" d="M538 506Q538 592 494 631T350 671Q269 671 218 632T167 528Q167 485 191 459Q219 430 287 410L355 390Q400 377 453 355Q555 313 555 206Q555 96 468 37Q393 -15 278 -15Q151 -15 80 46T9 215Q9 216 10 223Q10 230 10 235H78V217Q78 43 283 43Q370 43 428 85T486 196Q486 245 456 274T352 326Q311 338 230 362Q99 402 99 525Q99 627 177 681Q245 729 352 729Q474 729 540 676T606 522Q606 519 606 514Q605 509 605 506H538ZM412 778H349L263 922H320L386 813L487 922H548L412 778Z"  />
<glyph unicode="&#x161;" horiz-adv-x="481" d="M435 365H372V374Q372 423 340 450T251 478Q193 478 158 456T123 391Q123 359 152 336T257 285T367 224T400 143Q400 68 343 27T192 -15Q107 -15 54 30Q-2 77 -2 158V168H61Q61 38 207 38Q261 38 299 64T337 133Q337 179 284 211Q264 222 190 250Q60 298 60 390Q60 455 118 495Q172 531 251 531Q435 531 435 370V365ZM318 588H255L169 732H226L292 623L393 732H454L318 588Z"  />
<glyph unicode="&#x178;" horiz-adv-x="574" d="M260 0H191L256 295L66 714H138L299 352L598 714H681L323 288L260 0ZM334 799H271L290 901H354L334 799ZM492 799H430L449 901H513L492 799Z"  />
<glyph unicode="&#x17D;" horiz-adv-x="574" d="M506 0H-50L-37 60L532 656H98L111 714H626L614 657L43 58H519L506 0ZM396 778H333L247 922H304L370 813L471 922H532L396 778Z"  />
<glyph unicode="&#x17E;" horiz-adv-x="426" d="M351 0H-58L-47 51L352 463H44L55 516H443L432 466L31 53H362L351 0ZM277 588H214L128 732H185L251 623L352 732H413L277 588Z"  />
<glyph unicode="&#x192;" horiz-adv-x="556" d="M186 -43Q151 -173 36 -173Q8 -173 -19 -169L-5 -116Q12 -120 34 -120Q101 -120 127 -24L239 386H140L154 439H254L284 548Q301 611 314 635Q329 665 362 689T449 714Q485 714 516 709L502 657Q485 661 459 661Q379 661 357 582L318 439H436L422 386H303L186 -43Z"  />
<glyph unicode="&#x2C6;" horiz-adv-x="185" d="M282 588H225L159 694L58 588H-3L133 732H196L282 588Z"  />
<glyph unicode="&#x2C7;" horiz-adv-x="185" d="M180 588H117L31 732H88L154 623L255 732H316L180 588Z"  />
<glyph unicode="&#x2C9;" horiz-adv-x="185" d="M284 638H28L36 683H292L284 638Z"  />
<glyph unicode="&#x2D8;" horiz-adv-x="185" d="M309 725Q299 666 255 631T150 595Q94 595 60 629T25 720V725H63Q70 640 153 640Q243 640 271 725H309Z"  />
<glyph unicode="&#x2D9;" horiz-adv-x="185" d="M180 609H117L136 711H200L180 609Z"  />
<glyph unicode="&#x2DA;" horiz-adv-x="185" d="M259 679Q259 637 230 609T160 580Q118 580 89 608T60 680Q60 721 88 750T159 779Q203 779 231 751T259 679ZM160 614Q188 614 206 632T224 679Q224 706 206 725T159 745Q131 745 113 727T95 680Q95 651 114 633T160 614Z"  />
<glyph unicode="&#x2DB;" horiz-adv-x="185" d="M187 -138Q136 -203 67 -203Q-7 -203 -7 -142Q-7 -66 117 0H175Q61 -77 61 -131Q61 -158 86 -158Q120 -158 158 -113L187 -138Z"  />
<glyph unicode="&#x2DC;" horiz-adv-x="185" d="M314 711Q304 666 280 638T225 610Q194 610 130 649Q102 666 85 666Q49 666 37 610H-4Q24 711 89 711Q117 711 166 681Q209 655 229 655Q241 655 255 672T274 711H314Z"  />
<glyph unicode="&#x2DD;" horiz-adv-x="185" d="M209 732L65 588H12L128 732H209ZM357 732L213 588H160L276 732H357Z"  />
<glyph unicode="&#x3C0;" horiz-adv-x="600" d="M485 4Q466 0 437 0Q368 0 368 59Q368 72 373 96L451 463H196L98 0H35L133 463H51L62 516H604L593 463H514L437 102Q434 88 434 83Q434 53 466 53Q477 53 497 57L485 4Z"  />
<glyph unicode="&#x66D;" horiz-adv-x="770" d="M312 351L385 576L458 351H695L504 207L579 -16L385 120L191 -16L266 207L75 351H312Z"  />
<glyph unicode="&#xE01;" horiz-adv-x="556" d="M447 0H384L464 375Q468 394 468 410Q468 512 329 512Q187 512 139 405L138 399H227L218 358Q142 334 126 259L71 0H8L61 251Q78 330 145 356V359H69L79 404Q143 567 338 567Q423 567 478 526T533 418Q533 404 529 385L447 0Z"  />
<glyph unicode="&#xE02;" horiz-adv-x="495" d="M419 159Q402 80 348 35Q290 -14 199 -14Q124 -14 77 24T30 125Q30 141 34 159L51 236Q62 285 105 333Q141 370 177 407T214 475Q214 506 176 506H109L120 557H193Q274 557 274 490Q274 441 237 394Q231 387 165 320Q123 277 116 245L96 153Q93 139 93 126Q93 85 124 63Q152 41 200 41Q260 41 301 70T355 153L441 557H504L419 159Z"  />
<glyph unicode="&#xE03;" horiz-adv-x="495" d="M419 159Q402 80 348 35Q290 -14 199 -14Q124 -14 77 24T30 125Q30 141 34 159L51 237Q61 285 104 331Q140 366 176 402T213 472Q213 502 183 502Q152 502 138 475H102L119 557H149Q190 557 191 520H195L213 557Q275 555 275 491Q275 443 238 396Q234 392 165 323Q123 281 116 247L96 153Q93 139 93 126Q93 85 124 63Q152 41 200 41Q260 41 301 70T355 153L441 557H504L419 159Z"  />
<glyph unicode="&#xE04;" horiz-adv-x="575" d="M466 0H403L480 363Q484 382 484 396Q484 447 448 479T344 512Q264 512 208 468Q156 426 143 363L113 220H117Q162 297 259 297H307L294 234H247Q185 234 140 193Q100 155 87 97L66 0H3L79 358Q98 445 164 503Q238 567 344 567Q437 567 493 516Q546 468 546 395Q546 377 542 358L466 0Z"  />
<glyph unicode="&#xE05;" horiz-adv-x="584" d="M475 0H412L500 414Q503 428 503 446Q503 510 443 510Q381 510 350 420H302Q303 429 303 445Q303 510 249 510Q174 510 154 414L113 220H117Q162 297 259 297H307L294 234H247Q185 234 140 193Q100 155 87 97L66 0H3L89 405Q106 483 147 525T248 567Q286 567 311 548T340 497H344Q380 567 456 567Q506 567 536 537T566 451Q566 429 561 405L475 0Z"  />
<glyph unicode="&#xE06;" horiz-adv-x="568" d="M496 175Q475 78 408 28Q349 -14 268 -14Q137 -14 94 93H90L70 0H7L61 256Q72 307 109 350Q141 380 172 412T204 473Q204 502 174 502Q143 502 128 475H92L109 557H135Q182 557 181 518H184L202 557Q268 555 268 493Q268 451 235 408Q231 403 172 340Q135 300 128 271L121 240Q116 218 116 194Q116 127 157 84T269 41Q405 41 437 191L515 557H577L496 175Z"  />
<glyph unicode="&#xE07;" horiz-adv-x="540" d="M227 54Q303 89 373 166Q469 270 469 381Q469 444 440 479Q412 511 365 511Q342 511 327 508L338 562Q361 567 382 567Q447 567 490 517T534 382Q534 254 428 137Q350 52 250 0H166L69 557H130L215 54H227Z"  />
<glyph unicode="&#xE08;" horiz-adv-x="538" d="M217 54Q301 93 364 160Q451 253 451 362Q451 434 411 473T302 512Q237 512 189 485T121 408H58Q87 480 153 523T310 567Q403 567 459 513T515 372Q515 237 415 131Q342 53 227 0H162L103 197Q95 225 63 225H43L54 276H89Q143 276 157 227L208 54H217Z"  />
<glyph unicode="&#xE09;" horiz-adv-x="588" d="M484 0H422L442 97H438Q354 -14 220 -14Q161 -14 123 15Q79 48 79 108Q79 128 83 147L96 209Q98 219 98 225Q98 245 72 245H63L74 296H115Q167 296 167 252Q167 245 164 231L148 158Q144 140 144 126Q144 41 240 41Q325 41 397 113Q459 177 475 251L495 344Q500 367 500 389Q500 512 350 512Q281 512 231 481Q186 453 165 408H102Q129 480 194 522Q263 567 357 567Q453 567 508 522T564 399Q564 374 559 351L484 0Z"  />
<glyph unicode="&#xE0A;" horiz-adv-x="518" d="M407 391Q476 361 476 268Q476 137 411 63Q343 -14 216 -14Q134 -14 84 27T33 132Q33 146 37 165L52 236Q62 285 105 333Q142 370 178 407T215 475Q215 506 177 506H110L121 557H194Q275 557 275 490Q275 441 238 395Q233 389 165 320Q123 278 116 245L99 162Q96 147 96 138Q96 95 130 68T218 41Q412 41 412 261Q412 368 331 368H318L329 419H351Q392 419 420 444T457 508L467 557H532L522 509Q502 414 408 394L407 391Z"  />
<glyph unicode="&#xE0B;" horiz-adv-x="518" d="M407 391Q476 361 476 268Q476 137 411 63Q343 -14 216 -14Q134 -14 84 27T33 132Q33 146 37 165L52 236Q62 284 105 330Q141 366 177 402T214 472Q214 502 184 502Q153 502 138 475H102L120 557H150Q189 557 192 520H196L214 557Q275 555 275 491Q275 443 238 398Q233 392 166 325Q125 284 118 252L99 162Q96 148 96 138Q96 95 130 68T218 41Q412 41 412 261Q412 368 331 368H318L329 419H351Q392 419 420 444T457 508L467 557H532L522 509Q502 414 408 394L407 391Z"  />
<glyph unicode="&#xE0C;" horiz-adv-x="904" d="M833 179Q812 81 751 31Q695 -14 613 -14Q494 -14 456 91H452L433 0H370L450 375Q454 394 454 410Q454 512 325 512Q187 512 139 405L138 399H227L218 358Q142 334 126 259L94 109Q92 100 92 90Q92 55 140 55H171L159 0H106Q71 0 49 20T26 75Q26 87 28 96L61 251Q78 330 145 356V359H69L79 404Q143 567 331 567Q413 567 466 526T519 418Q519 404 515 385L485 246Q480 223 480 196Q480 132 512 89Q547 43 607 43Q741 43 772 189L850 557H913L833 179Z"  />
<glyph unicode="&#xE0D;" horiz-adv-x="904" d="M815 95Q767 -132 554 -132Q482 -132 434 -107Q373 -75 370 -7H433Q444 -81 553 -81Q639 -81 687 -38Q733 2 751 89L767 165H763Q693 50 556 50Q496 50 458 80Q414 115 414 183Q414 209 420 237L450 375Q454 393 454 410Q454 512 325 512Q187 512 139 405L138 399H227L218 358Q142 334 126 259L94 109Q92 100 92 90Q92 55 140 55H171L159 0H106Q71 0 49 20T26 75Q26 87 28 96L61 251Q78 330 145 356V359H69L79 404Q143 567 331 567Q413 567 466 526T519 418Q519 404 515 385L486 250Q480 222 480 197Q480 104 582 104Q662 104 724 170Q781 231 801 323L851 557H913L815 95Z"  />
<glyph unicode="&#xE0E;" horiz-adv-x="566" d="M443 -67Q429 -133 386 -170T287 -207Q220 -207 193 -156L179 -130L77 -200H1L12 -149H69L199 -63L224 -114Q246 -158 286 -158Q361 -158 381 -63L474 375Q478 394 478 410Q478 512 339 512Q197 512 149 405L148 399H251L242 358Q166 334 150 259L113 84Q95 0 10 0H-23L-12 53H1Q25 53 35 61T51 91L85 251Q102 330 169 356V359H79L89 404Q153 567 348 567Q433 567 488 526T543 418Q543 404 539 385L443 -67Z"  />
<glyph unicode="&#xE0F;" horiz-adv-x="566" d="M443 -65Q428 -134 383 -172Q342 -207 285 -207Q223 -207 193 -145L116 -194L98 -158L33 -200H-43L-32 -149H22L120 -86L144 -131L217 -83L238 -122Q257 -158 287 -158Q360 -158 380 -65L474 375Q478 394 478 410Q478 512 339 512Q197 512 149 405L148 399H251L242 358Q166 334 150 259L113 84Q95 0 10 0H-23L-12 53H1Q25 53 35 61T51 91L85 251Q102 330 169 356V359H79L89 404Q153 567 348 567Q433 567 488 526T543 418Q543 404 539 385L443 -65Z"  />
<glyph unicode="&#xE10;" d="M227 54Q311 93 374 160Q461 253 461 362Q461 434 421 473T312 512Q247 512 199 485T131 408H68Q97 480 163 523T320 567Q401 567 445 529L507 589H580L480 497Q525 451 525 372Q525 237 425 131Q352 53 237 0H172L113 197Q105 225 73 225H53L64 276H99Q153 276 167 227L218 54H227ZM378 -92Q350 -207 232 -207Q168 -207 142 -156L129 -130L28 -200H-43L-32 -149H24L152 -63L177 -114Q198 -156 237 -156Q297 -156 313 -92H378Z"  />
<glyph unicode="&#xE11;" horiz-adv-x="576" d="M467 0H404L483 373Q489 401 489 425Q489 508 407 508Q324 508 232 418Q144 332 125 243L73 0H10L61 242Q73 301 110 351Q118 361 170 418Q200 451 200 473Q200 501 169 501Q141 501 127 475H88L105 557H135Q177 557 180 518H186L204 557Q261 557 261 509Q261 504 259 490H262Q330 565 424 565Q482 565 519 532T557 441Q557 424 552 400L467 0Z"  />
<glyph unicode="&#xE12;" horiz-adv-x="955" d="M884 179Q864 84 799 31Q743 -14 674 -14Q605 -14 566 12Q529 35 507 91H503L484 0H420L506 403Q510 422 510 442Q510 507 454 507Q389 507 361 419H314Q315 425 315 437Q315 507 257 507Q175 507 126 402Q85 314 85 213Q85 39 217 39Q252 39 285 50L275 -1Q233 -14 194 -14Q121 -14 73 40Q21 100 21 204Q21 356 89 461T251 566Q337 566 350 495H353Q405 566 467 566Q515 566 544 532T574 444Q574 424 570 405L536 246Q530 218 530 189Q530 125 560 87Q594 43 658 43Q792 43 823 189L901 557H964L884 179Z"  />
<glyph unicode="&#xE13;" horiz-adv-x="904" d="M795 0H732L754 106H750Q673 -14 551 -14Q489 -14 449 15Q400 50 400 118Q400 140 406 168L450 375Q454 394 454 410Q454 512 325 512Q187 512 139 405L138 399H227L218 358Q142 334 126 259L94 109Q92 100 92 90Q92 55 140 55H171L159 0H106Q71 0 49 20T26 75Q26 87 28 96L61 251Q78 330 145 356V359H69L79 404Q143 567 331 567Q413 567 466 526T519 418Q519 404 515 385L472 185Q467 162 467 139Q467 89 497 63Q522 41 562 41Q643 41 709 111Q769 174 787 260L850 557H913L795 0Z"  />
<glyph unicode="&#xE14;" horiz-adv-x="589" d="M480 0H416L492 356Q497 379 497 398Q497 452 461 482T359 512Q237 512 158 419Q83 331 83 208Q83 39 229 39Q259 39 290 46L279 -5Q244 -14 204 -14Q125 -14 75 37Q19 94 19 198Q19 353 113 458Q210 567 362 567Q455 567 511 517Q562 471 562 402Q562 386 558 367L480 0Z"  />
<glyph unicode="&#xE15;" horiz-adv-x="608" d="M499 0H435L521 403Q525 422 525 442Q525 507 464 507Q394 507 366 419H319Q320 425 320 437Q320 507 259 507Q177 507 127 402Q85 314 85 213Q85 39 217 39Q252 39 285 50L275 -1Q233 -14 194 -14Q121 -14 73 40Q21 100 21 204Q21 356 90 461T253 566Q342 566 355 495H358Q410 566 477 566Q527 566 558 532T589 444Q589 424 585 405L499 0Z"  />
<glyph unicode="&#xE16;" horiz-adv-x="562" d="M453 0H390L470 375Q474 394 474 410Q474 512 335 512Q187 512 139 405L138 399H227L218 358Q142 334 126 259L94 109Q92 100 92 90Q92 55 140 55H171L159 0H106Q71 0 49 20T26 75Q26 87 28 96L61 251Q78 330 145 356V359H69L79 404Q143 567 341 567Q428 567 483 526T539 418Q539 404 535 385L453 0Z"  />
<glyph unicode="&#xE17;" horiz-adv-x="573" d="M464 0H401L477 358Q483 386 483 412Q483 512 377 512Q294 512 226 456Q152 396 132 299L70 0H5L123 557H186L164 452H168Q249 567 388 567Q456 567 501 529Q549 488 549 421Q549 400 545 381L464 0Z"  />
<glyph unicode="&#xE18;" horiz-adv-x="541" d="M466 148Q432 -14 229 -14Q139 -14 86 21T32 117Q32 133 35 147L50 218H113L99 152Q97 143 97 130Q97 87 135 63Q169 41 226 41Q383 41 404 144L412 183Q415 198 415 206Q415 252 340 271L169 315Q134 324 112 352T89 418Q89 479 134 518T261 557H538L526 499H250Q205 499 180 479T154 426Q154 380 216 364L398 316Q479 295 479 221Q479 210 476 196L466 148Z"  />
<glyph unicode="&#xE19;" horiz-adv-x="566" d="M455 0H392L414 101H410Q322 -14 190 -14Q124 -14 82 22Q36 61 36 130Q36 153 42 181L122 557H185L108 195Q102 167 102 141Q102 41 199 41Q291 41 363 107Q427 168 445 251L510 557H573L455 0Z"  />
<glyph unicode="&#xE1A;" horiz-adv-x="570" d="M500 183Q479 84 404 33Q337 -14 239 -14Q156 -14 101 23Q37 65 37 141Q37 161 42 183L121 557H185L107 192Q103 171 103 152Q103 41 241 41Q316 41 367 76Q423 115 439 192L517 557H579L500 183Z"  />
<glyph unicode="&#xE1B;" horiz-adv-x="570" d="M500 183Q479 84 404 33Q337 -14 239 -14Q156 -14 101 23Q37 65 37 141Q37 161 42 183L121 557H185L107 192Q103 171 103 152Q103 41 241 41Q407 41 439 192L558 746H620L500 183Z"  />
<glyph unicode="&#xE1C;" horiz-adv-x="711" d="M633 149Q598 -14 454 -14Q341 -14 324 74H320Q264 -14 161 -14Q100 -14 65 18T29 108Q29 126 34 149L121 557H249L238 507H173L94 134Q91 120 91 112Q91 41 172 41Q215 41 251 67Q291 97 302 149L389 557H452L365 149Q362 135 362 120Q362 82 387 62T448 41Q493 41 527 68Q558 94 567 134L657 557H720L633 149Z"  />
<glyph unicode="&#xE1D;" horiz-adv-x="711" d="M633 149Q598 -14 454 -14Q341 -14 324 74H320Q264 -14 161 -14Q100 -14 65 18T29 108Q29 126 34 149L121 557H249L238 507H173L94 134Q91 120 91 112Q91 41 172 41Q215 41 251 67Q291 97 302 149L389 557H452L365 149Q362 135 362 120Q362 82 387 62T448 41Q493 41 527 68Q558 94 567 134L697 746H760L633 149Z"  />
<glyph unicode="&#xE1E;" horiz-adv-x="688" d="M495 0H415L394 472H384L166 0H86L76 557H137L138 80H148L371 557H441L460 80H470L682 557H742L495 0Z"  />
<glyph unicode="&#xE1F;" horiz-adv-x="687" d="M495 0H415L394 472H384L166 0H86L76 557H137L138 80H148L371 557H441L460 80H470L730 746H790L495 0Z"  />
<glyph unicode="&#xE20;" horiz-adv-x="566" d="M457 0H394L474 375Q478 394 478 410Q478 512 339 512Q197 512 149 405L148 399H251L242 358Q166 334 150 259L113 84Q95 0 10 0H-23L-12 53H1Q25 53 35 61T51 91L85 251Q102 330 169 356V359H79L89 404Q153 567 348 567Q433 567 488 526T543 418Q543 404 539 385L457 0Z"  />
<glyph unicode="&#xE21;" horiz-adv-x="566" d="M494 175Q473 78 406 28Q347 -14 266 -14Q135 -14 92 93H88L68 0H5L123 557H186L119 240Q114 216 114 194Q114 127 155 84T267 41Q403 41 435 191L513 557H575L494 175Z"  />
<glyph unicode="&#xE22;" horiz-adv-x="547" d="M438 0H154Q92 0 54 37T15 133Q15 197 51 240T147 297V299Q85 318 85 391Q85 461 132 509T256 557H325L313 502H257Q211 502 179 473T146 396Q146 360 168 341T226 321H303L292 269H219Q154 269 117 235T80 142Q80 54 176 54H386L493 557H556L438 0Z"  />
<glyph unicode="&#xE23;" horiz-adv-x="490" d="M333 281Q431 243 431 157Q431 78 367 32T203 -14Q106 -14 53 34Q10 73 10 126Q10 128 11 131Q11 135 11 136H72V128Q72 89 109 65T209 41Q274 41 318 69Q366 99 366 148Q366 204 287 235L171 280Q76 317 76 394Q76 471 138 519T296 567Q397 567 447 512Q482 472 481 425H420Q420 462 392 485Q360 512 295 512Q232 512 191 488Q140 459 140 402Q140 371 164 352Q181 340 229 321L333 281Z"  />
<glyph unicode="&#xE24;" horiz-adv-x="562" d="M410 -200H347L470 375Q474 394 474 410Q474 512 335 512Q187 512 139 405L138 399H227L218 358Q142 334 126 259L94 109Q92 100 92 90Q92 55 140 55H171L159 0H106Q71 0 49 20T26 75Q26 87 28 96L61 251Q78 330 145 356V359H69L79 404Q143 567 341 567Q428 567 483 526T539 418Q539 404 535 385L410 -200Z"  />
<glyph unicode="&#xE25;" horiz-adv-x="540" d="M431 0H368L430 291Q384 267 239 250Q70 230 70 126Q70 39 168 39Q202 39 234 47L224 -3Q187 -14 147 -14Q87 -14 49 17Q6 52 6 116Q6 184 49 231Q98 283 195 296L364 319Q460 332 460 427Q460 512 339 512Q199 512 159 408H96Q118 477 184 522T345 567Q420 567 468 536Q522 502 522 442Q522 426 519 412L431 0Z"  />
<glyph unicode="&#xE26;" horiz-adv-x="566" d="M415 -200H352L474 375Q478 394 478 410Q478 512 339 512Q197 512 149 405L148 399H251L242 358Q166 334 150 259L113 84Q95 0 10 0H-23L-12 53H1Q25 53 35 61T51 91L85 251Q102 330 169 356V359H79L89 404Q153 567 348 567Q433 567 488 526T543 418Q543 404 539 385L415 -200Z"  />
<glyph unicode="&#xE27;" horiz-adv-x="523" d="M73 134Q76 92 109 67T199 41Q306 41 375 129T444 349Q444 427 406 469T301 512Q169 512 123 404H60Q88 477 153 522T300 567Q394 567 451 508T508 355Q508 199 433 99Q349 -14 199 -14Q112 -14 59 30Q9 71 6 134H73Z"  />
<glyph unicode="&#xE28;" horiz-adv-x="581" d="M466 0H403L480 363Q484 382 484 396Q484 447 448 479T344 512Q264 512 208 468Q156 426 143 363L113 220H117Q162 297 259 297H307L294 234H247Q185 234 140 193Q100 155 87 97L66 0H3L79 358Q98 445 164 503Q238 567 344 567Q442 567 491 514L570 589H644L521 477Q546 445 546 395Q546 377 542 358L466 0Z"  />
<glyph unicode="&#xE29;" horiz-adv-x="572" d="M504 183Q484 85 408 33Q339 -14 241 -14Q158 -14 102 23Q37 66 37 142Q37 161 42 183L121 557H185L107 192Q103 171 103 153Q103 98 141 70T243 41Q318 41 370 76Q427 116 443 192L465 294H319L330 348H476L521 557H583L539 348H593L582 294H527L504 183Z"  />
<glyph unicode="&#xE2A;" horiz-adv-x="540" d="M431 0H368L430 291Q384 267 239 250Q70 230 70 126Q70 39 168 39Q202 39 234 47L224 -3Q187 -14 147 -14Q87 -14 49 17Q6 52 6 116Q6 184 49 231Q98 283 195 296L364 319Q460 332 460 427Q460 512 339 512Q199 512 159 408H96Q118 477 184 522T345 567Q429 567 471 531L533 589H608L504 498Q522 477 522 442Q522 426 519 412L431 0Z"  />
<glyph unicode="&#xE2B;" horiz-adv-x="550" d="M443 0H380L422 196Q427 219 427 239Q427 320 326 320H137L69 0H6L124 557H187L149 375H334Q464 375 491 512L500 557H561L553 516Q538 440 508 402T420 349V347Q492 323 492 250Q492 228 487 205L443 0Z"  />
<glyph unicode="&#xE2C;" horiz-adv-x="711" d="M633 149Q599 -14 454 -14Q341 -14 324 74H320Q264 -14 161 -14Q100 -14 65 18T29 108Q29 126 34 149L121 557H184L94 134Q91 120 91 112Q91 41 172 41Q215 41 251 67Q291 97 302 149L389 557H452L365 149Q362 135 362 120Q362 82 387 62T448 41Q493 41 526 67T567 134L619 380Q623 399 623 411Q623 459 569 459H552L563 509H575Q647 509 667 604L677 652H741L731 607Q708 505 635 485L634 483Q685 462 685 410Q685 395 681 376L633 149Z"  />
<glyph unicode="&#xE2D;" horiz-adv-x="575" d="M214 249H90L86 229Q81 204 81 181Q81 115 125 78T243 41Q351 41 423 124T495 340Q495 420 449 466T330 512Q257 512 201 477Q153 446 129 400H66Q99 473 167 518Q242 567 337 567Q435 567 497 505T559 347Q559 183 467 85T235 -14Q140 -14 81 41T22 189Q22 243 42 290L46 299H225L214 249Z"  />
<glyph unicode="&#xE2E;" horiz-adv-x="575" d="M625 589L511 486Q559 430 559 347Q559 183 467 85T235 -14Q140 -14 81 41T22 189Q22 243 42 290L46 299H225L214 249H90L86 229Q81 204 81 181Q81 115 125 78T243 41Q351 41 423 124T495 340Q495 420 449 466T330 512Q257 512 201 477Q153 446 129 400H66Q99 473 167 518Q242 567 337 567Q426 567 476 520L550 589H625Z"  />
<glyph unicode="&#xE2F;" horiz-adv-x="578" d="M415 0H352L435 393H431Q359 286 245 286Q101 286 101 435Q101 474 111 520L119 557H184L176 519Q167 476 167 446Q167 340 256 340Q333 340 394 399Q449 454 464 527L470 557H533L415 0Z"  />
<glyph unicode="&#xE30;" horiz-adv-x="271" d="M264 405H63L83 498H143L135 457H286L284 452L264 405ZM199 97H-2L18 190H78L69 149H220L219 144L199 97Z"  />
<glyph unicode="&#xE31;" horiz-adv-x="0" d="M121 627H-103Q-204 627 -204 701Q-204 712 -201 727L-195 757H-132L-138 730Q-140 721 -140 714Q-140 680 -78 680H155L153 673L121 627Z"  />
<glyph unicode="&#xE32;" horiz-adv-x="460" d="M350 0H287L372 399Q375 413 375 425Q375 467 343 489T260 511Q140 511 106 421H43Q92 567 267 567Q339 567 388 531T438 432Q438 413 435 399L350 0Z"  />
<glyph unicode="&#xE33;" horiz-adv-x="459" d="M57 693Q57 654 26 624T-53 594Q-88 594 -109 614T-131 665Q-131 702 -100 732T-25 763Q12 763 36 742Q57 722 57 693ZM-5 649Q11 665 11 688Q11 724 -29 724Q-53 724 -69 709T-85 670Q-85 634 -44 634Q-21 634 -5 649ZM350 0H287L372 399Q375 413 375 425Q375 467 343 489T260 511Q140 511 106 421H43Q92 567 267 567Q339 567 388 531T438 432Q438 413 435 399L350 0Z"  />
<glyph unicode="&#xE34;" horiz-adv-x="0" d="M24 627H-391L-389 635L-358 680H35L24 627Z"  />
<glyph unicode="&#xE35;" horiz-adv-x="0" d="M24 627H-391L-389 635L-357 680H-24L-9 749H50L24 627Z"  />
<glyph unicode="&#xE36;" horiz-adv-x="0" d="M-101 680V687Q-101 724 -78 748T-11 773Q20 773 39 757T58 715Q58 678 33 653T-36 627H-391L-389 635L-358 680H-101ZM-27 664Q18 664 18 710Q18 739 -15 739Q-60 739 -60 693Q-60 664 -27 664Z"  />
<glyph unicode="&#xE37;" horiz-adv-x="0" d="M21 627H-406L-404 635L-372 680H-132L-117 749H-64L-79 680H-20L-5 749H47L21 627Z"  />
<glyph unicode="&#xE38;" horiz-adv-x="0" d="M-153 -210L-208 -232H-217L-191 -109H-238L-228 -63H-122L-153 -210Z"  />
<glyph unicode="&#xE39;" horiz-adv-x="0" d="M-139 -145Q-159 -242 -267 -242Q-311 -242 -337 -222T-363 -168Q-363 -160 -360 -146L-352 -109H-399L-389 -63H-282L-299 -144Q-301 -154 -301 -163Q-301 -196 -259 -196Q-208 -196 -197 -144L-180 -63H-122L-139 -145Z"  />
<glyph unicode="&#xE3A;" horiz-adv-x="0" d="M-131 -154Q-150 -175 -178 -175Q-200 -175 -213 -162T-227 -129Q-227 -102 -209 -83T-162 -63Q-141 -63 -127 -76T-113 -108Q-113 -134 -131 -154Z"  />
<glyph unicode="&#xE3F;" horiz-adv-x="556" d="M209 55L272 355H140L77 55H209ZM286 55Q373 55 422 108Q467 157 467 235Q467 296 422 328Q384 355 329 355H311L248 55H286ZM283 405L337 661H205L151 405H283ZM337 405Q414 405 460 449T507 570Q507 661 411 661H376L322 405H337ZM215 -100H176L197 0H6L158 717H349L369 807H408L388 717H413Q486 717 527 679T568 571Q568 506 530 451Q490 392 427 377V375Q526 354 526 241Q526 134 459 68Q389 0 270 0H236L215 -100Z"  />
<glyph unicode="&#xE40;" horiz-adv-x="216" d="M123 0H85Q17 0 17 58Q17 68 19 77L121 557H184L86 96Q84 87 84 81Q84 55 117 55H135L123 0Z"  />
<glyph unicode="&#xE41;" horiz-adv-x="411" d="M123 0H85Q17 0 17 58Q17 68 19 77L121 557H184L86 96Q84 87 84 81Q84 55 117 55H135L123 0ZM318 0H280Q212 0 212 58Q212 68 214 77L316 557H379L281 96Q279 87 279 81Q279 55 312 55H330L318 0Z"  />
<glyph unicode="&#xE42;" horiz-adv-x="243" d="M144 0H106Q38 0 38 58Q38 68 40 77L162 652Q169 685 169 711Q169 813 65 847L68 859Q83 919 143 919H459L448 865H147L146 861Q185 844 209 803T233 708Q233 686 226 653L107 96Q105 87 105 81Q105 55 138 55H156L144 0Z"  />
<glyph unicode="&#xE43;" horiz-adv-x="234" d="M143 0H105Q37 0 37 58Q37 68 39 77L147 583Q157 631 203 676Q242 711 281 746Q321 785 321 820Q321 878 228 878Q131 878 96 799H37Q59 857 111 892T235 927Q310 927 348 893Q380 864 380 819Q380 770 341 730Q302 698 264 665Q219 627 211 587L106 96Q104 87 104 81Q104 55 137 55H155L143 0Z"  />
<glyph unicode="&#xE44;" horiz-adv-x="258" d="M156 0H118Q50 0 50 58Q50 68 52 77L171 635Q190 722 237 783Q281 840 339 862L340 865H78L80 875L106 919H442L430 864Q357 845 306 789T236 648L119 96Q117 87 117 81Q117 55 150 55H168L156 0Z"  />
<glyph unicode="&#xE45;" horiz-adv-x="460" d="M308 -200H245L372 399Q375 413 375 425Q375 467 343 489T260 511Q140 511 106 421H43Q92 567 267 567Q339 567 388 531T438 432Q438 413 435 399L308 -200Z"  />
<glyph unicode="&#xE46;" horiz-adv-x="579" d="M405 -199H340L470 415Q475 439 475 459Q475 511 427 511Q396 511 373 488T339 434H295Q296 439 296 450Q296 511 246 511Q198 511 173 470Q154 437 154 390Q154 355 171 333T218 310Q237 310 246 313L237 270Q221 263 199 263Q154 263 125 299T95 385Q95 463 136 514T243 566Q321 566 327 496H330Q363 566 443 566Q540 566 540 460Q540 437 535 413L405 -199Z"  />
<glyph unicode="&#xE47;" horiz-adv-x="0" d="M24 627H-42Q-87 627 -91 672H-94Q-122 626 -173 626Q-208 626 -232 647Q-259 669 -259 707Q-259 766 -220 797T-110 829H67L58 786H-120Q-156 786 -179 767Q-205 747 -205 712Q-205 669 -161 669Q-116 669 -103 718H-73Q-77 669 -34 669H-7L5 723H45L24 627Z"  />
<glyph unicode="&#xE48;" horiz-adv-x="0" d="M24 627H-34L-4 767H54L24 627Z"  />
<glyph unicode="&#xE49;" horiz-adv-x="0" d="M133 627H-154L-144 675Q-142 685 -142 689Q-142 712 -172 712H-200L-188 767H-128Q-104 767 -90 755T-76 721Q-76 717 -78 707L-84 680H168L167 673L133 627Z"  />
<glyph unicode="&#xE4A;" horiz-adv-x="0" d="M81 627H-66L-60 653Q-58 659 -58 664T-58 675Q-58 691 -66 700T-92 710Q-118 710 -130 692T-150 650H-194Q-193 654 -193 658T-193 666Q-193 683 -199 695T-225 708Q-266 708 -282 640L-285 627H-342L-337 650Q-323 713 -292 738T-223 764Q-168 764 -162 712H-158Q-142 741 -121 752T-78 764Q-46 764 -27 746T-8 698Q-8 693 -8 689T-10 680H103L102 672L81 627Z"  />
<glyph unicode="&#xE4B;" horiz-adv-x="0" d="M118 696H37L22 627H-37L-22 696H-102L-92 742H-12L2 810H61L47 742H128L118 696Z"  />
<glyph unicode="&#xE4C;" horiz-adv-x="0" d="M110 708H30Q-2 708 -23 692T-51 642L-54 627H-116L-114 642Q-106 702 -67 731T35 761H108L112 718L110 708Z"  />
<glyph unicode="&#xE4D;" horiz-adv-x="0" d="M98 693Q98 654 67 624T-12 594Q-47 594 -68 614T-90 665Q-90 702 -59 732T16 763Q53 763 77 742Q98 722 98 693ZM36 649Q52 665 52 688Q52 724 12 724Q-12 724 -28 709T-44 670Q-44 634 -3 634Q20 634 36 649Z"  />
<glyph unicode="&#xE4E;" horiz-adv-x="0" d="M-46 618Q-68 613 -90 613Q-126 613 -151 631Q-181 652 -181 691Q-181 733 -151 760T-72 788H-39Q-49 798 -49 817Q-49 844 -29 861T25 878H114L119 837L118 834H30Q-4 834 -4 804Q-4 785 14 770L9 747H-59Q-91 747 -109 732T-128 695Q-128 654 -71 654Q-57 654 -37 658L-46 618Z"  />
<glyph unicode="&#xE4F;" horiz-adv-x="618" d="M432 261Q432 204 387 163T285 121Q240 121 215 149T189 220Q189 276 234 317T336 359Q379 359 405 331T432 261ZM364 185Q397 215 397 253Q397 285 379 305T328 325Q290 325 257 295T224 227Q224 195 242 175T292 155Q331 155 364 185ZM428 121Q494 181 494 269Q494 340 456 378T350 417Q259 417 195 355T131 209Q131 145 170 104T274 62Q363 62 428 121ZM541 277Q541 164 461 90T264 15Q185 15 134 68T83 200Q83 306 165 384T360 463Q442 463 491 412T541 277Z"  />
<glyph unicode="&#xE50;" horiz-adv-x="583" d="M334 448Q220 448 154 362Q97 290 97 195Q97 128 130 87Q169 39 247 39Q362 39 428 123Q483 194 483 290Q483 357 450 399Q411 448 334 448ZM243 -13Q145 -13 87 45Q33 101 33 190Q33 314 116 404Q204 499 338 499Q435 499 492 439Q546 382 546 294Q546 168 465 80Q379 -13 243 -13Z"  />
<glyph unicode="&#xE51;" horiz-adv-x="579" d="M234 -34Q341 -16 411 77T481 289Q481 365 438 408Q397 448 330 448Q240 448 176 393Q100 328 100 214Q100 160 121 128T180 96Q215 96 239 119Q268 147 268 199Q268 219 264 241H318Q323 224 323 200Q323 131 283 90T176 48Q118 48 80 89Q37 133 37 208Q37 340 122 421Q204 499 330 499Q424 499 482 449Q544 395 544 302Q544 148 453 40Q364 -64 222 -88L234 -34Z"  />
<glyph unicode="&#xE52;" horiz-adv-x="632" d="M542 125Q516 0 390 0H153Q108 0 80 26T52 96Q52 111 55 125L144 544Q146 553 146 559Q146 582 123 582H110L120 630H148Q211 630 211 571Q211 560 208 546L120 133Q118 124 118 112Q118 54 177 54H389Q461 54 478 132L536 405Q537 410 537 417Q537 448 504 448Q462 448 444 389H406Q407 395 407 406Q407 448 371 448Q328 448 319 405L305 339Q303 330 303 318Q303 277 355 277H368L357 227H337Q241 227 241 308Q241 318 244 332L261 414Q269 451 297 475T365 499Q430 499 434 441Q460 499 526 499Q562 499 583 481T605 431Q605 424 602 410L542 125Z"  />
<glyph unicode="&#xE53;" horiz-adv-x="604" d="M488 0H427L506 374Q508 383 508 393Q508 446 449 446Q375 446 358 367L313 156H250L295 367Q298 381 298 391Q298 446 238 446Q168 446 152 374L103 147Q99 128 99 118Q99 51 179 51H191L180 0H147Q96 0 67 28T37 106Q37 126 41 145L90 377Q102 434 141 466T239 499Q279 499 306 479T335 423Q374 499 464 499Q509 499 540 473T571 402Q571 390 568 376L488 0Z"  />
<glyph unicode="&#xE54;" horiz-adv-x="569" d="M454 0H175Q110 0 74 31T38 117Q38 136 42 155L80 335Q95 407 147 451T268 495H407Q455 495 480 512T514 572L526 629H587L577 581Q548 441 424 441H278Q164 441 140 328L107 171Q103 152 103 132Q103 52 194 52H344L345 54Q307 77 307 124Q307 133 310 147L322 202Q341 291 420 291H475L464 241H446Q396 241 385 193L372 134Q370 125 370 115Q370 85 392 69T446 52H465L454 0Z"  />
<glyph unicode="&#xE55;" horiz-adv-x="574" d="M459 0H175Q114 0 76 34T38 122Q38 136 42 155L80 335Q95 405 146 449T266 495V501Q266 532 290 556T354 580Q413 580 413 527Q413 506 402 495H407Q503 495 519 572L531 629H592L582 581Q553 441 424 441H278Q226 441 189 411T140 328L107 171Q102 147 102 129Q102 52 194 52H349L350 54Q312 77 312 124Q312 133 315 147L327 202Q346 291 425 291H480L469 241H451Q401 241 390 193L377 134Q375 125 375 118Q375 89 397 71T451 52H470L459 0ZM360 491Q372 502 372 516Q372 542 347 542Q331 542 320 532T309 506Q309 481 334 481Q349 481 360 491Z"  />
<glyph unicode="&#xE56;" horiz-adv-x="572" d="M498 196Q476 97 411 43Q354 -5 280 -5H212Q144 -5 98 31T52 126Q52 142 55 156L64 199H126L117 157Q114 143 114 133Q114 90 150 67Q180 49 223 49H256Q322 49 369 84Q422 122 437 194L460 304Q464 323 464 341Q464 391 432 418T344 446Q277 446 221 408Q171 375 146 322H90L137 544Q139 553 139 560Q139 581 117 581H109L119 629H142Q203 629 203 574Q203 560 200 546L173 421L176 418Q244 499 353 499Q433 499 479 457T526 346Q526 324 521 301L498 196Z"  />
<glyph unicode="&#xE57;" horiz-adv-x="771" d="M665 136Q652 74 607 37T498 0H370L381 51Q431 73 440 115L495 373Q497 382 497 394Q497 448 440 448Q370 448 353 368L307 153H245L291 368Q293 377 293 391Q293 448 237 448Q207 448 183 428T152 373L103 146Q99 127 99 115Q99 51 175 51H188L177 0H152Q100 0 69 29T37 109Q37 125 41 144L91 379Q102 432 141 465T235 499Q322 499 332 427Q349 461 385 481Q418 499 455 499Q504 499 532 474T560 406Q560 393 557 379L507 143Q492 72 446 51H506Q585 51 605 146L690 546Q708 629 785 629H809L799 581H791Q760 581 752 544L665 136Z"  />
<glyph unicode="&#xE58;" horiz-adv-x="574" d="M248 75Q207 -3 127 -3Q83 -3 55 21T27 85Q27 96 29 108L75 327Q91 402 146 448T279 495H395Q501 495 521 587L530 629H591L581 583Q567 517 525 479T422 441H288Q161 441 135 317L93 117Q91 109 91 102Q91 79 108 64Q122 51 144 51Q173 51 197 77T233 144H281Q277 104 294 78T340 51Q384 51 414 96T445 198Q445 271 390 271H374L385 320H417Q457 320 482 287T508 205Q508 116 464 58Q417 -3 342 -3Q307 -3 280 18T250 75H248Z"  />
<glyph unicode="&#xE59;" horiz-adv-x="580" d="M404 0H346L323 343Q316 446 243 446Q163 446 141 345L99 148Q94 125 94 109Q94 50 155 50H180L169 0H128Q88 0 60 29T32 103Q32 120 35 134L79 341Q113 499 245 499Q333 499 357 416H361Q377 472 424 472Q462 472 462 438Q509 440 517 478L549 629H608L574 469Q566 430 533 407T462 384H456Q450 418 428 418Q393 418 380 367L404 0Z"  />
<glyph unicode="&#xE5A;" horiz-adv-x="708" d="M545 0H481L599 557H663L545 0ZM415 0H352L435 393H431Q359 286 245 286Q101 286 101 435Q101 474 111 520L119 557H184L176 519Q167 476 167 446Q167 340 256 340Q333 340 394 399Q449 454 464 527L470 557H533L415 0Z"  />
<glyph unicode="&#xE5B;" horiz-adv-x="1326" d="M1272 154Q1225 142 1184 142Q1075 142 1059 270L961 82H937L903 317L772 63H742L714 297H710Q664 167 559 82T335 -4Q233 -4 167 54Q97 115 97 214Q97 344 174 432Q255 523 382 523Q456 523 505 478T555 361Q555 339 551 320H494Q497 334 497 348Q497 398 468 431Q435 468 378 468Q282 468 220 397T158 225Q158 150 207 103T339 55Q457 55 555 151Q659 253 709 435H743L778 162L902 408H931L961 174L1072 382H1098Q1096 361 1096 342Q1096 189 1202 189Q1238 189 1267 195L1272 154Z"  />
<glyph unicode="&#x2002;" horiz-adv-x="500" />
<glyph unicode="&#x2003;" horiz-adv-x="1000" />
<glyph unicode="&#x2009;" horiz-adv-x="100" />
<glyph unicode="&#x200A;" horiz-adv-x="20" />
<glyph unicode="&#x200B;" horiz-adv-x="0" />
<glyph unicode="&#x200C;" horiz-adv-x="0" d="M-90 1479L0 1389L88 1477L115 1450L27 1362L115 1274L88 1247L0 1333L-90 1246L-117 1274L-29 1362L-117 1450L-90 1479Z"  />
<glyph unicode="&#x200D;" horiz-adv-x="0" d="M77 749V795H-76V749H-99V818H100V749H77Z"  />
<glyph unicode="&#x200E;" horiz-adv-x="0" d="M10 858L26 875L95 806L26 737L10 754L51 795H-75V818H51L10 858Z"  />
<glyph unicode="&#x200F;" horiz-adv-x="0" d="M-10 754L-26 738L-95 806L-26 875L-10 859L-51 818H76V795H-50L-10 754Z"  />
<glyph unicode="&#x2010;" horiz-adv-x="370" d="M289 246H38L50 304H301L289 246Z"  />
<glyph unicode="&#x2013;" horiz-adv-x="500" d="M476 246H-24L-12 304H488L476 246Z"  />
<glyph unicode="&#x2014;" horiz-adv-x="1000" d="M846 246H106L118 304H858L846 246Z"  />
<glyph unicode="&#x2018;" horiz-adv-x="278" d="M212 472H128L161 609Q173 657 196 679T271 714L263 674Q214 661 194 577H236L212 472Z"  />
<glyph unicode="&#x2019;" horiz-adv-x="278" d="M220 572Q209 526 181 503Q159 484 110 471L118 511Q167 526 187 608H145L169 714H253L220 572Z"  />
<glyph unicode="&#x201A;" horiz-adv-x="278" d="M98 -37Q80 -115 -12 -137L-4 -97Q25 -87 39 -67T65 0H23L47 106H131L98 -37Z"  />
<glyph unicode="&#x201C;" horiz-adv-x="370" d="M179 472H95L127 609Q147 695 238 714L230 674Q179 658 161 577H203L179 472ZM332 472H248L280 609Q300 696 391 714L383 674Q357 666 343 649Q325 627 314 577H356L332 472Z"  />
<glyph unicode="&#x201D;" horiz-adv-x="370" d="M178 579Q166 527 145 506T67 471L75 511Q124 526 144 608H102L126 714H210L178 579ZM330 575Q319 530 296 507T220 471L228 511Q278 525 297 608H255L279 714H363L330 575Z"  />
<glyph unicode="&#x201E;" horiz-adv-x="370" d="M76 -30Q66 -74 46 -96Q20 -125 -35 -137L-27 -97Q2 -87 16 -67T42 0H0L24 106H108L76 -30ZM229 -32Q209 -117 118 -137L126 -97Q178 -82 195 0H153L177 106H261L229 -32Z"  />
<glyph unicode="&#x2020;" horiz-adv-x="556" d="M205 -149H142L267 440H67L79 493H279L326 714H389L342 493H539L528 440H330L205 -149Z"  />
<glyph unicode="&#x2021;" horiz-adv-x="556" d="M447 47H249L207 -149H144L186 47H-13L-1 100H197L274 463H75L86 516H286L328 714H391L349 516H545L535 463H337L260 101H457L447 47Z"  />
<glyph unicode="&#x2022;" horiz-adv-x="500" d="M377 231Q325 178 250 178Q175 178 124 230T72 357Q72 429 123 482T250 535Q324 535 376 483T429 357Q429 285 377 231Z"  />
<glyph unicode="&#x2026;" horiz-adv-x="1000" d="M136 0H52L75 106H160L136 0ZM470 0H386L409 106H494L470 0ZM804 0H720L743 106H828L804 0Z"  />
<glyph unicode="&#x202A;" horiz-adv-x="0" d="M-28 795H-85V818H-28V795ZM1 818H51L10 858L26 875L95 806L26 737L10 754L51 795H1V818Z"  />
<glyph unicode="&#x202B;" horiz-adv-x="0" d="M28 818H85V795H28V818ZM-1 795H-50L-10 754L-26 738L-95 806L-26 875L-10 859L-51 818H-1V795Z"  />
<glyph unicode="&#x202C;" horiz-adv-x="0" d="M-52 797L-69 813L0 882L69 813L52 797L11 838V736H-12V837L-52 797Z"  />
<glyph unicode="&#x202D;" horiz-adv-x="0" d="M-37 858L-21 875L48 806L-21 737L-37 754L4 795H-103V818H3L-37 858ZM28 858L44 875L113 806L44 737L28 754L81 806L28 858Z"  />
<glyph unicode="&#x202E;" horiz-adv-x="0" d="M38 754L21 737L-47 806L21 875L38 858L-3 817H104V794H-3L38 754ZM-28 754L-44 737L-113 806L-44 875L-28 858L-80 806L-28 754Z"  />
<glyph unicode="&#x2030;" horiz-adv-x="1056" d="M102 -32H48L618 723H673L102 -32ZM322 433Q273 368 196 368Q66 368 66 501Q66 588 114 647T240 706Q300 706 333 670T366 571Q366 492 322 433ZM197 413Q249 413 282 465Q313 513 313 579Q313 661 230 661Q181 661 149 609Q119 561 119 493Q119 456 140 435T197 413ZM610 50Q562 -15 485 -15Q355 -15 355 118Q355 204 403 263T529 323Q589 323 622 288T655 188Q655 109 610 50ZM963 50Q915 -15 838 -15Q708 -15 708 118Q708 204 757 263T882 323Q942 323 975 288T1008 188Q1008 109 963 50ZM486 30Q538 30 571 82Q602 130 602 196Q602 278 520 278Q470 278 439 229T408 109Q408 73 429 52T486 30ZM839 30Q891 30 924 82Q955 130 955 196Q955 278 873 278Q822 278 792 228T761 109Q761 73 782 52T839 30Z"  />
<glyph unicode="&#x2039;" horiz-adv-x="259" d="M157 118L51 257L66 321L225 434L210 366L94 282L169 180L157 118Z"  />
<glyph unicode="&#x203A;" horiz-adv-x="259" d="M169 230L10 117L25 185L141 269L66 371L78 434L184 294L169 230Z"  />
<glyph unicode="&#x2044;" horiz-adv-x="167" d="M-112 -34H-165L279 725H332L-112 -34Z"  />
<glyph unicode="&#x20AC;" horiz-adv-x="556" d="M491 42Q407 -16 313 -16Q199 -16 138 62T77 285H-3L23 329H78L86 389H23L50 433H96Q129 562 205 636T385 710Q484 710 566 634L532 581Q466 651 385 651Q234 651 166 433H478L452 389H155L147 329H425L398 285H144Q144 167 189 104T317 40Q369 40 420 66Q451 82 510 125L491 42Z"  />
<glyph unicode="&#x2113;" horiz-adv-x="500" d="M453 626Q453 581 432 535T378 443T301 355T213 276Q200 220 193 186T182 132T177 104T176 89Q176 72 181 61T194 42T213 33T232 30Q254 30 277 39T332 72H334L350 38Q315 12 284 -1T219 -14Q175 -14 147 9T119 79Q119 85 120 93T124 118T132 163T148 236L77 174H75L58 207L160 291L216 557Q234 643 273 682T364 721Q403 721 428 695T453 626ZM403 622Q403 647 391 663T359 680Q334 680 312 656T275 568L224 332Q251 357 282 391T340 464T385 543T403 622Z"  />
<glyph unicode="&#x2122;" horiz-adv-x="990" d="M269 302H216V669H82V714H403V669H269V302ZM908 302H855V666H853L707 302H677L531 666H529V302H476V714H561L694 380L823 714H908V302Z"  />
<glyph unicode="&#x2126;" horiz-adv-x="743" d="M700 455Q700 393 683 341T632 247T550 179T440 140L421 50L619 49L608 0H361L400 181Q418 183 436 186T472 196Q513 210 544 236T597 297T628 371T639 453Q639 502 623 542T577 609T507 652T417 667Q353 667 298 641T203 571T139 470T116 350Q116 281 152 234T260 180L221 0H-19L-8 49H179L200 143Q125 166 90 223T55 355Q55 428 84 494T164 611T280 691T419 721Q479 721 530 703T619 650T678 566T700 455Z"  />
<glyph unicode="&#x212E;" horiz-adv-x="600" d="M157 259V78Q216 19 302 19Q365 19 411 47T495 139L530 118Q507 82 484 57T433 15T373 -9T302 -17Q243 -17 196 4T114 63T62 151T44 259Q44 317 62 367T114 455T195 513T302 535Q360 535 407 515T489 458T542 371T561 259H157ZM448 295V440Q385 500 301 500Q217 500 157 440V295H448Z"  />
<glyph unicode="&#x2202;" horiz-adv-x="489" d="M374 390Q376 494 336 572Q287 669 192 669Q139 669 81 624L48 664Q112 721 189 721Q319 721 381 601Q430 507 430 364Q430 183 373 86T209 -12Q118 -12 63 55Q13 118 13 211Q13 303 66 363T205 423Q304 423 373 335L374 390ZM318 101Q360 165 368 276Q295 371 208 371Q147 371 109 325T70 210Q70 139 109 88T209 37Q277 37 318 101Z"  />
<glyph unicode="&#x2206;" horiz-adv-x="630" d="M566 0H-75L362 714H436L566 0ZM486 57L388 659L36 57H486Z"  />
<glyph unicode="&#x220F;" horiz-adv-x="708" d="M636 -214H576V729H132V-214H72V786H636V-214Z"  />
<glyph unicode="&#x2211;" horiz-adv-x="598" d="M573 -214H26V-163L357 289L40 734V786H561V729H116L430 289L98 -158H573V-214Z"  />
<glyph unicode="&#x2212;" horiz-adv-x="600" d="M532 225H29V278H532V225Z"  />
<glyph unicode="&#x2215;" horiz-adv-x="167" d="M-112 -34H-165L279 725H332L-112 -34Z"  />
<glyph unicode="&#x2219;" horiz-adv-x="278" d="M166 273Q149 256 128 256Q105 256 88 272T71 312Q71 334 87 351T127 368Q150 368 166 352T183 312Q183 291 166 273Z"  />
<glyph unicode="&#x221A;" horiz-adv-x="487" d="M255 -214H195L28 129L-17 107L-39 152L56 198L218 -142L409 784L410 786H465L255 -214Z"  />
<glyph unicode="&#x221E;" horiz-adv-x="731" d="M289 163Q223 107 157 107Q98 107 60 147T22 248Q22 309 60 350T156 392Q222 392 295 327L348 280Q411 346 455 371Q493 393 534 393Q595 393 633 353T672 251Q672 188 634 148T536 107Q454 107 348 213L289 163ZM475 320Q443 301 383 247Q439 197 472 179T539 160Q577 160 598 185T620 248Q620 289 597 314T535 340Q508 340 475 320ZM159 160Q217 160 312 247Q304 253 275 277Q204 339 154 339Q119 339 97 313T74 248Q74 207 97 184T159 160Z"  />
<glyph unicode="&#x222B;" horiz-adv-x="540" d="M279 11Q279 -214 161 -214Q102 -214 102 -168Q102 -137 135 -137Q157 -137 168 -161Q174 -174 183 -174Q219 -174 219 -13V541Q219 549 219 564Q218 579 218 586Q218 786 334 786Q400 786 400 739Q400 706 366 706Q342 706 331 732Q325 746 315 746Q279 746 279 622V11Z"  />
<glyph unicode="&#x2248;" horiz-adv-x="600" d="M565 417Q547 289 436 289Q389 289 299 324T163 360Q101 360 86 285H35Q43 344 77 378T164 413Q211 413 302 378T438 342Q498 342 514 417H565ZM565 220Q547 92 436 92Q388 92 289 130Q203 163 163 163Q101 163 86 88H35Q43 147 77 181T164 216Q215 216 310 179Q398 145 437 145Q498 145 514 220H565Z"  />
<glyph unicode="&#x2260;" horiz-adv-x="600" d="M538 128H246L155 -28L110 -3L185 128H35V181H216L299 325H35V378H330L417 528L463 503L391 378H538V325H360L277 181H538V128Z"  />
<glyph unicode="&#x2264;" horiz-adv-x="600" d="M531 86L28 280V334L531 528V473L88 307L531 141V86ZM531 0H28V53H531V0Z"  />
<glyph unicode="&#x2265;" horiz-adv-x="600" d="M542 280L39 86V141L482 307L41 473H39V528L542 334V280ZM542 0H39V53H542V0Z"  />
<glyph unicode="&#x25A0;" horiz-adv-x="857" d="M150 0V557H707V0H150Z"  />
<glyph unicode="&#x25CA;" horiz-adv-x="593" d="M325 -35H267L99 355L267 747H325L494 356L325 -35ZM296 26L435 356L296 686L158 356L296 26Z"  />
<glyph unicode="&#x25CC;" horiz-adv-x="706" d="M56 291Q56 309 63 318T91 327Q129 327 129 291Q129 254 91 254Q71 254 64 262T56 291ZM577 291Q577 327 614 327Q649 327 649 291Q649 254 614 254Q577 254 577 291ZM316 551Q316 588 352 588Q390 588 390 551Q390 514 352 514Q316 514 316 551ZM316 29Q316 67 352 67Q390 67 390 29Q390 -7 352 -7Q316 -7 316 29ZM543 421Q543 458 581 458Q618 458 618 421Q618 403 609 393T581 383Q561 383 552 393T543 421ZM543 160Q543 179 552 188T581 198Q600 198 609 189T618 160Q618 124 581 124Q543 124 543 160ZM88 421Q88 458 124 458Q163 458 163 421Q163 403 153 393T124 383Q105 383 97 393T88 421ZM88 160Q88 179 96 188T124 198Q143 198 153 189T163 160Q163 124 124 124Q88 124 88 160ZM187 519Q187 537 194 546T222 556Q261 556 261 519Q261 482 222 482Q202 482 195 491T187 519ZM446 519Q446 556 484 556Q521 556 521 519Q521 482 484 482Q446 482 446 519ZM187 61Q187 80 194 90T222 100Q261 100 261 61Q261 25 222 25Q202 25 195 34T187 61ZM446 61Q446 100 484 100Q521 100 521 61Q521 25 484 25Q446 25 446 61Z"  />
<glyph unicode="&#xFB01;" horiz-adv-x="444" d="M81 0H18L120 463H30L42 516H131L147 591Q161 656 193 685T288 714Q320 714 350 707L339 655Q315 661 294 661Q227 661 214 603L194 516H296L284 463H183L81 0ZM443 613H380L402 714H465L443 613ZM311 0H248L359 516H422L311 0Z"  />
<glyph unicode="&#xFB02;" horiz-adv-x="444" d="M81 0H18L120 463H30L42 516H131L147 591Q161 656 193 685T288 714Q320 714 350 707L339 655Q315 661 294 661Q227 661 214 603L194 516H296L284 463H183L81 0ZM310 0H248L402 714H465L310 0Z"  />

</font>
</defs>
</svg>
